<svg id="Layer_2" data-name="Layer 2" xmlns="http://www.w3.org/2000/svg" width="635.9" height="79.2" viewBox="0 0 635.9 79.2"><title>ocr-376x79</title><path d="M300.9.6V.9h0c1.3,0,2.2,1,2.2,2.8v8.4H303L293.7.6h-5.1V.9a3,3,0,0,1,2.7,1.7V14.4a2.86,2.86,0,0,1-1,2.4.91.91,0,0,1-.7.3h-.5l.1.4h5.4v-.4c-1.3,0-2.2-1.1-2.2-2.8V3.9h.1l10.9,13.5h.8V3.7c0-1.8.8-2.8,2.2-2.8V.6h-5.5"/><path d="M420.5.6l-.4,3.8v.5h.4c.4-2.1,1.3-3.4,3.5-3.4h2.5V14.6a2.11,2.11,0,0,1-2.2,2.4v.4h7.5V17a2.11,2.11,0,0,1-2.2-2.4V1.4h2.6c2.1,0,3,1.4,3.4,3.4h.4L435.7.4,420.5.6"/><path d="M362.6,12.9c-1.3,2.1-3.2,3.8-5.9,3.8-3.5,0-5.9-3.5-5.9-8.3,0-4.5,2.2-7.4,5.7-7.4a5.57,5.57,0,0,1,5.8,4.6h.5L362.4.4h-.5a1.11,1.11,0,0,1-1,.5c-1,0-2-.6-4.7-.6-5.2,0-8.8,3.4-8.8,8.9a8.32,8.32,0,0,0,8.6,8.7c3.7,0,5.7-2,7.1-4.4l-.5-.6"/><path d="M400.7,17.2a2.26,2.26,0,0,1-2.3-2.5V3.3A2.13,2.13,0,0,1,400.7.9V.6h-7.6V.9c1.5,0,2.1,1,2.1,2.4V14.7a5.83,5.83,0,0,1-4.3,2.3c-3.1,0-3.7-1.5-3.7-4.7v-9A2.11,2.11,0,0,1,389.4.9V.6h-7.5V.9c1.5,0,2.2.9,2.2,2.4v8.8c0,4.2,2,5.8,6,5.8a7,7,0,0,0,5.2-2.2h.1v1.9h5.4l-.1-.4"/><path d="M339,13.2l-.5-.1c-.9,2.5-1.8,3.4-3.7,3.4H331c-1.1,0-1.2-.2-1.2-.7V9.5h2.4c1.6,0,2.3.4,2.4,2.1h.5V6h-.4c-.2,1.8-1,2.2-2.4,2.2h-2.4V1.8h5c1.8,0,2.5,1.4,3,3.3h.4L337.9.7H324.6V1h0c1.6,0,2.2,1,2.2,2.4V14.8c0,1.4-.6,2.4-2.2,2.4v.4h13.8l.6-4.4"/><path d="M317.4,8.8h-.1v.6c1.5,0,1.9.4,1.9,2.2v2.8c0,1.9-1.5,2.8-4.4,2.8-3.5,0-5.4-3.6-5.4-8.4,0-4.4,1.6-7.8,5.8-7.9,3.4,0,4.8,2,5.5,4.8h.4L320.7.6h-.3a2.47,2.47,0,0,1-1.2.3h0c-.7,0-2.5-.8-4.1-.8-6,0-9.3,4-9.3,9.2,0,5,3.6,8.6,9.3,8.6,3.6,0,5.4-1.4,6.9-1.4V11.6c0-1.8.5-2.2,2-2.2V8.8h-6.6"/><path d="M373.1,0c-5.3,0-9.1,3.6-9.1,8.8a9,9,0,1,0,17.9,0A8.45,8.45,0,0,0,373.1,0m-.2,17.2c-3.4,0-5.6-3.4-5.6-8.2S369.4.9,373,.9s5.6,3.3,5.6,8.3C378.6,13.9,376.5,17.2,372.9,17.2Z"/><path d="M248,.1c-5.3,0-9.1,3.5-9.1,8.7a9,9,0,1,0,17.9,0A8.43,8.43,0,0,0,248,.1m-.1,17.1c-3.4,0-5.6-3.4-5.6-8.2s2-8.1,5.6-8.1,5.5,3.3,5.5,8.3C253.4,13.9,251.4,17.2,247.9,17.2Z"/><path d="M448.1.6V.9a1.51,1.51,0,0,1,1.7,1.3,3.69,3.69,0,0,1-.7,1.4l-2.9,4.6H446l-2.9-5.1a3.58,3.58,0,0,1-.4-1.1c0-.6.3-1.1,1.3-1.1h.3V.6H437V.9c1.7.1,1.7.5,2.9,2.4l3.9,6.5v4.8c0,1.3-.5,2.3-1.6,2.5v.4h6.4v-.4a2.32,2.32,0,0,1-1.8-2.5v-5l4.7-7A2.93,2.93,0,0,1,453.9.9V.6h-5.8"/><path d="M414.3.6V.9h0c1.3,0,2.2,1,2.2,2.8v8.4h-.1L407,.6h-5.1V.9a3,3,0,0,1,2.7,1.7V14.4a2.86,2.86,0,0,1-1,2.4.91.91,0,0,1-.7.3h-.4v.4H408v-.4c-1.3,0-2.1-1-2.2-2.6V3.9h.1l10.9,13.5h.8V3.7c0-1.8.8-2.8,2.2-2.8V.6h-5.5"/><path d="M273.5,17.1c-.7,0-1.7-1.1-1.8-1.1a28.56,28.56,0,0,1-1.6-2.5l-1-1.8a6.87,6.87,0,0,0-2.4-2.4V9.2A4.7,4.7,0,0,0,270.1,5c0-2.7-2.2-4.3-5.6-4.4h-7.6V.9h0a2.11,2.11,0,0,1,2.2,2.4V14.7a2.11,2.11,0,0,1-2.2,2.4v.4h7.5v-.4c-1.5,0-2.2-.9-2.2-2.4v-5h.5a2.51,2.51,0,0,1,2.2,1.3,30.62,30.62,0,0,1,2.5,3.8c1.1,1.9,2.4,2.9,4,2.9a8.62,8.62,0,0,0,2.1-.3v-.3h0m-10-8.5h-1.3V1.7h1.4c2.1,0,3.3,1.3,3.3,3.7C266.9,7.6,265.6,8.6,263.5,8.6Z"/><path d="M289.8,17.1c-.3-.1-.6-.1-.8-.2a.1.1,0,0,1-.1-.1,1.54,1.54,0,0,1-.6-.4,5.31,5.31,0,0,1-.8-1.7L281.9.1V0a11.32,11.32,0,0,1-3.2,1.3v.3c.4.1.5.3.7.7l-4.8,12.9c-.4,1.2-.8,2-2.1,2v.3H277v-.4c-1.2-.1-1.6-.5-1.6-.9a5.4,5.4,0,0,1,.4-1.2l1.1-3.1h6.3l1.2,3.2a3.18,3.18,0,0,1,.3.9c0,.4-.2,1-1.3,1v.4h6.7V17c-.1.2-.2.1-.3.1M277.3,11,280,3.6h.1l2.7,7.3h0l-5.5.1Z"/><rect x="201.2" y="8.3" width="10.4" height="1.1"/><path d="M202.6,3.3A2.13,2.13,0,0,1,204.9.9V.6h-7.5V1c1.5,0,2.1,1,2.1,2.4V14.9a2.13,2.13,0,0,1-2.3,2.4v.4h7.6v-.3c-1.5,0-2.1-1-2.1-2.4V7.5l-.1-4.2"/><path d="M213.9,3.3A2.13,2.13,0,0,1,216.2.9V.6h-7.5V1c1.5,0,2.1,1,2.1,2.4V14.9a2.13,2.13,0,0,1-2.3,2.4v.4H216v-.3c-1.5,0-2.1-1-2.1-2.4V3.3"/><path d="M180.6.5l-.4,3.8v.5h.4c.4-2.1,1.3-3.4,3.5-3.4h2.5V14.5a2.11,2.11,0,0,1-2.2,2.4v.4h7.5v-.4a2.11,2.11,0,0,1-2.2-2.4V1.3h2.6c2.1,0,3,1.4,3.4,3.4h.4L195.8.3,180.6.5"/><path d="M232,13.1l-.5-.1c-.9,2.5-1.8,3.4-3.7,3.4H224c-1.1,0-1.2-.2-1.2-.7V9.4h2.4c1.6,0,2.3.4,2.4,2.1h.4V5.9h-.4c-.2,1.8-1,2.2-2.4,2.2h-2.4V1.7h5c1.8,0,2.5,1.4,3,3.3h.4L230.8.6H217.5V.9h0c1.6,0,2.2,1,2.2,2.4V14.7c0,1.4-.6,2.4-2.2,2.4v.4h13.8l.7-4.4"/><path d="M447.1,62.5h-1.5l-.2.5c-2.7,7.4-4.9,9.5-10.3,9.5H422.9c-1.8,0-2.1-.3-2.1-2V52.3h4c4.5,0,6.2,1.5,6.6,6l.1.7H434V41h-2.4l-.1.7c-.5,4.3-2.4,6.1-6.6,6.1h-4.1V29.4h12.4c5.8,0,8.1,5.9,8.9,9.4l.1.6h2.6l-2.1-13.7-.1-.7H404.3v2.5h.8c4.4.1,5.2,2.2,5.2,6.3V67.9c0,4.6-1.4,6.4-5.1,6.4h-.8v2.6h41.4l2.3-14.5h-1"/><path d="M402.4,38.4,400.3,25h-44l-.1.7-1.9,12.8-.1.9h2.7l.1-.6c1.5-6.5,4.6-9.4,10.1-9.4H373V67.9c0,4.1-.7,6-5.1,6.3l-.7.1v2.6h22.7V74.3h-.8c-4-.1-5.4-1.8-5.4-6.3V29.4H390c5.8,0,8.8,2.8,10.1,9.3l.1.6h2.5l-.3-.9"/><path d="M341.7,46.1c-1.8-.7-3.6-1.4-5.5-2.1s-3.7-1.4-5.5-2.1-5.1-2.6-5.1-6.2c0-3.8,4.2-6.7,9.7-6.7,8.2,0,12.5,3,14.6,9.9l.2.6h2.5l-2.2-13.7-.1-.7h-1.8l-.2.4c-.5,1-.9,1-1,1a14.2,14.2,0,0,1-3.5-.8,24.89,24.89,0,0,0-8.3-1.6c-11.7,0-19.6,6-19.6,14.8,0,6.6,3.7,11.3,11.4,14.2,1.9.7,3.6,1.4,5.4,2l1.2.4c9.8,3.6,11.2,5.2,11.2,9.3,0,4.8-3.9,7.8-10.1,7.8-10,0-15.2-3.8-17.5-12.7l-.2-.6H315l.1.9L317.5,77h2.1l.1-.6c.2-1,.7-1.5,1-1.5a12.48,12.48,0,0,1,3.6.8,42.59,42.59,0,0,0,12.2,1.9c10.7,0,19.4-7.2,19.4-16.1.1-8.1-5.6-12-14.2-15.4"/><path d="M311.5,25H289.6v2.5h.8c4.5.1,5.2,2.2,5.2,6.4v34c0,4.2-.8,6.2-5.2,6.3h-.7v2.7h22.7V74.3h-.8c-4-.1-5.3-1.7-5.3-6.3V34c0-4.7,1.3-6.3,5.3-6.4h.8V25.1l-.9-.1"/><path d="M289.6,49.8H267.3v2.5h.8c4.3,0,5.3,1.2,5.3,6.5v7.9c0,3.7-1.4,7.6-11.6,7.6-9.7,0-15.3-8.7-15.3-23.9s5.4-23,16-23c8.6,0,13.9,3.7,16.3,11.4l.2.5h2.4l-.1-.9-1.9-13.7h-1.7l-.2.3c-.5.6-.9.9-2.6.9a16.66,16.66,0,0,1-4.6-1.1,28.53,28.53,0,0,0-7.7-1.6c-8.6,0-15.7,2.8-20.6,8.2-4.5,5-6.9,11.9-6.9,20.1,0,7.7,2.6,14.3,7.4,19.1,5,4.9,12.1,7.5,20.5,7.5A32.51,32.51,0,0,0,274.6,76l.6-.2c.5-.2,1.1-.4,1.7-.6a27.25,27.25,0,0,1,6.4-1.6h.7v-15c0-5,1-6.2,5.6-6.5h.7V49.6h-.7"/><path d="M505,74.9a8.52,8.52,0,0,1-2.5.3c-1.6,0-2.7-1.5-5.3-4.9-.4-.5-.8-1.1-1.3-1.7-2.1-2.7-4-5.2-5.8-7.8l-.6-.8c-2.5-3.4-4.4-6.1-7.1-7.5C489,50.2,494,44.3,494,38.2c0-8.1-6.9-13.2-18-13.2H450.1v2.5h.8c3.7.1,5.2,2,5.2,6.6V67.9c0,4.4-1.5,6.3-5.2,6.3h-.8v2.7H473V74.3h-.8c-3.9-.1-5.6-2-5.6-6.3V54.2h3.2c3.2,0,4.8.8,6.4,3.3,1.3,2,2.8,4.2,4.6,7.1.8,1.3,1.7,2.6,2.7,4.1l.7,1c3.2,4.9,6.2,9.5,12.7,9.5a19.17,19.17,0,0,0,8.6-1.6l.4-.2V74.5l-.9.4M483.1,39.2c0,7.3-5.1,10.5-10.1,10.5h-6.3V29.4h6.6C479.7,29.4,483.1,32.8,483.1,39.2Z"/><path d="M233.9,62.5h-1.4l-.2.5c-2.5,7.1-5.2,9.5-10.5,9.5H209.7c-2.3,0-2.3-.4-2.3-1.5V52.3h4.2c4.6,0,6.3,1.5,6.7,6l.1.7h2.3V41h-2l-.1.7c-.5,4.3-2.5,6.1-6.8,6.1h-4.3V29.4h12.4c6.1,0,8.3,5.9,9.1,9.4l.1.6h2.3l-2.1-13.7-.1-.7H191v2.5h.7c4.4.2,5.1,2.1,5.1,6.3V68.1c0,4.4-1.2,5.9-4.4,5.9s-6.4-4.5-9.8-9.3l-.5-.7c-1.7-2.4-3.2-4.6-5-7.1l-.7-1a16.34,16.34,0,0,0-7.1-6.1c4.8-1.5,11.9-5.5,11.9-15.2,0-9.5-8.9-15.4-23.1-15.4a125,125,0,0,0-27.3,3.1l-.5.1-.1.5L129.1,29l-.1.8.7.2.9.2.5.1.3-.4c1.7-2.2,3.3-3.8,9.5-4.9V67.9c0,4.3-1.7,6.2-5.8,6.3h-.7v2.7h24.1V74.3h-.7c-4.2-.2-6-2.1-6-6.3V51.6h4.5c4.2,0,6,1.7,7.5,4.3,1.6,2.8,4.1,7.1,7.5,12.8,3.7,6.3,7.4,10.2,14.1,10.2A26.08,26.08,0,0,0,195.8,77h36.7l.1-.6,2.3-13.9h-1M169.7,35.6c0,7.2-4,11.5-10.8,11.5h-7.1V24a52.47,52.47,0,0,1,6.4-.3C163.7,23.6,169.7,26.8,169.7,35.6Z"/></svg>