<svg enable-background="new 0 0 45 45" viewBox="0 0 45 45" xmlns="http://www.w3.org/2000/svg" xmlns:xlink="http://www.w3.org/1999/xlink"><clipPath id="a"><path d="m0 36h36v-36h-36z"/></clipPath><g clip-path="url(#a)" transform="matrix(1.25 0 0 -1.25 0 45)"><path d="m0 0 12.234 12.234c.977.976.977 2.559 0 3.535-.976.977-2.558.977-3.535 0l-12.234-12.234-12.235 12.234c-.975.977-2.559.977-3.535 0-.976-.976-.976-2.559 0-3.535l12.235-12.234-12.262-12.262c-.977-.977-.977-2.559 0-3.535.488-.489 1.128-.733 1.768-.733.639 0 1.279.244 1.767.733l12.262 12.262 12.234-12.234c.489-.488 1.128-.733 1.768-.733.639 0 1.279.245 1.767.733.977.976.977 2.558 0 3.535z" fill="#dd2e44" transform="translate(21.5332 17.9976)"/></g></svg>