<?xml version="1.0" encoding="UTF-8"?>
<svg width="43px" height="21px" viewBox="0 0 43 21" version="1.1" xmlns="http://www.w3.org/2000/svg" xmlns:xlink="http://www.w3.org/1999/xlink">
    <title>appletv</title>
    <g id="Page-1" stroke="none" stroke-width="1" fill="none" fill-rule="evenodd">
        <g id="appletv" transform="translate(0.722216, 0.607856)" fill="#000000" fill-rule="nonzero">
            <path d="M11.1048517,3.25156874 C11.8464376,2.33884769 12.200117,1.17512835 12.0974358,0.0114090131 C10.9565345,0.125499144 9.89549631,0.673131774 9.14250144,1.54021677 C8.38950658,2.38448374 8.00160013,3.49115801 8.08146322,4.62065031 C9.23377355,4.66628637 10.3632658,4.15288078 11.1048517,3.25156874" id="Path"></path>
            <path d="M11.1048517,3.17170565 C11.8236195,2.28180262 12.1772989,1.14090131 12.0974358,0 C10.9565345,0.114090131 9.89549631,0.661722761 9.14250144,1.52880776 C8.38950658,2.37307473 8.00160013,3.479749 8.08146322,4.6092413 C9.25659157,4.64346834 10.3746749,4.10724472 11.1048517,3.17170565" id="Path"></path>
            <path d="M12.0746178,4.80319452 C10.4317199,4.70051341 9.02841131,5.7387336 8.27541645,5.7387336 C7.52242158,5.7387336 6.29024816,4.84883058 4.97821165,4.8716486 C3.24404166,4.91728465 1.66959785,5.88705077 0.848148904,7.40444952 C-0.931657142,10.462065 0.380379366,15.0256703 2.11454936,17.4671991 C2.94740732,18.7335995 3.95140047,20 5.28625501,20 C6.62110954,20 7.03183402,19.1899601 8.56064177,19.1899601 C10.0894495,19.1899601 10.522992,20 11.8578466,19.977182 C13.1927011,19.9543639 14.0940131,18.7107815 14.9268711,17.5128351 C15.5201398,16.6457501 15.9765003,15.687393 16.2959527,14.6833999 C14.6758728,13.9646321 13.6376526,12.3559612 13.6490616,10.5875642 C13.6718797,9.03593839 14.4933286,7.59840274 15.8167741,6.78836281 C14.9725071,5.59041643 13.6148346,4.84883058 12.1544809,4.80319452" id="Path"></path>
            <path d="M25.0466657,3.18311466 L25.0466657,6.34341129 L27.5794666,6.34341129 L27.5794666,8.5225328 L25.0466657,8.5225328 L25.0466657,15.9383913 C25.0466657,17.0907017 25.5486623,17.6269253 26.6781546,17.6269253 C26.986198,17.6269253 27.2828323,17.6041072 27.5908757,17.5584712 L27.5908757,19.7261837 C27.0888791,19.8174558 26.5754735,19.8630918 26.0620679,19.8516828 C23.3353138,19.8516828 22.2628665,18.8248716 22.2628665,16.2236167 L22.2628665,8.55675984 L20.3461523,8.55675984 L20.3461523,6.34341129 L22.2970936,6.34341129 L22.2970936,3.18311466 L25.0466657,3.18311466 L25.0466657,3.18311466 Z" id="Path"></path>
            <polygon id="Path" points="36.8549943 19.8174558 33.9114689 19.8174558 29.0512293 6.34341129 31.9947547 6.34341129 35.3718226 17.0907017 35.3718226 17.0907017 38.7945265 6.34341129 41.6810069 6.34341129"></polygon>
        </g>
    </g>
</svg>