<?xml version="1.0" encoding="UTF-8"?>
<svg width="38px" height="21px" viewBox="0 0 38 21" version="1.1" xmlns="http://www.w3.org/2000/svg" xmlns:xlink="http://www.w3.org/1999/xlink">
    <title>firetv</title>
    <g id="Page-1" stroke="none" stroke-width="1" fill="none" fill-rule="evenodd">
        <g id="firetv" transform="translate(0.684422, 0.607856)" fill="#000000">
            <path d="M30.1063817,16.3943529 C26.9168721,18.7482012 22.2919516,20 18.31005,20 C12.7290667,20 7.70343505,17.9369965 3.90025436,14.5029215 C3.60188452,14.233147 3.86789647,13.86517 4.22721954,14.0739913 C8.33027508,16.4617025 13.4044435,17.899371 18.6452928,17.899371 C22.1805802,17.899371 26.0665369,17.1656747 29.6428361,15.6489927 C30.1820089,15.42023 30.6342668,16.004177 30.1063817,16.3943529" id="Fill-1"></path>
            <path d="M31.4338076,14.8787997 C31.0255715,14.3565585 28.7368152,14.6312243 27.7088879,14.7546357 C27.3969729,14.7918849 27.3488123,14.5194767 27.6294982,14.3223193 C29.4554614,13.0400439 32.4474373,13.4102783 32.7950965,13.839961 C33.1453895,14.2726537 32.7029141,17.272531 30.9917086,18.7038032 C30.7287067,18.9239121 30.4781212,18.8065207 30.5951363,18.5156759 C30.9800447,17.5543456 31.8420438,15.4014173 31.4338076,14.8787997" id="Fill-2"></path>
            <path d="M18.4214213,4.71052131 C20.2176604,4.71052131 20.2011052,6.28176019 20.1578359,6.95901833 L16.3618041,6.95901833 C16.4306586,5.78058917 16.9995555,4.71052131 18.4214213,4.71052131 Z M21.2986396,8.00237211 C21.5266499,8.00237211 21.5567502,7.24911056 21.5676616,6.93042298 C21.6534476,4.64542928 20.4471757,3.5358547 18.4850083,3.5358547 C17.4025241,3.5358547 16.4039446,3.92753566 15.7789858,4.68267848 C15.1991776,5.37272927 14.8650636,6.34873349 14.8650636,7.66449555 C14.8650636,8.95843485 15.1596709,9.92766649 15.7221714,10.6098159 C16.3019796,11.2994905 17.1820389,11.7810963 18.7122661,11.7810963 C19.2920743,11.7810963 20.4170753,11.658061 21.123305,11.3055105 C21.3829206,11.2088131 21.3863069,11.0921742 21.3863069,10.84648 L21.3863069,10.4224412 C21.3863069,10.1917972 21.2869757,10.0988623 21.037519,10.1790045 C20.2251855,10.4525415 19.4094657,10.5616554 18.9165723,10.5616554 C18.0684946,10.5616554 17.3268969,10.3155849 16.9182845,9.83096908 C16.5145634,9.30609402 16.3806168,8.71612694 16.3460014,8.00237211 C17.9891049,8.00237211 19.6555361,8.00237211 21.2986396,8.00237211 L21.2986396,8.00237211 Z" id="Fill-4"></path>
            <path d="M2.96563813,3.77063752 L2.96563813,2.25884686 C2.96563813,1.04956483 4.17830645,1.20382918 4.94962821,1.30127911 C5.2939011,1.3674999 5.42370891,1.31106172 5.42370891,1.042416 L5.42370891,0.542373738 C5.42370891,0.292540736 5.32362521,0.204120924 4.98349112,0.11306733 C3.08453456,-0.238730646 1.43352972,0.139781401 1.43352972,2.55082037 L1.43352972,3.81127301 L0.322450124,3.94032831 C0.0861622851,3.96102231 -5.34689832e-15,4.03363943 -5.34689832e-15,4.27067978 L-5.34689832e-15,4.66913332 C-5.34689832e-15,4.88585592 0.093311121,4.97239446 0.301756125,4.97239446 L1.43352972,4.97239446 L1.43352972,11.238161 C1.43352972,11.4537548 1.52006826,11.5399171 1.73641461,11.5399171 L2.66237699,11.5399171 C2.87909959,11.5399171 2.96563813,11.4537548 2.96563813,11.238161 L2.96563813,4.97239446 L5.01998781,4.97239446 C5.23558165,4.97239446 5.32174393,4.88585592 5.32174393,4.66913332 L5.32174393,4.07352241 C5.32174393,3.85717606 5.22316525,3.77063752 5.01998781,3.77063752 L2.96563813,3.77063752" id="Fill-5"></path>
            <path d="M7.84979806,3.78079639 L6.94076714,3.78079639 C6.72404453,3.78079639 6.63750599,3.86695868 6.63750599,4.08255252 L6.63750599,11.238161 C6.63750599,11.4537548 6.72404453,11.5399171 6.94076714,11.5399171 L7.84979806,11.5399171 C8.06614441,11.5399171 8.1530592,11.4537548 8.1530592,11.238161 L8.1530592,4.08255252 C8.1530592,3.90985169 8.06614441,3.78079639 7.84979806,3.78079639 Z M7.39189631,0.54839381 C6.8583674,0.54839381 6.44937873,0.907340623 6.44937873,1.47962375 C6.44937873,2.0583032 6.82337573,2.41047743 7.40657023,2.41047743 C7.98863597,2.41047743 8.36376173,2.05153062 8.36376173,1.47962375 C8.36376173,0.847139899 7.96530819,0.54839381 7.39189631,0.54839381 L7.39189631,0.54839381 Z" id="Fill-6"></path>
            <path d="M33.9806745,11.5399171 L33.0106903,11.5399171 C32.7935915,11.5399171 32.67319,11.4537548 32.587404,11.238161 L29.7718914,4.13786193 C29.6861054,3.92226809 29.7410386,3.78079639 29.969425,3.78079639 L31.0082638,3.78079639 C31.217085,3.78079639 31.3009898,3.90985169 31.3694681,4.08255252 L33.4983162,10.1379928 L35.6139954,4.08255252 C35.709564,3.86695868 35.8024989,3.78079639 36.0195977,3.78079639 L36.9493227,3.78079639 C37.2074333,3.78079639 37.2680102,3.91549551 37.1724416,4.1307131 L34.3558002,11.238161 C34.2790443,11.4104856 34.1891195,11.5399171 33.9806745,11.5399171" id="Fill-8"></path>
            <path d="M25.0848889,9.55028321 C25.0848889,11.3570574 26.3299151,11.6542985 27.2314209,11.6542985 C27.7152842,11.6542985 28.1062127,11.6046329 28.4960123,11.5226094 C28.9715981,11.384524 28.9655799,11.3040055 28.9655799,11.0876592 C28.9655799,10.904047 28.9655799,10.7204348 28.9655799,10.5371988 C28.9655799,10.3204762 28.8613555,10.2519979 28.658178,10.3001585 C28.2939637,10.3592304 28.053537,10.4017472 27.6919564,10.4164211 C26.6922482,10.346814 26.6000658,10.0258689 26.6000658,9.05249848 L26.6000658,4.97239446 L28.6096412,4.97239446 C28.8252351,4.97239446 28.9113973,4.88585592 28.9113973,4.66913332 L28.9113973,4.0644923 C28.9113973,3.84814595 28.8128187,3.76160741 28.6096412,3.76160741 L26.6000658,3.76160741 L26.6000658,1.89689001 C26.6000658,1.72456544 26.5135273,1.59513389 26.2968047,1.59513389 L25.6880249,1.59513389 C25.4509845,1.59513389 25.3335931,1.68129617 25.3128991,1.91758401 L25.119128,3.80073788 L23.9843444,3.94032831 C23.7480566,3.96102231 23.661518,4.07841372 23.661518,4.31545407 L23.661518,4.66913332 C23.661518,4.88585592 23.7909496,4.97239446 23.9632741,4.97239446 L25.0848889,4.97239446 C25.0848889,6.49848279 25.0848889,8.02419487 25.0848889,9.55028321" id="Fill-10"></path>
            <path d="M11.6010556,4.89789606 L11.489308,4.02348056 C11.4403949,3.80863923 11.3169835,3.78042014 11.1393913,3.78042014 L10.4598757,3.78079639 C10.2446581,3.78079639 10.1581195,3.86695868 10.1581195,4.08255252 L10.1581195,11.238161 C10.1581195,11.4533786 10.2446581,11.5399171 10.4598757,11.5399171 L11.365144,11.5399171 C11.5807379,11.5399171 11.6669002,11.4533786 11.6669002,11.238161 L11.6669002,5.81746211 C12.2583723,5.38364065 12.7674446,5.08828085 13.9281898,5.08828085 C14.212262,5.09354842 14.6129731,5.2004047 14.6129731,4.8967673 L14.6129731,4.00918289 C14.6129731,3.81014425 14.4952054,3.70027793 14.1136833,3.70027793 C13.1561156,3.70027793 12.5130966,3.94258584 11.6010556,4.89789606" id="Fill-14"></path>
        </g>
    </g>
</svg>