<?xml version="1.0" encoding="UTF-8"?>
<svg width="65px" height="21px" viewBox="0 0 65 21" version="1.1" xmlns="http://www.w3.org/2000/svg" xmlns:xlink="http://www.w3.org/1999/xlink">
    <title>hulu</title>
    <g id="Page-1" stroke="none" stroke-width="1" fill="none" fill-rule="evenodd">
        <g id="hulu" transform="translate(0.000000, 0.607856)" fill="#000000" fill-rule="nonzero">
            <path d="M64.7058824,6.23580129 L59.5531139,6.23580129 L59.5531139,14.2972492 C59.5531139,14.6612837 59.4038941,14.9705762 59.1645658,15.223758 C58.9237957,15.4488846 58.5943587,15.5611058 58.2065315,15.5884768 L55.2113226,15.5884768 C54.7917771,15.5604215 54.4623402,15.4482004 54.222291,15.223758 C53.9822417,14.9712604 53.8330219,14.6626523 53.8330219,14.2972492 L53.8330219,6.23580129 L48.6809744,6.23580129 L48.6809744,14.7187628 C48.7112509,15.8430272 48.9210236,16.8249624 49.4306777,17.6111947 C49.93889,18.3981114 50.5977639,18.9879568 51.4664105,19.3807308 C52.3660544,19.7735049 53.3839208,19.9993157 54.551007,19.9993157 L59.5545557,19.9993157 L59.5545557,19.9432051 C60.632975,19.9432051 61.5607328,19.7187628 62.3399918,19.2972492 C63.0954674,18.851004 63.6990113,18.2070487 64.0780058,17.442863 C64.4961096,16.6566306 64.7058824,15.7287533 64.7058824,14.7180786 L64.7058824,6.23580129 Z M13.150805,6.74148077 C12.251882,6.37676201 11.2635712,6.207746 10.1851518,6.23580129 L6.85978517,6.23580129 L5.57159306,6.37676201 C5.27171174,6.46092788 5.12177108,6.51703846 5.12177108,6.51703846 L5.12177108,3.55271368e-15 L0,3.55271368e-15 L0,20 L5.12249195,20 L5.12249195,11.9098125 C5.15276843,11.5724648 5.27243261,11.2358013 5.54203745,11.011359 C5.81164229,10.7869167 6.11152361,10.6466402 6.53034824,10.6466402 L9.52627795,10.6466402 C9.88599136,10.6466402 10.2154283,10.7882852 10.4850331,11.011359 C10.754638,11.2364856 10.8743022,11.573149 10.9045786,11.9098125 L10.9045786,20 L16.0270706,20 L16.0270706,11.2919119 C16.0270706,10.0834816 15.7574657,9.10086219 15.2485325,8.34200082 C14.708602,7.61187902 14.0194517,7.07882852 13.150805,6.74148077 L13.150805,6.74148077 Z M30.585011,14.2979335 C30.5547346,14.661968 30.4350704,14.9705762 30.195742,15.2244423 C29.9261372,15.4488846 29.5967003,15.5611058 29.2074312,15.5884768 L26.2115015,15.5884768 C25.8222325,15.5604215 25.4927956,15.4482004 25.2527463,15.2244423 C24.9831415,14.9712604 24.8634773,14.6626523 24.8332008,14.2979335 L24.8332008,6.23580129 L19.7107089,6.23580129 L19.7107089,14.7187628 C19.7107089,15.8430272 19.9507581,16.8249624 20.4301357,17.6111947 C20.9095133,18.3981114 21.5979428,18.9879568 22.4673102,19.3807308 C23.3662333,19.7735049 24.3545441,19.9993157 25.5526277,19.9993157 L30.585011,19.9993157 L30.585011,19.9432051 C31.6634304,19.9432051 32.59263,19.7187628 33.3416124,19.2972492 C34.0982912,18.8443074 34.7094504,18.2028688 35.1084612,17.442863 C35.4977302,16.6566306 35.7082239,15.7287533 35.7377795,14.7180786 L35.7377795,6.23580129 L30.585011,6.23580129 L30.585011,14.2979335 L30.585011,14.2979335 Z M39.6319114,20 L44.7544034,20 L44.7544034,0 L39.6319114,0 L39.6319114,20 L39.6319114,20 Z" id="Shape"></path>
        </g>
    </g>
</svg>