<?xml version="1.0" encoding="UTF-8"?>
<svg width="66px" height="21px" viewBox="0 0 66 21" version="1.1" xmlns="http://www.w3.org/2000/svg" xmlns:xlink="http://www.w3.org/1999/xlink">
    <title>roku</title>
    <g id="Page-1" stroke="none" stroke-width="1" fill="none" fill-rule="evenodd">
        <g id="roku" transform="translate(0.528485, 0.607856)" fill="#000000" fill-rule="nonzero">
            <g id="Group-21">
                <path d="M24.1041185,7.79484295 C22.708808,7.79484295 21.5219309,9.67362255 21.5219309,11.9992929 C21.5219309,14.3249632 22.708808,16.2061213 24.1041185,16.2061213 C25.5318103,16.2061213 26.7167406,14.324899 26.7167406,11.9992929 C26.7167406,9.67355827 25.5318103,7.79484295 24.1041185,7.79484295 L24.1041185,7.79484295 Z M32.2366598,11.9992929 C32.2366598,16.4422303 28.5892679,20 24.1041185,20 C19.6204617,20 16,16.4422303 16,11.9992929 C16,7.55969819 19.6204617,4 24.1041185,4 C28.5892679,4 32.2366598,7.55969819 32.2366598,11.9992929 L32.2366598,11.9992929 Z M7.43769912,0 C11.7254714,0 15.2252838,2.99489128 15.2252838,6.67972229 C15.2252838,8.92703694 13.8835775,10.934307 11.8416536,12.1624967 L17.3333333,20 L11.4420941,20 L6.76496484,13.3331805 L5.19191444,13.3331805 L5.19191444,19.9855908 L0,19.9855908 L0,0 L7.43769912,0 Z M38.5491716,4.30540534 L38.5491716,10.353601 L44.6355991,4.32533286 L55.4498726,4.32533286 L55.4498726,12.7351327 C55.4498726,15.1765112 56.0462313,15.9397996 57.3459557,15.9397996 C58.6269913,15.9397996 59.4558584,15.2931194 60.0507246,14.2646021 L60.0507246,14.2646021 L60.0507246,4.32533286 L65.3333333,4.32533286 L65.3333333,19.6767885 L64.2057677,19.6767885 L61.830521,17.6474596 C60.8501307,18.7648794 58.8329589,19.9998714 56.6348029,19.9998714 C52.0044898,19.9998714 50.1658362,17.2048115 50.1658362,14.1761496 L50.1658362,14.1761496 L50.1658362,5.05410161 L43.477664,11.6769813 L51.5523864,19.6768527 L44.9034089,19.6768527 L38.5491716,13.4415955 L38.5491716,19.6768527 L33.2666277,19.6768527 L33.2666277,4.30540534 L38.5491716,4.30540534 Z M6.79678422,3.324011 L5.19191444,3.324011 L5.19191444,10.0057637 L6.79678422,10.0057637 C8.57707504,10.0057637 10.0329868,8.50779408 10.0329868,6.67972229 C10.0329868,4.82093267 8.57707504,3.324011 6.79678422,3.324011 Z" id="Shape"></path>
            </g>
        </g>
    </g>
</svg>