<?xml version="1.0" encoding="UTF-8"?>
<svg width="30px" height="21px" viewBox="0 0 30 21" version="1.1" xmlns="http://www.w3.org/2000/svg" xmlns:xlink="http://www.w3.org/1999/xlink">
    <title>samsungtvplus</title>
    <defs>
        <path d="M17.7477569,0.172019769 L14.8154278,3.10401118 L11.8860257,0.172582662 C11.6550148,-0.0575275537 11.2815923,-0.0575275537 11.0517073,0.172582662 L11.0517073,0.172582662 C10.8211468,0.403030611 10.8211468,0.776340529 11.0517073,1.00633817 L11.0517073,1.00633817 L13.8743851,3.82924112 L0.518873768,3.82924112 C0.232024048,3.82924112 3.41214818e-16,4.06115259 3.41214818e-16,4.34766458 L3.41214818e-16,4.34766458 L3.41214818e-16,19.4811263 C3.41214818e-16,19.7678635 0.232024048,20 0.518873768,20 L0.518873768,20 L22.314499,20 C22.6014613,20 22.8339357,19.7678635 22.8339357,19.4811263 L22.8339357,19.4811263 C22.8339357,19.1943891 22.6014613,18.9627028 22.314499,18.9627028 L22.314499,18.9627028 L1.03707206,18.9627028 L1.03707206,4.86597544 L28.6161866,4.86597544 C28.9024735,4.86597544 29.1349478,4.63383882 29.1349478,4.34766458 L29.1349478,4.34766458 C29.1349478,4.06115259 28.9024735,3.82924112 28.6161866,3.82924112 L28.6161866,3.82924112 L15.7550069,3.82924112 L18.5793735,1.00476207 C18.8093711,0.774314119 18.8093711,0.402242563 18.5793735,0.172019769 L18.5793735,0.172019769 C18.4647687,0.0574149753 18.3136884,-1.62483247e-16 18.1636214,-1.62483247e-16 L18.1636214,-1.62483247e-16 C18.0131042,-1.62483247e-16 17.8622492,0.0574149753 17.7477569,0.172019769" id="path-1"></path>
        <linearGradient x1="19.4358175%" y1="69.001239%" x2="76.0923269%" y2="33.7707901%" id="linearGradient-3">
            <stop stop-color="#5069B1" offset="0%"></stop>
            <stop stop-color="#ED2680" offset="48%"></stop>
            <stop stop-color="#FDC010" offset="100%"></stop>
        </linearGradient>
        <path d="M17.7477569,0.172019769 L14.8154278,3.10401118 L11.8860257,0.172582662 C11.6550148,-0.0575275537 11.2815923,-0.0575275537 11.0517073,0.172582662 L11.0517073,0.172582662 C10.8211468,0.403030611 10.8211468,0.776340529 11.0517073,1.00633817 L11.0517073,1.00633817 L13.8743851,3.82924112 L0.518873768,3.82924112 C0.232024048,3.82924112 3.41214818e-16,4.06115259 3.41214818e-16,4.34766458 L3.41214818e-16,4.34766458 L3.41214818e-16,19.4811263 C3.41214818e-16,19.7678635 0.232024048,20 0.518873768,20 L0.518873768,20 L22.314499,20 C22.6014613,20 22.8339357,19.7678635 22.8339357,19.4811263 L22.8339357,19.4811263 C22.8339357,19.1943891 22.6014613,18.9627028 22.314499,18.9627028 L22.314499,18.9627028 L1.03707206,18.9627028 L1.03707206,4.86597544 L28.6161866,4.86597544 C28.9024735,4.86597544 29.1349478,4.63383882 29.1349478,4.34766458 L29.1349478,4.34766458 C29.1349478,4.06115259 28.9024735,3.82924112 28.6161866,3.82924112 L28.6161866,3.82924112 L15.7550069,3.82924112 L18.5793735,1.00476207 C18.8093711,0.774314119 18.8093711,0.402242563 18.5793735,0.172019769 L18.5793735,0.172019769 C18.4647687,0.0574149753 18.3136884,-1.62483247e-16 18.1636214,-1.62483247e-16 L18.1636214,-1.62483247e-16 C18.0131042,-1.62483247e-16 17.8622492,0.0574149753 17.7477569,0.172019769" id="path-4"></path>
    </defs>
    <g id="Page-1" stroke="none" stroke-width="1" fill="none" fill-rule="evenodd">
        <g id="samsungtvplus" transform="translate(0.225826, 0.607856)">
            <path d="M4.54568995,8.66133048 C4.53443211,8.59378344 4.53443211,8.52623641 4.54568995,8.48120506 C4.56820562,8.37988451 4.63575265,8.2560483 4.84965159,8.2560483 C5.04103484,8.2560483 5.16487105,8.37988451 5.16487105,8.56000993 L5.16487105,8.76265103 L5.99795109,8.76265103 L5.99795109,8.52623641 C5.99795109,7.79447692 5.34499648,7.68189855 4.87216726,7.68189855 C4.27550182,7.68189855 3.79141478,7.88453964 3.70135207,8.42491588 C3.6788364,8.57126778 3.66757856,8.70636183 3.71260992,8.8752294 C3.85896181,9.56195754 5.05229268,9.75334079 5.22116025,10.1923965 C5.25493376,10.2712014 5.24367593,10.3725219 5.23241809,10.4400689 C5.2099024,10.5526473 5.13109754,10.6652257 4.90594078,10.6652257 C4.69204185,10.6652257 4.56820562,10.5413895 4.56820562,10.3612641 L4.56820562,10.0347868 L3.66757856,10.0347868 L3.66757856,10.293717 C3.66757856,11.0479922 4.25298615,11.273149 4.8834251,11.273149 C5.49134837,11.273149 5.98669325,11.0705079 6.06549812,10.507616 C6.11052948,10.2149122 6.07675597,10.0347868 6.06549812,9.95598188 C5.90788838,9.2579959 4.63575265,9.05535482 4.54568995,8.66133048 M15.4320196,8.67258831 C15.4207617,8.60504129 15.4207617,8.53749425 15.4320196,8.50372074 C15.4545352,8.39114235 15.5220823,8.27856398 15.7359812,8.27856398 C15.9273644,8.27856398 16.0399428,8.40240019 16.0399428,8.5825256 L16.0399428,8.78516669 L16.8617651,8.78516669 L16.8617651,8.54875209 C16.8617651,7.82825044 16.2200682,7.71567206 15.747239,7.71567206 C15.1618314,7.71567206 14.6777444,7.90705531 14.5876817,8.44743155 C14.565166,8.59378344 14.5539082,8.7288775 14.5989395,8.89774508 C14.7452914,9.57321538 15.9161066,9.77585647 16.0962321,10.2036543 C16.1300056,10.2824592 16.1187478,10.3837797 16.1074899,10.4513268 C16.0849743,10.5639052 16.0061693,10.6764835 15.7810125,10.6764835 C15.5671136,10.6764835 15.4432774,10.5526473 15.4432774,10.3725219 L15.4432774,10.0460446 L14.5539082,10.0460446 L14.5539082,10.3049749 C14.5539082,11.0479922 15.128058,11.273149 15.7584969,11.273149 C16.3551623,11.273149 16.8505072,11.0705079 16.929312,10.5188738 C16.9630857,10.2374278 16.9405699,10.0460446 16.9180542,9.97849756 C16.7829601,9.26925374 15.5333402,9.05535482 15.4320196,8.67258831 M23.0423183,10.4963581 L22.2542696,7.80573476 L21.0159074,7.80573476 L21.0159074,11.1155392 L21.8377296,11.1155392 L21.7926983,8.33485316 L22.6370361,11.1155392 L23.8303669,11.1155392 L23.8303669,7.79447692 L23.0085448,7.79447692 L23.0423183,10.4963581 Z M7.23631331,7.79447692 L6.61713219,11.1380549 L7.51775926,11.1380549 L7.99058847,8.04214936 L8.45215984,11.1380549 L9.3527869,11.1380549 L8.7336058,7.79447692 L7.23631331,7.79447692 Z M12.3023405,7.79447692 L11.8745427,10.4175533 L11.4580027,7.79447692 L10.0958042,7.79447692 L10.0282572,11.1380549 L10.8613372,11.1380549 L10.8838529,8.04214936 L11.4580027,11.1380549 L12.3023405,11.1380549 L12.8764903,8.04214936 L12.899006,11.1380549 L13.7433438,11.1380549 L13.664539,7.79447692 L12.3023405,7.79447692 Z M20.0815068,7.79447692 L19.2371689,7.79447692 L19.2371689,10.2712014 C19.2371689,10.3162327 19.2371689,10.3612641 19.2259111,10.3950376 C19.2033954,10.4738424 19.1358483,10.64271 18.8994338,10.64271 C18.674277,10.64271 18.5954722,10.4851003 18.5842144,10.3950376 C18.5729565,10.3612641 18.5729565,10.3162327 18.5729565,10.2712014 L18.5729565,7.79447692 L17.7286186,7.79447692 L17.7286186,10.1923965 C17.7286186,10.2486857 17.7286186,10.3837797 17.7398765,10.4175533 C17.7961656,11.0479922 18.2915106,11.2506333 18.9106916,11.2506333 C19.5298727,11.2506333 20.0252175,11.0479922 20.0815068,10.4175533 C20.0815068,10.3837797 20.0927647,10.2599435 20.0927647,10.1923965 L20.0927647,7.79447692 L20.0815068,7.79447692 Z M25.8905514,9.26925374 L25.8905514,9.75334079 L26.2395444,9.75334079 L26.2395444,10.2374278 C26.2395444,10.2824592 26.2395444,10.3274906 26.2282865,10.3612641 C26.2170287,10.4513268 26.126966,10.6089365 25.8792935,10.6089365 C25.6316211,10.6089365 25.5528162,10.4513268 25.5415584,10.3612641 C25.5303005,10.3274906 25.5303005,10.2824592 25.5303005,10.2374278 L25.5303005,8.70636183 C25.5303005,8.65007264 25.5303005,8.59378344 25.5415584,8.54875209 C25.564074,8.46994723 25.6316211,8.30107965 25.8792935,8.30107965 C26.1382238,8.30107965 26.1945131,8.46994723 26.2170287,8.54875209 C26.2282865,8.59378344 26.2282865,8.67258831 26.2282865,8.67258831 L26.2282865,8.86397157 L27.0726244,8.86397157 L27.0726244,8.75139318 C27.0726244,8.75139318 27.0726244,8.6388148 27.0613666,8.52623641 C26.9938195,7.89579747 26.475959,7.70441422 25.8905514,7.70441422 C25.2938859,7.70441422 24.7872832,7.90705531 24.7197363,8.52623641 C24.7084783,8.5825256 24.6972205,8.68384615 24.6972205,8.75139318 L24.6972205,10.158623 C24.6972205,10.2149122 24.6972205,10.2712014 24.7084783,10.3837797 C24.7647676,10.991703 25.2938859,11.2056019 25.8792935,11.2056019 C26.475959,11.2056019 27.0050773,10.991703 27.0613666,10.3837797 C27.0726244,10.2712014 27.0726244,10.22617 27.0726244,10.158623 L27.0726244,9.2579959 L25.8905514,9.2579959 L25.8905514,9.26925374 Z" id="Shape" fill="#010101" fill-rule="nonzero"></path>
            <g id="Group" transform="translate(3.656321, 13.378365)" fill="#010101" fill-rule="nonzero">
                <polygon id="Path" points="0.968174094 0.697985975 -5.24008471e-16 0.697985975 -5.24008471e-16 0.0450313531 2.62307633 0.0450313531 2.62307633 0.686728136 1.6436444 0.686728136 1.6436444 3.67005528 0.968174094 3.67005528"></polygon>
                <polygon id="Path" points="2.87074876 0.0450313531 3.56873474 0.0450313531 4.42433046 2.645592 5.27992616 0.0450313531 5.97791214 0.0450313531 4.76206561 3.68131312 4.07533747 3.68131312"></polygon>
                <path d="M7.49772031,0.0450313531 L8.74734036,0.0450313531 C8.93872361,0.0450313531 9.10759119,0.078804868 9.26520092,0.146351898 C9.42281066,0.213898927 9.55790471,0.303961634 9.68174094,0.427797855 C9.79431933,0.540376238 9.88438203,0.675470298 9.95192905,0.833080034 C10.0194761,0.99068977 10.0532496,1.15955734 10.0532496,1.33968276 C10.0532496,1.51980816 10.0194761,1.68867575 9.95192905,1.84628548 C9.88438203,2.00389522 9.79431933,2.13898928 9.68174094,2.2628255 C9.56916255,2.37540388 9.42281066,2.46546659 9.26520092,2.54427145 C9.10759119,2.61181848 8.92746577,2.645592 8.73608252,2.645592 L8.17319061,2.645592 L8.17319061,3.68131312 L7.49772031,3.68131312 L7.49772031,0.0450313531 L7.49772031,0.0450313531 Z M8.17319061,0.675470298 L8.17319061,2.01515305 L8.69105117,2.01515305 C8.79237171,2.01515305 8.88243442,1.99263738 8.96123929,1.95886386 C9.04004416,1.92509035 9.11884902,1.880059 9.17513821,1.81251196 C9.23142741,1.75622278 9.27645876,1.6774179 9.31023227,1.59861304 C9.34400579,1.51980816 9.35526364,1.42974546 9.35526364,1.33968276 C9.35526364,1.24962005 9.33274795,1.15955734 9.31023227,1.08075248 C9.27645876,1.00194761 9.23142741,0.93440058 9.17513821,0.866853548 C9.11884902,0.810564358 9.04004416,0.765533004 8.96123929,0.720501651 C8.88243442,0.686728136 8.79237171,0.66421246 8.69105117,0.66421246 L8.17319061,0.66421246 L8.17319061,0.675470298 Z" id="Shape"></path>
                <polygon id="Path" points="10.3684691 -8.12416234e-18 11.0439394 -8.12416234e-18 11.0439394 3.68131312 10.3684691 3.68131312"></polygon>
                <path d="M14.06104,3.68131312 L13.3968276,3.68131312 L13.3968276,3.30980446 C13.3067649,3.42238284 13.1829287,3.51244556 13.0478346,3.57999258 C12.9127405,3.64753961 12.743873,3.68131312 12.5637475,3.68131312 C12.2147546,3.68131312 11.9445664,3.56873473 11.7419254,3.35483582 C11.5392843,3.14093688 11.4379637,2.83697525 11.4379637,2.45420875 L11.4379637,0.754275167 L12.1246919,0.754275167 L12.1246919,2.37540388 C12.1246919,2.60056064 12.1697232,2.76942822 12.2710438,2.89326444 C12.3723643,3.01710067 12.529974,3.08464769 12.743873,3.08464769 C12.9239984,3.08464769 13.0816081,3.01710067 13.2054443,2.88200661 C13.3292805,2.74691254 13.3855697,2.55552929 13.3855697,2.30785685 L13.3855697,0.743017328 L14.06104,0.743017328 L14.06104,3.68131312 L14.06104,3.68131312 Z" id="Path"></path>
                <path d="M15.6033639,3.68131312 C15.2768866,3.68131312 15.0179563,3.62502393 14.8040573,3.50118771 C14.5901584,3.37735148 14.4325487,3.20848392 14.3087125,2.98332714 L14.9278936,2.70188119 C14.9954407,2.82571742 15.0967611,2.92703796 15.2093395,2.99458498 C15.3331758,3.06213202 15.4682698,3.09590553 15.6258796,3.09590553 C15.7947471,3.09590553 15.9185834,3.06213202 15.9973883,2.99458498 C16.0761931,2.92703796 16.1212244,2.84823309 16.1212244,2.75817038 C16.1212244,2.71313903 16.0987087,2.66810768 16.0649353,2.63433417 C16.0311618,2.60056064 15.9748725,2.57804497 15.9185834,2.55552929 C15.8510364,2.53301362 15.7834893,2.51049794 15.7046845,2.4992401 C15.6258796,2.48798227 15.5358168,2.46546659 15.4457542,2.44295092 C15.3219179,2.42043523 15.1980817,2.38666172 15.0742455,2.3528882 C14.9504092,2.31911469 14.8490888,2.27408334 14.7477682,2.2065363 C14.6464476,2.15024712 14.5789006,2.07144225 14.5113536,1.9701217 C14.4550644,1.86880115 14.4212909,1.75622278 14.4212909,1.60987088 C14.4212909,1.4972925 14.4438065,1.39597195 14.5000957,1.2946514 C14.5563849,1.19333086 14.6351898,1.10326815 14.7365103,1.02446329 C14.8378309,0.945658417 14.9504092,0.878111387 15.0967611,0.833080034 C15.243113,0.788048682 15.4007227,0.765533004 15.5695904,0.765533004 C15.8622942,0.765533004 16.1099666,0.821822196 16.3013499,0.923142741 C16.4927331,1.03572112 16.6503428,1.18207302 16.7629213,1.36219843 L16.1887715,1.63238655 C16.1324822,1.53106601 16.0424196,1.45226114 15.941099,1.39597195 C15.8397784,1.33968276 15.7159423,1.30590924 15.5695904,1.30590924 C15.4119807,1.30590924 15.2881445,1.33968276 15.2205973,1.39597195 C15.1417926,1.45226114 15.1080189,1.51980816 15.1080189,1.60987088 C15.1080189,1.69993359 15.1643082,1.76748061 15.2768866,1.80125413 C15.3894649,1.83502764 15.5583326,1.880059 15.7722315,1.92509035 C15.8960677,1.94760603 16.0086461,1.98137954 16.1324822,2.01515305 C16.2563185,2.04892658 16.3688969,2.10521576 16.4589596,2.16150495 C16.5602801,2.21779414 16.639085,2.29659902 16.6953742,2.39791955 C16.7629213,2.4992401 16.7854369,2.61181848 16.7854369,2.75817038 C16.7854369,2.85949093 16.7629213,2.96081147 16.7178898,3.06213202 C16.6728585,3.16345257 16.5940537,3.26477311 16.503991,3.35483582 C16.4026704,3.44489852 16.2788341,3.52370338 16.1324822,3.57999258 C15.9861303,3.65879745 15.8060049,3.68131312 15.6033639,3.68131312 Z" id="Path"></path>
            </g>
            <g id="Group-3">
                <g id="Path-Clipped">
                    <mask id="mask-2" fill="white">
                        <use xlink:href="#path-1"></use>
                    </mask>
                    <g id="path-1"></g>
                    <polygon id="Path" fill="url(#linearGradient-3)" fill-rule="nonzero" mask="url(#mask-2)" points="-10.9563534 4.32706274 20.5881095 -15.3741542 39.8840444 15.5060962 8.3508393 35.218571"></polygon>
                </g>
                <g id="Fill-1-Clipped">
                    <mask id="mask-5" fill="white">
                        <use xlink:href="#path-4"></use>
                    </mask>
                    <use id="path-1" fill="#000000" xlink:href="#path-4"></use>
                    <path d="M17.7477569,0.172019769 L14.8154278,3.10401118 L11.8860257,0.172582662 C11.6550148,-0.0575275537 11.2815923,-0.0575275537 11.0517073,0.172582662 L11.0517073,0.172582662 C10.8211468,0.403030611 10.8211468,0.776340529 11.0517073,1.00633817 L11.0517073,1.00633817 L13.8743851,3.82924112 L0.518873768,3.82924112 C0.232024048,3.82924112 3.41214818e-16,4.06115259 3.41214818e-16,4.34766458 L3.41214818e-16,4.34766458 L3.41214818e-16,19.4811263 C3.41214818e-16,19.7678635 0.232024048,20 0.518873768,20 L0.518873768,20 L22.314499,20 C22.6014613,20 22.8339357,19.7678635 22.8339357,19.4811263 L22.8339357,19.4811263 C22.8339357,19.1943891 22.6014613,18.9627028 22.314499,18.9627028 L22.314499,18.9627028 L1.03707206,18.9627028 L1.03707206,4.86597544 L28.6161866,4.86597544 C28.9024735,4.86597544 29.1349478,4.63383882 29.1349478,4.34766458 L29.1349478,4.34766458 C29.1349478,4.06115259 28.9024735,3.82924112 28.6161866,3.82924112 L28.6161866,3.82924112 L15.7550069,3.82924112 L18.5793735,1.00476207 C18.8093711,0.774314119 18.8093711,0.402242563 18.5793735,0.172019769 L18.5793735,0.172019769 C18.4647687,0.0574149753 18.3136884,-1.62483247e-16 18.1636214,-1.62483247e-16 L18.1636214,-1.62483247e-16 C18.0131042,-1.62483247e-16 17.8622492,0.0574149753 17.7477569,0.172019769" id="Fill-1" fill="#000000" mask="url(#mask-5)"></path>
                </g>
            </g>
        </g>
    </g>
</svg>