<?xml version="1.0" encoding="UTF-8"?>
<svg width="48px" height="21px" viewBox="0 0 48 21" version="1.1" xmlns="http://www.w3.org/2000/svg" xmlns:xlink="http://www.w3.org/1999/xlink">
    <title>tubi</title>
    <g id="Page-1" stroke="none" stroke-width="1" fill="none" fill-rule="evenodd">
        <g id="tubi" transform="translate(0.443506, 0.607856)" fill="#000000" fill-rule="nonzero">
            <path d="M46.3991983,5.45447883 L43.2458953,5.45447883 L43.2458953,19.5448799 C43.2458953,19.795872 43.4474217,19.9994137 43.6963619,19.9994137 L46.3991983,19.9994137 C46.6479919,19.9994137 46.8497016,19.7960552 46.8497016,19.5448799 L46.8497016,5.90901263 C46.8497016,5.65802057 46.6481751,5.45447883 46.3991983,5.45447883 M34.2363429,16.36318 C32.2460308,16.36318 30.6325366,14.7351759 30.6325366,12.7269463 C30.6325366,10.7187167 32.2460308,9.09071256 34.2363429,9.09071256 C36.2266916,9.09071256 37.8401492,10.7187167 37.8401492,12.7269463 C37.8401492,14.7351759 36.2266916,16.36318 34.2363429,16.36318 M34.2363429,5.45447883 C33.1782923,5.45447883 32.1738477,5.68458542 31.2687374,6.09786125 L31.2686275,6.09775133 C31.210368,6.12340015 31.1469788,6.13805663 31.0828567,6.13805663 C30.8340631,6.13805663 30.6323534,5.9346981 30.6323534,5.68352283 L30.6323534,0.454533796 C30.6323534,0.203541736 30.430827,0 30.1818868,0 L27.0285471,0 L27.0285471,12.7267997 C27.0285471,16.7432589 30.2554256,19.9992672 34.2361597,19.9992672 C38.2169304,19.9992672 41.4438089,16.7432589 41.4438089,12.7267997 C41.4438089,8.71034051 38.2169304,5.45433227 34.2361597,5.45433227 M10.5794436,18.6196536 L10.5798833,18.6199834 L9.22350019,16.2479069 L9.22269408,16.2483832 C9.1080072,16.047956 8.8621449,15.9666126 8.65182455,16.0593147 C8.20967547,16.2546122 7.72124858,16.3630701 7.20761257,16.3630701 C5.2173005,16.3630701 3.60380629,14.735066 3.60380629,12.7268364 L3.60380629,9.54513643 C3.60380629,9.29414437 3.80533276,9.09060264 4.05427291,9.09060264 L8.55901245,9.09060264 C8.80780604,9.09060264 9.00951571,8.88724411 9.00951571,8.63606884 L9.00951571,5.90901263 C9.00951571,5.65802057 8.80798924,5.45436891 8.55901245,5.45436891 L4.05427291,5.45436891 C3.80547932,5.45436891 3.60380629,5.25101038 3.60380629,4.99983511 L3.60380629,0.454460514 C3.60380629,0.203468454 3.4019134,3.66411766e-05 3.15330302,3.66411766e-05 L0,3.66411766e-05 L0,12.7268364 C0,16.7432956 3.22698843,19.9993038 7.20761257,19.9993038 C8.34935163,19.9993038 9.42902054,19.7314568 10.3884331,19.2546818 C10.6115779,19.1436591 10.7035472,18.8712686 10.5932573,18.6460352 C10.5895932,18.638707 10.5859291,18.6277147 10.5786008,18.6203864 M24.7753346,5.45506509 L21.621995,5.45506509 L21.621995,12.7275325 C21.621995,14.7357622 20.0085008,16.3637663 18.0181887,16.3637663 C16.0278766,16.3637663 14.4143824,14.7357622 14.4143824,12.7275325 L14.4143824,5.90959889 C14.4143824,5.65860683 14.2128559,5.45506509 13.9639158,5.45506509 L10.8105761,5.45506509 L10.8105761,12.7275325 C10.8105761,16.7439918 14.0375645,20 18.0181887,20 C21.9988128,20 25.2258013,16.7439918 25.2258013,12.7275325 L25.2258013,5.90959889 C25.2258013,5.65860683 25.0242748,5.45506509 24.7753346,5.45506509 M45.0467725,0.000732823532 C44.0515248,0.000732823532 43.2448693,0.814679921 43.2448693,1.81883137 C43.2448693,2.82301945 44.0515248,3.63696655 45.0467725,3.63696655 C46.0419835,3.63696655 46.8486756,2.82301945 46.8486756,1.81883137 C46.8486756,0.814679921 46.0419835,0.000732823532 45.0467725,0.000732823532" id="Shape"></path>
        </g>
    </g>
</svg>