<?xml version="1.0" encoding="UTF-8"?>
<svg width="90px" height="21px" viewBox="0 0 90 21" version="1.1" xmlns="http://www.w3.org/2000/svg" xmlns:xlink="http://www.w3.org/1999/xlink">
    <title>xumo</title>
    <g id="Page-1" stroke="none" stroke-width="1" fill="none" fill-rule="evenodd">
        <g id="xumo" transform="translate(0.115811, 0.607856)" fill="#000000" fill-rule="nonzero">
            <g id="g1604">
                <path d="M89.6397092,9.97944516 C89.6854494,12.6361216 88.632155,15.1937802 86.7288247,17.0477908 C82.8157135,20.9277815 76.5063616,20.9277815 72.5932504,17.0477908 C70.6831503,15.1983655 69.6285902,12.6376334 69.6823659,9.97944516 C69.6366257,7.32276877 70.6899201,4.76511016 72.5932504,2.91109957 C76.5063616,-0.96889118 82.8157135,-0.96889118 86.7288247,2.91109957 C88.6158835,4.77607043 89.6661785,7.32644555 89.6397092,9.97944516 Z M79.661596,2.20228301 C77.5946787,2.17289097 75.6078398,3.0006024 74.1731303,4.4887623 C72.6849679,5.92346765 71.857252,7.91030327 71.8866384,9.97721961 C71.8572404,12.0441505 72.6849572,14.0310035 74.1731303,15.4657189 C75.6244565,16.9290134 77.6000742,17.7520973 79.6610396,17.7520973 C81.7220051,17.7520973 83.6976228,16.9290134 85.148949,15.4657189 C86.6231348,14.0247319 87.435808,12.0382744 87.3943312,9.97721961 C87.4357963,7.91617928 86.623124,5.92973921 85.148949,4.4887623 C83.7029106,3.01754231 81.7233448,2.19366349 79.6604833,2.20450856 L79.661596,2.20228301 Z" id="path425"></path>
                <path d="M41.2023644,18.8765207 C41.1987703,19.1732723 41.0791369,19.4568232 40.8690778,19.6664648 C40.6641542,19.8834366 40.3775503,20.0044044 40.0791379,20 L38.9569782,20 L38.9569782,7.77858654 C38.9518038,5.7375349 39.7598142,3.77847709 41.2023854,2.33455624 C42.670681,0.869107284 44.6597077,0.0449814248 46.7341779,0.0425340732 C48.8010953,0.0131420322 50.7879341,0.840853465 52.2226436,2.32901336 C52.63943,2.76126296 53.0283311,3.21955762 53.3869966,3.70112769 C53.7456681,3.21956122 54.1345703,2.76126685 54.5513537,2.32901336 C56.0026797,0.86572015 57.9782966,0.0426370776 60.039261,0.0426370776 C62.1002253,0.0426370776 64.0758422,0.86572015 65.5271682,2.32901336 C67.0013433,3.76999028 67.8140156,5.75643035 67.7725504,7.81747067 L67.7725504,19.9576339 L66.6504157,19.9576339 C66.0336994,19.950434 65.5355016,19.452253 65.528281,18.835537 L65.528281,7.77526921 C65.5534102,6.30397308 64.9663144,4.8883347 63.9072956,3.86665819 C62.8810702,2.81435183 61.468469,2.22852248 59.9987098,2.24570222 C58.5274012,2.2204378 57.1117224,2.80754349 56.0901239,3.86665819 C55.0309904,4.88825686 54.4438717,6.30394686 54.4691344,7.77526921 L54.4691344,18.8766047 C54.470635,19.3303866 54.1976222,19.7400365 53.7782204,19.9133062 C53.3588185,20.086576 52.8762819,19.9890705 52.5570639,19.6665488 C52.3401375,19.4616021 52.2192165,19.1749994 52.2237774,18.8766047 L52.2237774,7.77526921 C52.2490401,6.30394686 51.6619213,4.88825686 50.6027878,3.86665819 C49.5765624,2.81435183 48.1639612,2.22852248 46.694202,2.24570222 C45.2228934,2.2204378 43.8072146,2.80754349 42.7856162,3.86665819 C41.7248499,4.88749272 41.1360824,6.30328174 41.1601881,7.77526921 L41.1601881,18.8766047 L41.2023644,18.8765207 Z" id="path427"></path>
                <path d="M34.5084402,1.12347932 C34.5120342,0.826727693 34.6316676,0.543176823 34.8417267,0.333535184 C35.0466504,0.116563405 35.3332543,-0.00440443348 35.6316667,0 L36.7582689,0 L36.7582689,12.2225052 C36.7634334,14.2635417 35.9554254,16.2225823 34.5128661,17.6664935 C33.0445763,19.1319589 31.055547,19.9561003 28.9810694,19.9585577 C26.914152,19.9879497 24.9273132,19.1602383 23.4926036,17.6720784 C22.0292578,16.2203711 21.2054744,14.2448908 21.2038946,12.1836211 L21.2038946,0.00121443493 L22.3260293,0.00121443493 C22.6227974,0.00484306469 22.9063491,0.12452264 23.1159693,0.334626963 C23.3328957,0.539573638 23.4538167,0.826176373 23.4492558,1.1245711 L23.4492558,12.2226312 C23.4233828,13.6947075 24.0105486,15.1113057 25.0702412,16.1334258 C26.0969938,17.1863098 27.5105146,17.7722027 28.9810484,17.7544238 C30.4523377,17.7795427 31.8679659,17.1924428 32.8896342,16.1334258 C33.9485098,15.1109234 34.5348505,13.6943747 34.5083982,12.2226312 L34.5084402,1.12347932 Z" id="path429"></path>
                <polygon id="path431" points="0 0.00134040944 2.78533834 0.00134040944 9.97811735 8.56622115 17.2131146 0.0424500902 19.9573433 0.0424500902 11.5135534 9.97944516 19.9573433 19.9575919 17.1708922 19.9575919 9.97811735 11.3938029 2.78533834 19.9586837 0 19.9586837 8.44378985 9.97944516"></polygon>
            </g>
            <polygon id="path433" points="7.13855568e-07 15.8000937 4.94739752 9.93724013 7.13855568e-07 4.07547836"></polygon>
        </g>
    </g>
</svg>