<?xml version="1.0" encoding="UTF-8"?>
<svg width="48px" height="21px" viewBox="0 0 48 21" version="1.1" xmlns="http://www.w3.org/2000/svg" xmlns:xlink="http://www.w3.org/1999/xlink">
    <title>youtube</title>
    <g id="Page-1" stroke="none" stroke-width="1" fill="none" fill-rule="evenodd">
        <g id="youtube" transform="translate(0.183377, 0.607856)" fill="#000000" fill-rule="nonzero">
            <path d="M17.7043626,16.1795849 L15.9085133,16.1795849 L15.9085133,15.1291825 C15.2308344,15.9254553 14.6378653,16.3151207 14.0194833,16.3151207 C13.4603981,16.3151207 13.0876747,16.0609911 12.884371,15.5781449 C12.7827192,15.2816603 12.6980093,14.832698 12.6980093,14.16349 L12.6980093,6.52265989 L14.4938585,6.52265989 L14.4938585,14.3667937 C14.5362135,14.6209233 14.6463363,14.7225752 14.8750529,14.7225752 C15.2138924,14.7225752 15.5357899,14.4091487 15.9169843,13.8754765 L15.9169843,6.52265989 L17.7128335,6.52265989 L17.7128335,16.1795849 M11.3511224,9.67386701 C11.3511224,8.64040661 11.1562897,7.8695468 10.7920373,7.38670055 C10.317662,6.7090216 9.56374418,6.45489199 8.80135536,6.45489199 C7.9373147,6.45489199 7.27657772,6.7090216 6.81067344,7.38670055 C6.43795002,7.8695468 6.24311732,8.65734858 6.24311732,9.67386701 L6.24311732,13.1215587 C6.24311732,14.1380771 6.41253706,14.84964 6.78526048,15.3240152 C7.25963575,16.0016942 8.03896654,16.3405337 8.79288437,16.3405337 C9.55527319,16.3405337 10.334604,16.0016942 10.8259212,15.3240152 C11.1647607,14.84964 11.3341804,14.1380771 11.3341804,13.1215587 L11.3341804,9.65692503 L11.3511224,9.67386701 Z M9.57221516,13.3163914 C9.65692503,14.2736129 9.36044049,14.7564591 8.80982634,14.7564591 C8.25074121,14.7564591 7.96272766,14.2736129 8.04743753,13.3163914 L8.04743753,9.48750529 C7.96272766,8.53028378 8.25074121,8.08132147 8.80982634,8.08132147 C9.36044049,8.08132147 9.65692503,8.53028378 9.57221516,9.48750529 L9.57221516,13.3163914 Z M4.2609064,10.9275731 L4.2609064,16.1795849 L2.37187632,16.1795849 L2.37187632,10.9275731 C2.37187632,10.9275731 0.398136383,4.45573909 0,3.25285896 L1.99068191,3.25285896 L3.32062685,8.30156713 L4.6421008,3.26132994 L6.62431173,3.26132994 L4.25243541,10.9191021" id="Shape"></path>
            <path d="M36.2049979,8.04743753 C35.9254553,8.04743753 35.6120288,8.21685726 35.3155443,8.48792884 L35.3155443,14.2990258 C35.5950868,14.5870394 35.9085133,14.7225752 36.1965269,14.7225752 C36.7047861,14.7225752 36.9165608,14.3667937 36.9165608,13.4095722 L36.9165608,9.2926726 C36.9165608,8.33545108 36.6878441,8.05590851 36.1880559,8.05590851 M43.2698009,9.20796273 C43.2698009,8.31850911 43.0410843,8.05590851 42.4735282,8.05590851 C41.905972,8.05590851 41.6603134,8.31003812 41.6603134,9.19949174 L41.6603134,10.2583651 L43.2698009,10.2583651 L43.2698009,9.21643371" id="Shape"></path>
            <path d="M47.1579839,4.30326133 C47.1579839,4.30326133 46.8784413,2.35493435 46.0313427,1.4824227 C44.9555273,0.338839475 43.7441762,0.338839475 43.202033,0.279542567 C39.2460822,0 33.3079204,0 33.3079204,0 L33.2909784,0 C33.2909784,0 27.3612876,0 23.4053367,0.279542567 C22.8547226,0.347310462 21.6433715,0.347310462 20.5675561,1.4824227 C19.7204574,2.34646336 19.4493859,4.30326133 19.4493859,4.30326133 C19.4493859,4.30326133 19.1613723,6.60736976 19.1613723,8.91147819 L19.1613723,11.0715798 C19.1613723,13.3756883 19.4493859,15.6713257 19.4493859,15.6713257 C19.4493859,15.6713257 19.7204574,17.6365947 20.5675561,18.5006353 C21.6433715,19.6357476 23.0580263,19.6018636 23.6848793,19.7119864 C25.9466328,19.9322321 33.2994494,20 33.2994494,20 C33.2994494,20 39.2545532,20 43.210504,19.7119864 C43.7611182,19.6442186 44.9639983,19.6442186 46.0398136,18.5091063 C46.8869123,17.6450657 47.1664549,15.6797967 47.1664549,15.6797967 C47.1664549,15.6797967 47.4375265,13.3841593 47.4375265,11.0715798 L47.4375265,8.91147819 C47.4375265,6.60736976 47.1579839,4.30326133 47.1579839,4.30326133 Z M25.3706057,16.1795849 L23.4815756,16.1795849 L23.4815756,5.16730199 L21.4908937,5.16730199 L21.4908937,3.37145277 L27.4544684,3.37145277 L27.4544684,5.16730199 L25.3790767,5.16730199 L25.3790767,16.1795849 L25.3706057,16.1795849 Z M32.1897501,16.1795849 L30.3939009,16.1795849 L30.3939009,15.1291825 C29.7162219,15.9254553 29.1232529,16.3151207 28.5048708,16.3151207 C27.9457857,16.3151207 27.5730623,16.0609911 27.3697586,15.5781449 C27.2681067,15.2816603 27.1833969,14.832698 27.1833969,14.16349 L27.1833969,6.60736976 L28.9792461,6.60736976 L28.9792461,14.3752647 C29.021601,14.6293943 29.1317238,14.7310462 29.3604405,14.7310462 C29.69928,14.7310462 30.0211775,14.4176197 30.4023719,13.8839475 L30.4023719,6.60736976 L32.1897501,6.60736976 L32.1897501,16.1795849 Z M38.71241,13.3163914 C38.71241,14.197374 38.6531131,14.824227 38.5429903,15.2308344 C38.3058026,15.9423973 37.8060144,16.3066497 37.1283355,16.3066497 C36.5184244,16.3066497 35.8915714,15.9339263 35.3155443,15.2223634 L35.3155443,16.1880559 L33.6044049,16.1880559 L33.6044049,3.37145277 L35.2986023,3.37145277 L35.2986023,7.53917831 C35.8576874,6.86149936 36.4845404,6.46336298 37.1198645,6.46336298 C37.7975434,6.46336298 38.2549767,6.86149936 38.4752224,7.56459127 C38.6022872,7.96272766 38.71241,8.5811097 38.71241,9.48750529 L38.71241,13.3163914 L38.71241,13.3163914 Z M42.4904701,14.7310462 C42.9140195,14.7310462 43.1681491,14.4938585 43.252859,14.0279543 C43.2698009,13.9432444 43.2698009,13.519695 43.2698009,12.8250741 L45.0656501,12.8250741 L45.0656501,13.0961457 C45.0656501,13.6552308 45.0232952,14.0533672 45.0063532,14.222787 C44.9470563,14.6124524 44.8115205,14.9597628 44.6082169,15.2647183 C44.1338416,15.9593393 43.4222787,16.2981787 42.5328251,16.2981787 C41.6433715,16.2981787 40.9656925,15.9762812 40.4659043,15.3155443 C40.1016518,14.832698 39.8729352,14.1296061 39.8729352,13.1130877 L39.8729352,9.75857687 C39.8729352,8.74205845 40.0847099,7.94578568 40.4489623,7.45446845 C40.9402795,6.80220246 41.6349005,6.45489199 42.4989411,6.45489199 C43.3629818,6.45489199 44.0406607,6.79373147 44.531978,7.45446845 C44.8708175,7.94578568 45.0825921,8.69123253 45.0825921,9.71622194 L45.0825921,11.6899619 L41.6772554,11.6899619 L41.6772554,13.4011012 C41.6772554,14.2905548 41.931385,14.7310462 42.5074121,14.7310462 L42.4904701,14.7310462 Z" id="Shape"></path>
        </g>
    </g>
</svg>