<svg width="120" height="102" viewBox="0 0 120 102" xmlns="http://www.w3.org/2000/svg">
    <g fill="none" fill-rule="evenodd">
        <path d="M13.452 32.958H12.22a.995.995 0 0 0-.376.039.59.59 0 0 0-.367.451 1.006 1.006 0 0 0 0 .217v.223a.989.989 0 0 1-.015.232.602.602 0 0 1-.524.475H6.123a.721.721 0 0 1-.178-.018.581.581 0 0 1-.308-.186.596.596 0 0 1-.151-.328v-.368a.937.937 0 0 0-.037-.358.58.58 0 0 0-.582-.38h-2.89a2.009 2.009 0 0 0-.838.154c-.27.12-.51.296-.702.518a1.853 1.853 0 0 0-.395.777c-.018.072-.024.147-.037.22-.012.072 0 .123 0 .186v29.962c-.022.63.286 1.228.817 1.586.362.24.795.355 1.232.329H14.58a1.914 1.914 0 0 0 1.472-.831 1.897 1.897 0 0 0 .311-1.069V34.878a1.888 1.888 0 0 0-.138-.752 1.802 1.802 0 0 0-.364-.557 1.794 1.794 0 0 0-.434-.346 1.855 1.855 0 0 0-.715-.247c-.086 0-.15 0-.194-.018h-1.066zM117.08 32.957h-1.247a1.007 1.007 0 0 0-.376.04.605.605 0 0 0-.367.451 1.653 1.653 0 0 0 0 .217v.222c.008.077.008.155 0 .232a.602.602 0 0 1-.28.391.572.572 0 0 1-.243.085h-4.811a.759.759 0 0 1-.181-.018.626.626 0 0 1-.462-.515v-.367a.936.936 0 0 0-.037-.358.58.58 0 0 0-.582-.38h-2.877a1.933 1.933 0 0 0-1.54.663 1.853 1.853 0 0 0-.394.776c-.021.072-.024.147-.04.22-.015.072 0 .123 0 .186v29.96c-.008.203.017.407.074.602.124.405.386.757.742.996.362.24.796.356 1.232.328h12.525a1.923 1.923 0 0 0 1.081-.409 1.98 1.98 0 0 0 .391-.421c.107-.157.187-.33.238-.512.052-.181.077-.369.073-.557V34.893a1.85 1.85 0 0 0-.502-1.31 1.84 1.84 0 0 0-.434-.346 1.876 1.876 0 0 0-.717-.246c-.083 0-.148 0-.194-.018h-1.094l.022-.016z" fill="#FAFAFA" fill-rule="nonzero"/>
        <path d="M50.13 9.601c.085.544.098 1.098.039 1.645l1.26.858-.913 2.355-1.492-.211c-.32.447-.699.849-1.126 1.195l.305 1.494-2.295 1.026-.913-1.225c-.54.088-1.09.102-1.634.04l-.846 1.268-2.34-.919.219-1.51a6.216 6.216 0 0 1-1.184-1.136l-1.488.306-1.016-2.31 1.217-.918a6.212 6.212 0 0 1-.04-1.645l-1.26-.849.913-2.358 1.5.22c.321-.446.7-.847 1.127-1.191l-.305-1.498 2.289-1.017.913 1.225a6.226 6.226 0 0 1 1.634-.04l.846-1.268 2.34.92-.219 1.51c.443.322.842.703 1.184 1.133l1.488-.307 1.016 2.307-1.217.919-.003-.019zm-3.601-.018a2.692 2.692 0 0 0-2.53-1.61 2.694 2.694 0 0 0-2.446 1.738 2.723 2.723 0 0 0 .662 2.939 2.68 2.68 0 0 0 2.95.508 2.697 2.697 0 0 0 1.419-1.503 2.72 2.72 0 0 0-.055-2.072zM89.664 92.238c.1.631.116 1.273.048 1.908l1.457.983-1.045 2.722-1.736-.254c-.371.517-.81.98-1.304 1.379l.34 1.736-2.655 1.182-1.033-1.41c-.626.101-1.262.118-1.892.05l-.98 1.466-2.702-1.052.255-1.748a7.15 7.15 0 0 1-1.373-1.313l-1.72.342-1.199-2.685 1.406-1.056a7.116 7.116 0 0 1-.045-1.905l-1.46-.97 1.045-2.722 1.736.257a7.176 7.176 0 0 1 1.306-1.382l-.339-1.733 2.658-1.195 1.048 1.416a6.992 6.992 0 0 1 1.895-.046l.976-1.47 2.703 1.053-.252 1.748c.513.374.974.817 1.37 1.315l1.723-.341 1.178 2.67-1.409 1.055zm-4.165-.02a3.113 3.113 0 0 0-2.925-1.865 3.116 3.116 0 0 0-2.829 2.008 3.151 3.151 0 0 0 .76 3.4 3.098 3.098 0 0 0 3.41.593 3.145 3.145 0 0 0 1.584-4.137z" fill="#E0E0E0"/>
        <path d="M57.687 3.751c.05.314.059.634.024.95l.73.493-.521 1.364-.866-.128a3.7 3.7 0 0 1-.651.692l.168.867-1.326.594-.522-.707c-.313.05-.63.058-.946.024l-.492.73-1.352-.525.126-.89a3.511 3.511 0 0 1-.69-.642l-.86.172-.589-1.337.701-.528a3.694 3.694 0 0 1-.023-.954l-.728-.49.522-1.366.884.128c.185-.259.404-.49.65-.69l-.17-.866 1.326-.594.524.71c.313-.052.631-.06.946-.024l.49-.734 1.337.523-.12.89c.254.189.484.41.683.657l.86-.17.59 1.337-.705.529V3.75zm-2.08 0a1.55 1.55 0 0 0-2.053-.788 1.573 1.573 0 0 0-.788 2.067 1.551 1.551 0 0 0 2.048.8c.383-.168.683-.484.832-.878a1.58 1.58 0 0 0-.039-1.213v.012z" fill="#EBEBEB"/>
        <path d="M29.165 20.423h-1.839a1.4 1.4 0 0 0-.569.06.876.876 0 0 0-.435.395.996.996 0 0 0-.106.29 2.1 2.1 0 0 0 0 .33v.341a1.68 1.68 0 0 1-.023.357.947.947 0 0 1-.777.744h-7.05a.877.877 0 0 1-.723-.316.976.976 0 0 1-.225-.507 2.335 2.335 0 0 1 0-.29v-.289a1.473 1.473 0 0 0-.057-.55.89.89 0 0 0-.327-.438.843.843 0 0 0-.53-.147h-4.25a2.802 2.802 0 0 0-2.276 1.02 2.883 2.883 0 0 0-.57 1.19 3.45 3.45 0 0 0-.056.336v46.293a2.848 2.848 0 0 0 1.207 2.436c.529.364 1.161.54 1.798.501h18.496a2.773 2.773 0 0 0 1.594-.628 2.94 2.94 0 0 0 .57-.646c.156-.243.275-.509.352-.788.076-.283.112-.576.105-.87V64.99c0-9.053 0-17.202.015-24.044.014-6.843 0-12.385.017-16.223v-1.356c.009-.396-.061-.79-.205-1.159a2.887 2.887 0 0 0-1.173-1.384c-.322-.201-.682-.33-1.056-.38a2.275 2.275 0 0 0-.285-.026h-1.611l-.01.006z" fill="#FAFAFA" fill-rule="nonzero"/>
        <path d="M32.23 22h.097a2.805 2.805 0 0 1 1.99.925c.23.253.411.547.537.867.146.367.217.76.21 1.156V70.756c.005.292-.031.584-.108.866-.07.29-.184.567-.338.821a3.077 3.077 0 0 1-.588.662 2.816 2.816 0 0 1-1.629.641c-.59.017-1.176 0-1.77 0H13.978a2.949 2.949 0 0 1-1.814-.52 2.95 2.95 0 0 1-1.137-1.569 3.228 3.228 0 0 1-.116-.97V24.91c0-.116 0-.231.017-.347.017-.115.028-.23.057-.344.101-.446.305-.862.594-1.213a2.836 2.836 0 0 1 2.3-1.035h4.254a.91.91 0 0 1 .568.16c.16.112.28.273.344.459.054.187.073.383.057.578v.289c-.006.09-.006.18 0 .271a.926.926 0 0 0 .21.483.85.85 0 0 0 .433.271c.082.02.168.028.253.023H27a.844.844 0 0 0 .344-.12.916.916 0 0 0 .395-.579c.02-.115.028-.232.023-.35v-.34c-.004-.112 0-.224.014-.336.02-.107.056-.21.108-.306a.877.877 0 0 1 .449-.404c.183-.061.377-.082.568-.061h3.337-3.345a1.338 1.338 0 0 0-.552.06.886.886 0 0 0-.434.394.987.987 0 0 0-.103.289c-.013.109-.018.219-.014.329v.34c.006.12 0 .239-.02.356a.933.933 0 0 1-.41.598.827.827 0 0 1-.357.13H19.98a.882.882 0 0 1-.722-.315.981.981 0 0 1-.222-.502 2.326 2.326 0 0 1 0-.29v-.288a1.482 1.482 0 0 0-.057-.55.894.894 0 0 0-.327-.433.82.82 0 0 0-.526-.147h-4.226a2.79 2.79 0 0 0-2.254 1.055 2.869 2.869 0 0 0-.569 1.19c-.028.11-.036.223-.056.335-.02.113 0 .226 0 .341v45.785c-.011.32.027.64.113.948a2.859 2.859 0 0 0 1.086 1.526 2.87 2.87 0 0 0 1.794.5h18.412a2.743 2.743 0 0 0 1.583-.625 3 3 0 0 0 .568-.644c.156-.242.274-.507.35-.786a2.99 2.99 0 0 0 .105-.867V42.463c0-6.822 0-12.352.014-16.18V24.93a2.955 2.955 0 0 0-.207-1.156 2.838 2.838 0 0 0-2.501-1.782L32.23 22z" fill="#263238" fill-rule="nonzero"/>
        <path d="M31.948 25.905s-.35.01-.78.012c-.43.003-.778 0-.778 0s.347-.01.779-.012c.432-.003.78-.005.78 0z" fill="#263238" fill-rule="nonzero"/>
        <path d="M31.948 25.906s-.349.01-.78.011c-.432.002-.778 0-.778 0s.348-.01.778-.012c.43-.002.78-.005.78.001z" fill="#263238" fill-rule="nonzero"/>
        <path d="M31.948 25.905s-.35.01-.78.012c-.43.003-.778 0-.778 0s.349-.01.779-.012c.43-.003.78-.005.78 0zM13.247 27.444h.552V26.988a.157.157 0 0 1 .137-.122h.19c.078.01.135.075.135.152v.423l-.02-.018h.515l-.02.018v-.784a.16.16 0 0 0-.07-.12l-.225-.216-.214-.21-.103-.101c-.036-.033-.064-.069-.106-.077a.14.14 0 0 0-.116.02c-.03.026-.064.064-.095.092l-.184.184c-.113.117-.234.224-.32.326a.335.335 0 0 0-.025.188v.645a.28.28 0 0 1 0 .066.546.546 0 0 1 0-.061v-.747a.22.22 0 0 1 .028-.104c.096-.114.207-.216.323-.336l.18-.183c.034-.031.06-.064.098-.097a.183.183 0 0 1 .15-.028c.047.017.09.047.121.086l.106.1.214.209.222.216c.022.018.04.038.057.061a.164.164 0 0 1 .028.084v.807h-.593v-.44a.123.123 0 0 0-.103-.122h-.184a.128.128 0 0 0-.11.099V27.446h-.568v-.002zM27.273 46.31c0 .031-2.094.057-4.677.057-2.582 0-4.674-.026-4.674-.057 0-.031 2.092-.057 4.674-.057 2.583 0 4.677.028 4.677.057z" fill="#263238" fill-rule="nonzero"/>
        <path fill="#E8505B" fill-rule="nonzero" d="m15.36 42.661.055-9.982 13.242.074-.056 9.983z"/>
        <path fill="#E8505B" fill-rule="nonzero" d="m16.364 42.305 4.66-5.428 2.844 3.423 1.958-1.812 3.784 3.881zM23.377 35.314a.782.782 0 0 1-.785.778.782.782 0 0 1-.774-.79.777.777 0 0 1 1.334-.546c.146.15.226.35.225.558z"/>
        <path d="m16.364 42.305 4.66-5.428 2.844 3.423 1.958-1.812 3.784 3.881zM23.377 35.314a.782.782 0 0 1-.785.778.782.782 0 0 1-.774-.79.777.777 0 0 1 1.334-.546c.146.15.226.35.225.558z" opacity=".2" fill="#000" fill-rule="nonzero"/>
        <path d="M31.948 50.234c0 .032-4.189.056-9.35.056-5.16 0-9.351-.024-9.351-.056 0-.03 4.173-.058 9.352-.058 5.178 0 9.35.028 9.35.058zM31.948 51.802c0 .032-4.189.058-9.35.058-5.16 0-9.351-.026-9.351-.058s4.185-.057 9.352-.057c5.166 0 9.35.026 9.35.057zM31.948 54.941c0 .031-4.189.057-9.35.057-5.16 0-9.351-.026-9.351-.057 0-.03 4.185-.057 9.352-.057 5.166 0 9.35.025 9.35.057zM31.948 57.296c0 .03-4.189.056-9.35.056-5.16 0-9.351-.025-9.351-.056 0-.03 4.173-.058 9.352-.058 5.178 0 9.35.027 9.35.058zM31.948 60.433c0 .032-4.189.057-9.35.057-5.16 0-9.351-.025-9.351-.057s4.185-.057 9.352-.057c5.166 0 9.35.026 9.35.057zM27.273 62.002c0 .016-.525.03-1.369.04-.844.01-2.016.018-3.308.018-1.292 0-2.459-.006-3.306-.017-.846-.011-1.368-.025-1.368-.04 0-.016.524-.03 1.368-.04.845-.01 2.016-.018 3.306-.018s2.462.006 3.308.017c.847.011 1.369.03 1.369.04z" fill="#263238" fill-rule="nonzero"/>
        <path d="M47.325 17.279h-2.077a1.526 1.526 0 0 0-.61.067 1.02 1.02 0 0 0-.61.777 2.233 2.233 0 0 0-.018.37v.387c.005.133-.004.267-.026.399-.058.277-.225.52-.462.672a.994.994 0 0 1-.408.146h-7.96a1.008 1.008 0 0 1-.807-.352 1.078 1.078 0 0 1-.251-.583 2.285 2.285 0 0 1 0-.314v-.312a1.69 1.69 0 0 0-.06-.617.992.992 0 0 0-.374-.489.933.933 0 0 0-.596-.166H28.23a3.155 3.155 0 0 0-2.556 1.141c-.32.388-.546.846-.66 1.337-.032.122-.04.25-.063.375-.024.125 0 .215-.015.323v51.586c-.009.342.034.683.127 1.013.207.696.642 1.3 1.235 1.714a3.273 3.273 0 0 0 2.025.565h20.882a3.14 3.14 0 0 0 1.799-.701c.25-.21.469-.454.65-.725a3.212 3.212 0 0 0 .518-1.834v-4.833c0-10.145 0-19.28.018-26.954.017-7.674 0-13.88.017-18.171v-1.52a3.205 3.205 0 0 0-.836-2.253 3.082 3.082 0 0 0-.723-.597 2.987 2.987 0 0 0-1.191-.422 2.558 2.558 0 0 0-.324-.032h-.544l-1.264.003z" fill="#FAFAFA" fill-rule="nonzero"/>
        <path d="M49.01 17.324h.109c.108 0 .215.008.322.023a3.2 3.2 0 0 1 2.527 1.97c.167.414.248.859.239 1.306v51.343a3.29 3.29 0 0 1-1.192 2.628 3.221 3.221 0 0 1-1.839.72c-.667.02-1.33 0-2.014 0H28.405a3.365 3.365 0 0 1-2.072-.58 3.303 3.303 0 0 1-1.264-1.76 3.57 3.57 0 0 1-.132-1.087V20.576c0-.13 0-.26.017-.389.017-.127.032-.258.066-.383.114-.501.344-.968.671-1.362a3.312 3.312 0 0 1 1.18-.891c.447-.193.93-.285 1.416-.27h4.766a.995.995 0 0 1 .625.177c.18.127.317.307.391.517.06.205.081.42.063.633v.313a2.127 2.127 0 0 0 0 .29c.024.2.106.389.236.54a.962.962 0 0 0 .775.317h7.923a.93.93 0 0 0 .392-.136 1.03 1.03 0 0 0 .446-.648c.022-.13.03-.26.023-.392v-.383c-.006-.125 0-.25.014-.375.022-.12.063-.235.12-.342.114-.207.294-.367.51-.456.205-.065.42-.088.634-.067h3.767-3.73a1.564 1.564 0 0 0-.622.07.958.958 0 0 0-.492.441 1.025 1.025 0 0 0-.118.334 2.602 2.602 0 0 0 0 .369v.383c.007.133-.001.267-.023.398a1.051 1.051 0 0 1-.463.674.976.976 0 0 1-.403.145H35.2a1.167 1.167 0 0 1-.288-.032.986.986 0 0 1-.515-.32 1.076 1.076 0 0 1-.25-.566 2.32 2.32 0 0 1 0-.313v-.239a1.696 1.696 0 0 0-.063-.615 1.008 1.008 0 0 0-.41-.488.964.964 0 0 0-.592-.166h-4.775a3.154 3.154 0 0 0-2.547 1.142c-.317.387-.54.843-.653 1.333-.032.122-.04.25-.064.374-.023.125 0 .253-.017.383V71.904c-.012.359.032.717.13 1.06a3.193 3.193 0 0 0 1.229 1.711 3.24 3.24 0 0 0 2.014.56H49.2a3.13 3.13 0 0 0 1.79-.7c.25-.207.466-.45.645-.722a3.12 3.12 0 0 0 .397-.871c.086-.311.125-.633.118-.956v-4.832c0-10.117 0-19.23.015-26.884.014-7.654 0-13.845.02-18.128v-1.525a3.378 3.378 0 0 0-.23-1.295 3.224 3.224 0 0 0-.599-.955 3.125 3.125 0 0 0-.72-.581 3.145 3.145 0 0 0-1.508-.453l-.118-.009z" fill="#263238" fill-rule="nonzero"/>
        <path d="M51.429 21.197s-.699.012-1.557.013c-.858.002-1.56 0-1.56 0s.698-.011 1.556-.013c.859-.003 1.56-.005 1.56 0zM51.429 21.983s-.699.013-1.56.014c-.863.001-1.557 0-1.557-.006 0-.005.694-.011 1.556-.013.862-.003 1.56 0 1.56.005z" fill="#263238" fill-rule="nonzero"/>
        <path d="M51.429 21.981s-.695.013-1.557.014h-1.56s.698-.011 1.56-.014c.862-.002 1.557-.004 1.557 0zM29.61 22.738h.556V22.286a.157.157 0 0 1 .138-.122c.064-.004.128-.004.193 0a.153.153 0 0 1 .132.152v.417l-.018-.018h.511l-.018.02v-.78a.156.156 0 0 0-.072-.118l-.233-.227-.216-.209-.105-.1a.256.256 0 0 0-.107-.077.133.133 0 0 0-.116.023c-.03.025-.065.061-.096.09l-.183.182c-.117.116-.233.227-.324.325a.337.337 0 0 0-.025.186v.706V21.935c0-.037.01-.073.028-.105.095-.113.209-.213.325-.333l.182-.184c.032-.032.06-.061.1-.096a.176.176 0 0 1 .146-.027.268.268 0 0 1 .123.084l.105.102c.072.066.144.137.216.207l.233.227c.021.017.04.037.056.059a.14.14 0 0 1 .028.084v.801h-.551v-.438a.119.119 0 0 0-.103-.12h-.186a.127.127 0 0 0-.112.097V22.752h-.567l-.04-.014z" fill="#263238" fill-rule="nonzero"/>
        <path d="M42.078 26.282a1.962 1.962 0 0 1-1.201 1.814 1.938 1.938 0 0 1-2.125-.424 1.971 1.971 0 0 1-.421-2.14 1.948 1.948 0 0 1 1.802-1.209c1.074 0 1.945.877 1.945 1.959z" fill="#E8505B" fill-rule="nonzero"/>
        <path d="M40.52 29.03H38.96v-.288c0-.707.349-1.28.78-1.28.43 0 .778.573.778 1.28v.289z" fill="#FFF" fill-rule="nonzero"/>
        <path d="M40.52 26.677c0 .318-.191.604-.483.725a.775.775 0 0 1-.85-.172.789.789 0 0 1-.165-.857.78.78 0 0 1 1.497.304z" fill="#FFF" fill-rule="nonzero"/>
        <path d="M45.195 32.972c0 .03-2.617.057-5.843.057s-5.846-.026-5.846-.057c0-.03 2.617-.057 5.846-.057 3.23 0 5.843.025 5.843.057z" fill="#263238" fill-rule="nonzero"/>
        <path fill="#E8505B" fill-rule="nonzero" d="m27.526 45.517.042-7.441 9.872.055-.042 7.441z"/>
        <path fill="#E8505B" fill-rule="nonzero" d="m28.052 45.46 3.291-3.875 2.006 2.444 1.38-1.294 2.674 2.773zM33.506 40.803a.785.785 0 0 1-.484.723.775.775 0 0 1-.849-.174.789.789 0 0 1-.164-.857.78.78 0 0 1 1.497.308z"/>
        <path d="m28.052 45.46 3.291-3.875 2.006 2.444 1.38-1.294 2.674 2.773zM33.506 40.803a.785.785 0 0 1-.484.723.775.775 0 0 1-.849-.174.789.789 0 0 1-.164-.857.78.78 0 0 1 1.497.308z" opacity=".2" fill="#000" fill-rule="nonzero"/>
        <path fill="#E8505B" fill-rule="nonzero" d="m27.435 65.016.096-17.203 22.818.128-.096 17.203z"/>
        <path fill="#E8505B" fill-rule="nonzero" d="m28.052 64.228 8.226-9.305 5.022 5.87 3.45-3.11 6.679 6.655zM42.078 53.362a1.57 1.57 0 0 1-.97 1.445 1.55 1.55 0 0 1-1.697-.35 1.577 1.577 0 0 1-.328-1.713 1.558 1.558 0 0 1 1.447-.96c.413.003.808.17 1.098.466.29.296.453.696.45 1.112z"/>
        <path d="m28.052 64.228 8.226-9.305 5.022 5.87 3.45-3.11 6.679 6.655zM42.078 53.362a1.57 1.57 0 0 1-.97 1.445 1.55 1.55 0 0 1-1.697-.35 1.577 1.577 0 0 1-.328-1.713 1.558 1.558 0 0 1 1.447-.96c.413.003.808.17 1.098.466.29.296.453.696.45 1.112z" opacity=".2" fill="#000" fill-rule="nonzero"/>
        <path fill="#E8505B" fill-rule="nonzero" d="m40.56 45.517.041-7.441 9.872.055-.041 7.441z"/>
        <path fill="#E8505B" fill-rule="nonzero" d="m40.52 45.46 3.29-3.875 2.007 2.444 1.38-1.294 2.673 2.773z"/>
        <circle fill="#E8505B" fill-rule="nonzero" cx="45.195" cy="40.8" r="1"/>
        <path d="m40.52 45.46 3.29-3.875 2.007 2.444 1.38-1.294 2.673 2.773z" opacity=".2" fill="#000" fill-rule="nonzero"/>
        <circle cx=".779" cy=".785" r="1" opacity=".2" transform="translate(44.416 40.015)" fill="#000" fill-rule="nonzero"/>
        <path d="M110.206 20.422h-1.837a1.453 1.453 0 0 0-.555.061.913.913 0 0 0-.54.695c-.014.11-.02.22-.014.33v.345a1.49 1.49 0 0 1-.023.353.953.953 0 0 1-.414.605.88.88 0 0 1-.36.127H99.41a.887.887 0 0 1-.726-.316.959.959 0 0 1-.223-.506 2.347 2.347 0 0 1 0-.29v-.289a1.466 1.466 0 0 0-.054-.55.849.849 0 0 0-.857-.585h-4.254a2.795 2.795 0 0 0-2.265 1.02 2.911 2.911 0 0 0-.626 1.525c0 .096 0 .191-.014.29v46.007a2.85 2.85 0 0 0 1.206 2.432c.528.364 1.16.54 1.799.504h18.509a2.77 2.77 0 0 0 1.592-.625c.22-.187.413-.405.57-.649a2.83 2.83 0 0 0 .355-.788c.077-.277.112-.565.106-.854V40.932c0-6.838 0-12.38.017-16.213v-1.352a3.038 3.038 0 0 0-.209-1.158 2.859 2.859 0 0 0-1.17-1.384 2.696 2.696 0 0 0-1.058-.38c-.126-.023-.223-.017-.286-.025H110.208l-.002.002z" fill="#FAFAFA" fill-rule="nonzero"/>
        <path fill="#EBEBEB" fill-rule="nonzero" d="M92.727 38.446h16.364v3.138H92.727z"/>
        <path d="M111.71 20.432h.097a2.828 2.828 0 0 1 2.527 1.792c.145.367.216.76.21 1.155v45.818c.007.293-.03.585-.107.867-.077.287-.2.56-.361.807-.162.25-.36.473-.586.664a2.839 2.839 0 0 1-1.629.642c-.59.017-1.18 0-1.773 0H93.464a2.96 2.96 0 0 1-1.836-.514 2.934 2.934 0 0 1-1.118-1.573 3.196 3.196 0 0 1-.119-.968V22.995c0-.116.029-.231.057-.344.304-1.362 1.522-2.308 2.894-2.248h4.221a.902.902 0 0 1 .898.618c.057.187.076.383.057.578v.289c-.006.09-.006.181 0 .272a.888.888 0 0 0 .213.48.84.84 0 0 0 .685.298h7.019a.799.799 0 0 0 .344-.125.893.893 0 0 0 .395-.578c.022-.114.03-.23.023-.347v-.344a2.17 2.17 0 0 1 .017-.332.97.97 0 0 1 .105-.31c.1-.183.26-.326.452-.404.184-.058.377-.079.568-.06H111.688h-3.314a1.332 1.332 0 0 0-.552.06.858.858 0 0 0-.435.393.923.923 0 0 0-.102.289c-.01.11-.01.22 0 .33v.343c.005.12-.003.239-.023.356a.94.94 0 0 1-.406.598.844.844 0 0 1-.361.13h-7.036c-.09.001-.18-.007-.267-.026a.937.937 0 0 1-.677-.792 1.865 1.865 0 0 1 0-.289v-.289a1.538 1.538 0 0 0-.054-.549.853.853 0 0 0-.852-.578h-4.233a2.88 2.88 0 0 0-1.231.24 2.816 2.816 0 0 0-1.603 1.968c-.029.11-.037.223-.057.335-.02.113-.014.226-.014.341V69.082c-.011.319.027.638.113.945.183.62.567 1.157 1.09 1.526.526.362 1.155.54 1.79.503h18.414a2.751 2.751 0 0 0 1.587-.625c.218-.186.41-.403.568-.644.156-.243.275-.508.353-.786.074-.283.11-.575.105-.867v-4.24c0-9.027 0-17.16.014-23.985.014-6.826 0-12.357.014-16.183v-1.353a3.006 3.006 0 0 0-.204-1.156 2.865 2.865 0 0 0-.532-.85 2.642 2.642 0 0 0-.637-.53 2.67 2.67 0 0 0-1.049-.377 1.83 1.83 0 0 0-.284-.026l-.102-.002z" fill="#263238" fill-rule="nonzero"/>
        <path d="M112.208 24.337s-.35.01-.78.013c-.43.002-.779 0-.779-.006 0-.005.35-.01.78-.012.43-.003.779 0 .779.005z" fill="#263238" fill-rule="nonzero"/>
        <path d="M112.208 24.337c0 .005-.349.01-.778.012-.43.003-.779 0-.78-.005-.003-.006.348-.01.78-.012.431-.001.778 0 .778.005z" fill="#263238" fill-rule="nonzero"/>
        <path d="M112.208 24.337s-.347.01-.78.013c-.432.002-.779 0-.779-.006 0-.005.35-.01.78-.012.43-.003.779 0 .779.005zM92.727 25.877h.554V25.42a.154.154 0 0 1 .135-.122h.194a.154.154 0 0 1 .132.153v.42l-.018-.017h.518l-.021.02v-.785a.158.158 0 0 0-.072-.12l-.223-.217-.215-.21-.106-.101c-.036-.033-.062-.07-.106-.077a.136.136 0 0 0-.117.02c-.03.026-.064.064-.096.092l-.18.184c-.117.117-.236.225-.324.327a.357.357 0 0 0-.026.188v.712a.277.277 0 0 1 0-.061V25.078a.187.187 0 0 1 .028-.104c.093-.115.207-.217.324-.337.057-.061.119-.122.181-.184.03-.034.064-.066.098-.096a.178.178 0 0 1 .148-.029c.048.017.09.047.122.087l.106.1.215.209.225.217c.02.018.04.039.057.061a.162.162 0 0 1 .026.084v.806h-.557v-.441a.123.123 0 0 0-.103-.122h-.187a.124.124 0 0 0-.109.096V25.887h-.564l-.039-.01z" fill="#263238" fill-rule="nonzero"/>
        <path fill="#EBEBEB" fill-rule="nonzero" d="M92.727 44.723h16.364v3.138H92.727zM92.727 48.646h16.364v3.138H92.727z"/>
        <path d="M105.842 58.846h-8.307c-.934-.001-1.69-.704-1.69-1.57 0-.866.756-1.568 1.69-1.568h8.307c.933 0 1.69.702 1.69 1.568 0 .866-.756 1.569-1.69 1.57z" fill="#E8505B" fill-rule="nonzero"/>
        <path d="M106.753 36.11c0 .031-2.092.057-4.675.057-2.583 0-4.675-.026-4.675-.057 0-.031 2.092-.057 4.675-.057 2.583 0 4.675.026 4.675.057z" fill="#263238" fill-rule="nonzero"/>
        <path d="M96.405 15.71H94.33a1.526 1.526 0 0 0-.624.066.977.977 0 0 0-.495.443 1.094 1.094 0 0 0-.115.335 1.981 1.981 0 0 0-.015.372v.385c.004.133-.004.267-.026.398-.059.278-.225.52-.463.673a.993.993 0 0 1-.407.145h-7.958a1.008 1.008 0 0 1-.807-.352 1.101 1.101 0 0 1-.251-.582 2.858 2.858 0 0 1 0-.314v-.312a1.69 1.69 0 0 0-.06-.617.958.958 0 0 0-.969-.655h-4.824a3.154 3.154 0 0 0-2.556 1.141c-.32.388-.545.845-.66 1.336-.03.125-.04.25-.063.376-.023.125 0 .215 0 .323v51.585c-.009.343.035.685.13 1.013.205.697.64 1.302 1.232 1.715a3.271 3.271 0 0 0 2.024.565H98.3a3.14 3.14 0 0 0 2.45-1.427 3.213 3.213 0 0 0 .517-1.834v-4.826c0-10.146 0-19.28.015-26.955.014-7.673 0-13.88.017-18.17v-1.52a3.205 3.205 0 0 0-.836-2.253 3.174 3.174 0 0 0-2.238-1.049h-.543l-1.276-.006z" fill="#FAFAFA" fill-rule="nonzero"/>
        <path d="M98.1 15.758h.11c.108.003.215.011.322.026.423.052.83.193 1.194.415a3.099 3.099 0 0 1 1.333 1.54c.166.414.248.857.239 1.304v51.351c.007.332-.033.663-.121.982a3.244 3.244 0 0 1-.409.906c-.183.28-.406.53-.662.744a3.221 3.221 0 0 1-1.839.72c-.667.018-1.33 0-2 0H77.496a3.33 3.33 0 0 1-2.072-.58 3.286 3.286 0 0 1-1.264-1.758 3.577 3.577 0 0 1-.132-1.089V19.002c0-.13 0-.261.017-.392a3.3 3.3 0 0 1 .737-1.743 3.313 3.313 0 0 1 1.18-.891c.447-.193.93-.285 1.416-.27h4.766a1.01 1.01 0 0 1 1.016.694c.06.205.082.42.063.633v.314a2.128 2.128 0 0 0 0 .305c.026.198.108.385.236.537a.942.942 0 0 0 .487.29.962.962 0 0 0 .288.03H92.182a.93.93 0 0 0 .392-.137c.228-.148.389-.38.446-.648.022-.13.03-.26.026-.392v-.383c-.005-.125 0-.25.018-.375a1.03 1.03 0 0 1 .627-.799c.205-.064.42-.087.633-.066H98.092h-3.75a1.57 1.57 0 0 0-.622.07.958.958 0 0 0-.492.44.958.958 0 0 0-.115.335 2.216 2.216 0 0 0-.018.369v.383c.007.133 0 .266-.023.398-.057.277-.223.52-.46.67a.961.961 0 0 1-.406.146h-7.938a1.006 1.006 0 0 1-.803-.349 1.077 1.077 0 0 1-.25-.58 2.321 2.321 0 0 1 0-.314v-.314a1.696 1.696 0 0 0-.06-.615 1.018 1.018 0 0 0-.372-.488.943.943 0 0 0-.593-.166h-4.792a3.244 3.244 0 0 0-1.39.267 3.188 3.188 0 0 0-1.81 2.208c-.032.122-.04.25-.064.374-.023.125-.014.253-.017.384V70.252c-.012.36.032.718.13 1.063a3.193 3.193 0 0 0 1.229 1.71c.592.405 1.3.602 2.014.561h20.783a3.121 3.121 0 0 0 1.796-.612 3.41 3.41 0 0 0 .647-.72c.174-.27.307-.563.395-.872a3.46 3.46 0 0 0 .12-.958v-4.836c0-10.119 0-19.236.015-26.889.014-7.653.014-13.85.02-18.131V19.05a3.311 3.311 0 0 0-.23-1.292 3.225 3.225 0 0 0-.599-.956 3.125 3.125 0 0 0-.72-.58 3.044 3.044 0 0 0-1.185-.424 2.422 2.422 0 0 0-.322-.03l-.11-.011z" fill="#263238" fill-rule="nonzero"/>
        <path d="M98.961 21.197s-.696.011-1.55.014c-.856.002-1.567-.001-1.567-.001s.696-.012 1.555-.014 1.562-.005 1.562.001z" fill="#263238" fill-rule="nonzero"/>
        <path d="M98.961 21.197s-.698.012-1.56.014c-.863.002-1.557 0-1.557 0s.698-.012 1.557-.014c.858-.002 1.56-.008 1.56 0zM98.961 21.982c0 .005-.695.011-1.558.013-.864.003-1.559 0-1.559 0s.695-.011 1.559-.013c.863-.003 1.558-.008 1.558 0zM77.143 22.742H77.703l-.013.012V22.302a.157.157 0 0 1 .138-.122h.195a.156.156 0 0 1 .133.154v.418l-.019-.019h.515l-.019.02v-.796a.156.156 0 0 0-.072-.118l-.234-.227-.218-.209-.105-.1c-.035-.034-.066-.07-.108-.077a.142.142 0 0 0-.117.02l-.096.094-.184.179c-.117.118-.234.227-.326.327a.333.333 0 0 0-.025.186V22.672a.315.315 0 0 1 0 .066V21.937a.2.2 0 0 1 .03-.107c.094-.111.208-.213.325-.334l.183-.181c.032-.034.065-.066.1-.096a.18.18 0 0 1 .15-.03.3.3 0 0 1 .122.087l.105.1.22.209.234.213c.021.02.04.04.059.062a.155.155 0 0 1 .025.084v.8h-.554v-.435a.121.121 0 0 0-.103-.123h-.187a.123.123 0 0 0-.11.098 1.2 1.2 0 0 0 0 .159v.3h-.604z" fill="#263238" fill-rule="nonzero"/>
        <ellipse fill="#E8505B" fill-rule="nonzero" transform="rotate(-81.2 87.505 34.9)" cx="87.505" cy="34.9" rx="5.422" ry="5.406"/>
        <path d="M89.61 37.662h-3.896v-.62c0-1.391.872-2.519 1.948-2.519s1.948 1.128 1.948 2.519v.62z" fill="#FFF" fill-rule="nonzero"/>
        <ellipse fill="#FFF" fill-rule="nonzero" cx="86.494" cy="34.523" rx="1.558" ry="1.569"/>
        <path fill="#EBEBEB" fill-rule="nonzero" d="M78.701 46.292h18.701v3.923H78.701zM78.701 51.785h18.701v3.923H78.701z"/>
        <path d="M92.37 62.77h-9.415a1.89 1.89 0 0 1-1.356-.574 1.983 1.983 0 0 1-.56-1.388c0-1.084.858-1.962 1.916-1.962h9.415c.508 0 .995.207 1.355.575.359.368.56.866.56 1.387 0 .52-.201 1.019-.56 1.387-.36.368-.847.574-1.355.574z" fill="#E8505B" fill-rule="nonzero"/>
        <path d="M92.727 43.957c0 .03-2.616.056-5.842.056-3.227 0-5.846-.025-5.846-.056s2.616-.058 5.846-.058c3.229 0 5.842.026 5.842.058z" fill="#263238" fill-rule="nonzero"/>
        <path d="M80.843 49.506h-1.158c-.054 0-.106-.003-.144-.007-.039-.005-.06-.01-.06-.017-.002-.024.078-.047.222-.064.144-.017.339-.026.542-.026h.025c.204 0 .4.01.544.026.144.017.225.04.225.064 0 .013-.087.023-.196.024z" fill="#E0E0E0" fill-rule="nonzero"/>
        <path d="M79.555 49.449a.057.057 0 0 1-.057.057.057.057 0 0 1-.056-.057.057.057 0 0 1 .096-.04c.011.01.017.024.017.04zM79.481 54.884h1.558v1h-1.558z" fill="#E0E0E0" fill-rule="nonzero"/>
        <path d="M81.039 54.923h-.422v-.41c0-.294-.16-.531-.357-.531-.197 0-.357.237-.357.53v.411h-.422v-.41c0-.64.348-1.16.779-1.16.43 0 .779.52.779 1.16v.41z" fill="#E0E0E0" fill-rule="nonzero"/>
        <path d="M75.89 3.934h-3.084c-.314-.03-.63.004-.929.102a1.45 1.45 0 0 0-.733.663 1.564 1.564 0 0 0-.173.502 2.946 2.946 0 0 0-.017.549v.587c.01.196-.003.393-.038.587-.085.417-.333.78-.686 1.01a1.44 1.44 0 0 1-.606.22c-.219.017-.432 0-.654 0H57.78c-.15.005-.3-.01-.447-.045a1.462 1.462 0 0 1-.767-.484 1.583 1.583 0 0 1-.375-.85 3.224 3.224 0 0 1-.018-.47v-.446a2.544 2.544 0 0 0-.092-.925 1.506 1.506 0 0 0-.55-.733 1.424 1.424 0 0 0-.89-.25H47.53a4.684 4.684 0 0 0-3.799 1.714 4.893 4.893 0 0 0-.977 2.007c-.047.182-.061.376-.096.563-.034.188-.014.32-.02.482v77.351c-.013.515.05 1.029.19 1.523a4.812 4.812 0 0 0 1.832 2.571c.888.611 1.95.908 3.02.845h28.042c.995 0 1.996.018 2.98 0a4.63 4.63 0 0 0 2.67-1.053c.37-.314.695-.68.964-1.086.263-.409.462-.856.591-1.326a5.15 5.15 0 0 0 .179-1.441v-7.242c0-15.221.014-28.925.02-40.437.006-11.512.023-20.835.029-27.264v-2.28a5.065 5.065 0 0 0-.346-1.945 4.8 4.8 0 0 0-.894-1.435 4.5 4.5 0 0 0-1.073-.88 4.498 4.498 0 0 0-1.769-.629c-.16-.025-.32-.04-.481-.044h-.808l-1.895-.011z" stroke="#F1F1F1" stroke-width=".566" fill="#FAFAFA" fill-rule="nonzero"/>
        <path d="M78.269 4.035h.166a4.544 4.544 0 0 1 2.28.66 4.64 4.64 0 0 1 1.092.88 4.8 4.8 0 0 1 .912 1.439 5.05 5.05 0 0 1 .358 1.956v77.013a4.95 4.95 0 0 1-.795 2.823 5.17 5.17 0 0 1-.996 1.114 4.828 4.828 0 0 1-2.767 1.082c-1.002.03-2 0-3.009 0H47.297a5.046 5.046 0 0 1-3.12-.88 4.924 4.924 0 0 1-1.895-2.638 5.337 5.337 0 0 1-.201-1.63V8.893c0-.193.014-.39.026-.586.011-.196.046-.387.096-.586a4.997 4.997 0 0 1 1.008-2.053 4.844 4.844 0 0 1 3.905-1.741H54.278c.335-.019.667.074.944.264.27.191.473.463.582.776.091.308.124.63.096.95v.47c-.01.153-.01.307 0 .46.038.299.162.58.359.806.19.225.446.385.73.458.142.032.287.047.432.044H69.339c.207-.025.405-.095.582-.206.345-.219.587-.569.67-.97.035-.194.047-.39.038-.587v-.586c-.008-.187 0-.374.023-.56a1.62 1.62 0 0 1 .18-.516c.17-.31.44-.55.767-.68.306-.099.63-.134.95-.103H78.212h-5.665a2.367 2.367 0 0 0-.935.1c-.314.13-.575.363-.74.662a1.6 1.6 0 0 0-.171.502c-.025.183-.033.369-.023.554v.586a2.58 2.58 0 0 1-.038.587c-.087.416-.337.78-.693 1.008-.185.117-.393.191-.61.217-.22.02-.436 0-.657 0H57.47a1.667 1.667 0 0 1-.45-.047 1.493 1.493 0 0 1-.774-.48 1.618 1.618 0 0 1-.379-.848 3.683 3.683 0 0 1 0-.472v-.469a2.582 2.582 0 0 0-.093-.923 1.45 1.45 0 0 0-1.45-.98H47.16a4.737 4.737 0 0 0-3.824 1.71 4.803 4.803 0 0 0-.985 2c-.049.184-.064.374-.096.562-.032.188-.023.381-.026.586v77.072c-.015.538.05 1.075.195 1.592a4.795 4.795 0 0 0 1.847 2.566c.894.61 1.963.905 3.04.841h28.226c1.004 0 2.012.018 3.002 0a4.674 4.674 0 0 0 2.689-1.05c.374-.312.702-.677.972-1.084.261-.408.458-.854.583-1.322.13-.467.19-.95.18-1.434v-7.227c0-15.176.015-28.845.024-40.326.009-11.482.02-20.77.026-27.191V8.967a4.975 4.975 0 0 0-.35-1.941 4.769 4.769 0 0 0-1.98-2.31 4.524 4.524 0 0 0-1.782-.634 3.883 3.883 0 0 0-.484-.044l-.148-.003z" fill="#263238" fill-rule="nonzero"/>
        <path d="M79.48 12.566c0 .008-.696.017-1.557.02-.86.004-1.56 0-1.56-.009s.697-.017 1.558-.02c.86-.004 1.56 0 1.56.009z" fill="#263238" fill-rule="nonzero"/>
        <path d="M79.48 12.567c0 .008-.698.017-1.558.02-.86.001-1.558 0-1.558-.009 0-.008.698-.017 1.558-.02.86-.004 1.559 0 1.559.009zM79.48 14.135c0 .008-.696.017-1.557.02-.86.004-1.56 0-1.56-.008 0-.01.697-.018 1.558-.021.86-.003 1.56.001 1.56.01zM48.312 15.686h.31l.836-.018-.023.024V14.776a.318.318 0 0 1 .28-.244h.4a.313.313 0 0 1 .275.309v.845l-.039-.037h1.055l-.042.04v-1.567a.33.33 0 0 0-.148-.24l-.462-.436-.467-.453-.216-.204c-.075-.068-.133-.139-.217-.154a.301.301 0 0 0-.242.043c-.064.053-.132.127-.196.185l-.378.364c-.238.238-.487.454-.667.657a.684.684 0 0 0-.052.377V15.557a.59.59 0 0 1 0 .13V14.07a.36.36 0 0 1 .058-.213c.194-.229.426-.432.668-.673l.374-.37c.068-.062.122-.127.203-.191a.381.381 0 0 1 .307-.059c.099.034.186.094.251.173l.216.203c.149.136.297.278.449.42l.41.432a.904.904 0 0 1 .116.123c.035.05.055.11.058.17v1.604h-1.136v-.882a.25.25 0 0 0-.213-.244h-.384a.257.257 0 0 0-.225.198v.925h-1.094a.337.337 0 0 1-.065 0z" fill="#263238" fill-rule="nonzero"/>
        <rect fill="#F5F5F5" fill-rule="nonzero" x="45.974" y="19.615" width="33.506" height="5.492" rx="1.932"/>
        <path d="m76.892 25.107.193-.013a2.74 2.74 0 0 0 1.356-.47c.329-.225.59-.518.76-.854.104-.199.171-.41.202-.627.025-.241.033-.483.023-.725a4.27 4.27 0 0 0-.038-.79 2.12 2.12 0 0 0-.332-.774c-.372-.539-.984-.914-1.685-1.032a7.807 7.807 0 0 0-1.167-.039h-1.233l-26.372.016c-1.298.002-2.38.883-2.49 2.028-.023.258 0 .552 0 .826-.016.269.015.539.094.8.166.514.534.958 1.038 1.254.246.144.52.247.807.304.288.05.582.07.875.06H65.973l7.992.018H76.895 73.965l-7.992.015H48.92a4.311 4.311 0 0 1-.907-.06 2.761 2.761 0 0 1-.848-.32c-.53-.307-.917-.775-1.088-1.315a2.36 2.36 0 0 1-.099-.829v-.833c.113-1.208 1.255-2.136 2.624-2.132l26.372.016h1.233c.39-.014.78.001 1.166.044 1.066.186 1.89.937 2.068 1.886.036.265.047.531.035.798.006.243-.003.487-.03.73-.033.22-.104.435-.21.637a2.352 2.352 0 0 1-.784.865c-.246.164-.524.29-.82.369a2.87 2.87 0 0 1-.556.085c-.117.064-.184.062-.184.062z" fill="#263238" fill-rule="nonzero"/>
        <path d="M78.694 21.985s0-.131-.08-.357a1.483 1.483 0 0 0-.557-.793 1.464 1.464 0 0 0-1.935.185c-.5.543-.5 1.37 0 1.913.5.543 1.338.623 1.935.186.27-.196.467-.475.557-.793.068-.222.064-.357.08-.357s0 .031 0 .095a1.09 1.09 0 0 1-.024.278c-.074.343-.27.65-.552.864-.426.33-.994.422-1.504.242a1.587 1.587 0 0 1-1.03-1.48c0-.654.41-1.242 1.03-1.479a1.6 1.6 0 0 1 1.504.242c.281.216.477.522.552.865.02.091.028.184.024.278.008.074.008.11 0 .11z" fill="#263238" fill-rule="nonzero"/>
        <path d="M78.701 23.538a3.432 3.432 0 0 1-.853-.716 3.18 3.18 0 0 1-.705-.853c.325.195.614.439.853.72.285.245.524.532.705.85z" fill="#263238" fill-rule="nonzero"/>
        <path fill="#E0E0E0" fill-rule="nonzero" d="M51.313 22.112h-.664v-.143h1.559v.143h-.663v1.426h-.206zM53.766 22.814h-1.335c.01.15.081.292.199.392.118.1.272.15.429.141a.636.636 0 0 0 .488-.203l.12.136a.866.866 0 0 1-.915.206.812.812 0 0 1-.543-.738.724.724 0 0 1 .214-.552.785.785 0 0 1 .566-.227.774.774 0 0 1 .563.227.713.713 0 0 1 .207.552l.007.066zm-1.335-.154h1.131c0-.3-.253-.543-.565-.543a.555.555 0 0 0-.566.543zM55.071 23.538l-.526-.65-.53.65h-.249l.655-.81-.625-.759h.254l.495.609.496-.609h.246l-.62.758.658.797z"/>
        <path d="M55.325 23.447a1.18 1.18 0 0 1-.485.09.935.935 0 0 1-.492-.096c-.129-.071-.194-.172-.175-.272v-.765h-.407v-.145h.422v-.29h.308v.29h.693v.145h-.693v.753c-.015.061.021.123.099.168a.556.556 0 0 0 .297.06.822.822 0 0 0 .339-.063l.094.125z" fill="#E0E0E0" fill-rule="nonzero"/>
        <path d="M70.13 31.403c0 .014-2.617.024-5.843.024-3.225 0-5.845-.01-5.845-.024s2.617-.025 5.845-.025c3.229 0 5.843.011 5.843.025z" fill="#E8505B" fill-rule="nonzero"/>
        <path d="M77.922 34.541c0 .014-4.536.024-10.128.024-5.592 0-10.132-.01-10.132-.024 0-.013 4.537-.025 10.132-.025s10.128.012 10.128.025zM77.922 36.11c0 .014-4.186.024-9.35.024-5.165 0-9.351-.01-9.351-.024s4.186-.024 9.35-.024c5.165 0 9.351.01 9.351.024zM70.13 36.895c0 .013-2.617.024-5.844.024-3.227 0-5.844-.01-5.844-.024s2.617-.024 5.844-.024c3.227 0 5.844.01 5.844.024z" fill="#263238" fill-rule="nonzero"/>
        <path d="M70.13 43.957c0 .012-2.617.024-5.843.024-3.225 0-5.845-.012-5.845-.024 0-.013 2.617-.025 5.845-.025 3.229 0 5.843.007 5.843.025z" fill="#E8505B" fill-rule="nonzero"/>
        <path d="M77.922 46.31c0 .013-4.536.025-10.128.025-5.592 0-10.132-.012-10.132-.024 0-.013 4.537-.025 10.132-.025s10.128.011 10.128.025zM77.922 47.88c0 .014-4.186.024-9.35.024-5.165 0-9.351-.01-9.351-.024s4.186-.025 9.35-.025c5.165 0 9.351.011 9.351.025zM70.13 49.45c0 .012-2.617.023-5.844.023-3.227 0-5.844-.011-5.844-.024 0-.012 2.617-.025 5.844-.025 3.227 0 5.844.011 5.844.025z" fill="#263238" fill-rule="nonzero"/>
        <path d="M70.13 56.51c0 .013-2.617.025-5.843.025-3.225 0-5.845-.012-5.845-.025 0-.014 2.617-.024 5.845-.024 3.229 0 5.843.005 5.843.024z" fill="#E8505B" fill-rule="nonzero"/>
        <path d="M77.922 58.863c0 .014-4.536.026-10.128.026-5.592 0-10.132-.012-10.132-.026 0-.013 4.537-.024 10.132-.024s10.128.012 10.128.024zM77.922 60.434c0 .012-4.186.024-9.35.024-5.165 0-9.351-.012-9.351-.024 0-.013 4.186-.025 9.35-.025 5.165 0 9.351.009 9.351.025zM70.13 62.002c0 .014-2.617.025-5.844.025-3.227 0-5.844-.011-5.844-.025 0-.014 2.617-.024 5.844-.024 3.227 0 5.844.011 5.844.024z" fill="#263238" fill-rule="nonzero"/>
        <path d="M70.13 68.28c0 .013-2.617.023-5.843.023-3.225 0-5.845-.01-5.845-.024 0-.013 2.617-.024 5.845-.024 3.229 0 5.843.01 5.843.024z" fill="#E8505B" fill-rule="nonzero"/>
        <path d="M77.922 70.633c0 .014-4.536.024-10.128.024-5.592 0-10.132-.01-10.132-.024 0-.013 4.537-.024 10.132-.024s10.128.01 10.128.024zM77.922 72.202c0 .014-4.186.025-9.35.025-5.165 0-9.351-.011-9.351-.025 0-.014 4.186-.024 9.35-.024 5.165 0 9.351.011 9.351.024zM70.13 73.771c0 .014-2.617.025-5.844.025-3.227 0-5.844-.011-5.844-.025 0-.014 2.617-.024 5.844-.024 3.227 0 5.844.01 5.844.024z" fill="#263238" fill-rule="nonzero"/>
        <path d="M70.13 80.834c0 .012-2.617.024-5.843.024-3.225 0-5.845-.012-5.845-.024 0-.013 2.617-.025 5.845-.025 3.229 0 5.843.011 5.843.025z" fill="#E8505B" fill-rule="nonzero"/>
        <path d="M77.922 82.403c0 .013-4.536.024-10.128.024-5.592 0-10.132-.011-10.132-.024 0-.013 4.537-.025 10.132-.025s10.128.006 10.128.025zM77.922 83.187c0 .014-4.186.024-9.35.024-5.165 0-9.351-.01-9.351-.024s4.186-.024 9.35-.024c5.165 0 9.351.01 9.351.024zM70.13 86.326c0 .014-2.617.024-5.844.024-3.227 0-5.844-.01-5.844-.024s2.617-.025 5.844-.025c3.227 0 5.844.011 5.844.025z" fill="#263238" fill-rule="nonzero"/>
        <path fill="#E8505B" fill-rule="nonzero" d="m46.666 38.216.037-6.731 8.928.05-.038 6.73z"/>
        <path fill="#E8505B" fill-rule="nonzero" d="m46.753 38.4 3.017-3.877 1.84 2.443 1.266-1.294 2.449 2.774zM52.208 33.738c0 .318-.19.605-.483.726a.775.775 0 0 1-.85-.173.789.789 0 0 1-.164-.857.78.78 0 0 1 1.497.304z"/>
        <path d="m46.753 38.4 3.017-3.877 1.84 2.443 1.266-1.294 2.449 2.774zM52.208 33.738c0 .318-.19.605-.483.726a.775.775 0 0 1-.85-.173.789.789 0 0 1-.164-.857.78.78 0 0 1 1.497.304z" opacity=".2" fill="#000" fill-rule="nonzero"/>
        <path fill="#E8505B" fill-rule="nonzero" d="m46.666 50.325.037-6.73 8.927.05-.037 6.73z"/>
        <path fill="#E8505B" fill-rule="nonzero" d="m46.753 50.169 3.017-3.877 1.84 2.446 1.266-1.294 2.449 2.771zM52.208 44.726a.785.785 0 0 1-.485.723.775.775 0 0 1-.849-.175.789.789 0 0 1-.163-.856.78.78 0 0 1 1.497.308z"/>
        <path d="m46.753 50.169 3.017-3.877 1.84 2.446 1.266-1.294 2.449 2.771zM52.208 44.726a.785.785 0 0 1-.485.723.775.775 0 0 1-.849-.175.789.789 0 0 1-.163-.856.78.78 0 0 1 1.497.308z" opacity=".2" fill="#000" fill-rule="nonzero"/>
        <path fill="#E8505B" fill-rule="nonzero" d="m46.666 62.432.037-6.73 8.927.05-.037 6.73z"/>
        <path fill="#E8505B" fill-rule="nonzero" d="m46.753 61.938 3.017-3.876 1.84 2.446 1.266-1.297 2.449 2.774z"/>
        <path d="M52.208 58.065a.785.785 0 0 1-.485.723.775.775 0 0 1-.849-.175.789.789 0 0 1-.163-.857.78.78 0 0 1 .724-.479.785.785 0 0 1 .773.788z" fill="#E8505B" fill-rule="nonzero"/>
        <path d="m46.753 61.938 3.017-3.876 1.84 2.446 1.266-1.297 2.449 2.774z" opacity=".2" fill="#000" fill-rule="nonzero"/>
        <path d="M52.208 58.065a.785.785 0 0 1-.485.723.775.775 0 0 1-.849-.175.789.789 0 0 1-.163-.857.78.78 0 0 1 .724-.479.785.785 0 0 1 .773.788z" opacity=".2" fill="#000" fill-rule="nonzero"/>
        <path fill="#E8505B" fill-rule="nonzero" d="m46.665 74.542.038-6.73 8.927.05-.038 6.73z"/>
        <path fill="#E8505B" fill-rule="nonzero" d="M46.753 75.277 49.77 71.4l1.84 2.446 1.266-1.294 2.449 2.771zM52.208 70.615c0 .318-.19.605-.483.726a.775.775 0 0 1-.85-.173.789.789 0 0 1-.164-.857.78.78 0 0 1 1.497.304z"/>
        <path d="M46.753 75.277 49.77 71.4l1.84 2.446 1.266-1.294 2.449 2.771zM52.208 70.615c0 .318-.19.605-.483.726a.775.775 0 0 1-.85-.173.789.789 0 0 1-.164-.857.78.78 0 0 1 1.497.304z" opacity=".2" fill="#000" fill-rule="nonzero"/>
        <path fill="#E8505B" fill-rule="nonzero" d="m46.665 86.593.038-6.731 8.927.05-.038 6.731z"/>
        <path fill="#E8505B" fill-rule="nonzero" d="m46.753 86.261 3.017-3.876 1.84 2.446 1.266-1.297 2.449 2.774zM52.208 81.603a.785.785 0 0 1-.485.723.775.775 0 0 1-.849-.175.789.789 0 0 1-.163-.857.78.78 0 0 1 .724-.479.785.785 0 0 1 .773.788z"/>
        <path d="m46.753 86.261 3.017-3.876 1.84 2.446 1.266-1.297 2.449 2.774zM52.208 81.603a.785.785 0 0 1-.485.723.775.775 0 0 1-.849-.175.789.789 0 0 1-.163-.857.78.78 0 0 1 .724-.479.785.785 0 0 1 .773.788z" opacity=".2" fill="#000" fill-rule="nonzero"/>
        <ellipse fill="#E8505B" fill-rule="nonzero" transform="rotate(-76.78 113.812 19.948)" cx="113.812" cy="19.948" rx="3.192" ry="3.183"/>
        <path d="M114.334 21.185a.196.196 0 0 1-.1-.027l-1.187-.666c-.07-.04-.08-.11-.023-.158a.218.218 0 0 1 .23-.015l1.057.6 1.505-1.264a.226.226 0 0 1 .23-.016c.068.04.078.109.022.156l-1.617 1.35a.185.185 0 0 1-.11.04h-.007z" fill="#FFF" fill-rule="nonzero"/>
        <ellipse fill="#E8505B" fill-rule="nonzero" cx="100.13" cy="15.3" rx="4.286" ry="4.315"/>
        <path d="M100.653 17.262a.27.27 0 0 1-.178-.067l-1.412-1.254a.318.318 0 0 1-.039-.424.27.27 0 0 1 .398-.042l1.197 1.057 1.74-2.299a.27.27 0 0 1 .394-.042.318.318 0 0 1 .04.427l-1.92 2.522a.294.294 0 0 1-.192.11l-.028.012z" fill="#FFF" fill-rule="nonzero"/>
        <path d="M82.23 74.578c-4.354-1.258-7.027-5.716-6.139-10.24a9.733 9.733 0 0 0-.218.666c-1.205 4.66 1.471 9.447 6.02 10.765 4.55 1.317 9.296-1.32 10.675-5.93.064-.227.115-.457.16-.685-1.577 4.32-6.146 6.682-10.497 5.424z" fill="#263238" fill-rule="nonzero"/>
        <path d="M86.049 58.426c4.34 1.404 7.004 6.368 6.121 11.405.078-.244.153-.491.214-.745.865-3.391.068-7.05-2.088-9.59-2.156-2.539-5.34-3.57-8.347-2.7-3.006.868-5.374 3.503-6.206 6.905-.064.253-.114.507-.159.763 1.573-4.81 6.128-7.439 10.465-6.038z" fill="#455A64" fill-rule="nonzero"/>
        <path d="M92.399 68.469s0-.052.027-.151c.027-.1.05-.25.09-.434.02-.096.044-.204.071-.322.027-.117.03-.25.048-.391.048-.325.073-.653.075-.982a9.006 9.006 0 0 0-.32-2.671 9.324 9.324 0 0 0-4.823-5.926 9.013 9.013 0 0 0-1.09-.452c-.189-.06-.378-.135-.572-.187l-.6-.138c-.098-.021-.197-.048-.299-.063l-.3-.04c-.206-.024-.413-.057-.626-.072a9.645 9.645 0 0 0-1.285 0c-.438.031-.873.091-1.303.18-.215.052-.428.118-.647.176a5.035 5.035 0 0 0-.64.22c-.43.162-.848.353-1.253.572-.405.236-.793.5-1.162.788a8.955 8.955 0 0 0-1.965 2.108 9.26 9.26 0 0 0-1.597 5.638c.04.966.234 1.92.576 2.824.162.441.355.87.578 1.283.228.4.483.785.764 1.15.13.186.275.362.43.527.157.163.3.334.46.491a10.156 10.156 0 0 0 2.103 1.533c.185.096.38.177.568.268l.285.13c.095.041.194.069.3.105l.58.198c.192.058.393.097.584.145.383.09.771.154 1.163.19a9.277 9.277 0 0 0 7.204-2.49 8.87 8.87 0 0 0 1.668-2.109c.17-.28.32-.573.45-.876.06-.13.12-.247.164-.358l.108-.301c.066-.178.114-.32.15-.419.036-.1.057-.141.057-.141s0 .05-.042.147c-.042.096-.078.241-.135.425-.03.093-.063.195-.102.3-.039.106-.102.236-.159.365-.123.307-.269.604-.437.889a8.973 8.973 0 0 1-1.662 2.135 9.325 9.325 0 0 1-7.276 2.553 8.472 8.472 0 0 1-1.178-.19c-.197-.048-.398-.084-.599-.144l-.599-.199c-.096-.036-.197-.063-.3-.105l-.299-.133c-.192-.09-.39-.171-.578-.27-.381-.207-.75-.438-1.102-.69a9.866 9.866 0 0 1-1.034-.856c-.161-.16-.3-.33-.467-.496a4.972 4.972 0 0 1-.437-.533 10.402 10.402 0 0 1-.78-1.169c-.227-.42-.427-.856-.598-1.304a9.133 9.133 0 0 1-.6-2.872 9.335 9.335 0 0 1 1.621-5.722 9.086 9.086 0 0 1 2.001-2.132c.376-.293.771-.56 1.183-.798.411-.22.835-.414 1.27-.581.213-.088.431-.161.653-.22.222-.057.438-.126.66-.175a9.583 9.583 0 0 1 2.626-.183c.216.015.426.05.638.075l.3.04c.105.014.207.044.3.068l.599.139c.197.054.389.13.58.193.378.13.746.284 1.103.463a9.4 9.4 0 0 1 4.85 6.023c.237.876.338 1.785.3 2.692a6.508 6.508 0 0 1-.09.988c-.022.141-.034.274-.058.394s-.053.223-.074.32c-.048.184-.084.329-.108.433.024.078.009.127.009.127zM89.61 74.131c.122.08 9.085 8.04 12.385 11.018.559.506 1.432.498 1.982-.018.283-.263.442-.627.439-1.006a1.358 1.358 0 0 0-.458-.999L91.656 72.185 89.61 74.13z" fill="#263238" fill-rule="nonzero"/>
    </g>
</svg>
