<svg enable-background="new 0 0 18 14" viewBox="0 0 18 14" xmlns="http://www.w3.org/2000/svg" xmlns:xlink="http://www.w3.org/1999/xlink"><clipPath id="a"><path d="m0 .5h18v13.5h-18z"/></clipPath><path clip-path="url(#a)" d="m.4 1.6c-.3.3-.4.7-.4 1.1v9c0 .4.1.8.3 1.1l5.7-6.3zm10.8 5.6-1.8 1.6c-.1.1-.3.1-.4.1s-.3 0-.4-.1l-1.8-1.6-5.8 6.4c.4.3.8.4 1.3.4h13.5c.4 0 .8-.1 1.2-.3zm-2.2.4 7.8-6.8c-.3-.2-.7-.3-1.1-.3h-13.4c-.4 0-.8.1-1.1.3zm9 4.1c0 .4-.1.8-.3 1.1l-5.7-6.3 5.6-4.9c.3.3.4.7.4 1.1z" fill="#231f20"/></svg>