<svg enable-background="new 0 0 17 16" viewBox="0 0 17 16" xmlns="http://www.w3.org/2000/svg" xmlns:xlink="http://www.w3.org/1999/xlink"><clipPath id="a"><path d="m0 0h17v16h-17z"/></clipPath><path clip-path="url(#a)" d="m15.5 9.1c-.1.1-.3.2-.5.2s-.3-.1-.5-.2c-.1-.1-.2-.3-.2-.5s.1-.3.2-.5c.2 0 .4-.1.5-.1s.3.1.5.2c.1.1.2.3.2.5 0 .1-.1.3-.2.4m-2.4-1.1h-9.2v-6.7h6.5v1.7c0 .3.1.5.3.7s.5.3.7.3h1.6v4zm0 6.7h-9.2v-2.7h9.2zm3.3-7.4c-.4-.4-.8-.6-1.4-.6h-.7v-2.7c0-.3-.1-.6-.2-.9s-.3-.6-.5-.8l-1.6-1.6c-.2-.2-.5-.4-.8-.5-.2-.1-.5-.2-.7-.2h-6.9c-.3 0-.5.1-.7.3s-.3.4-.3.7v5.7h-.6c-.5 0-1 .2-1.4.6-.4.3-.6.8-.6 1.4v4.3c0 .1 0 .2.1.2s.1.1.2.1h2.3v1.7c0 .3.1.5.3.7s.4.3.7.3h9.8c.3 0 .5-.1.7-.3s.3-.4.3-.7v-1.7h2.3c.1 0 .2 0 .2-.1.1 0 .1-.1.1-.2v-4.3c0-.6-.2-1.1-.6-1.4" fill="#231f20"/></svg>