<?xml version="1.0" encoding="UTF-8"?>
<svg width="30px" height="18px" viewBox="0 0 30 18" version="1.1" xmlns="http://www.w3.org/2000/svg" xmlns:xlink="http://www.w3.org/1999/xlink">
    <!-- Generator: sketchtool 47.1 (45422) - http://www.bohemiancoding.com/sketch -->
    <title>F1B00815-0C55-4F23-88CD-69EBF9A98715</title>
    <desc>Created with sketchtool.</desc>
    <defs>
        <path d="M26.9567249,17.5078178 L28.5535343,17.5078178 C28.7980303,17.5078178 29.034055,17.4182452 29.2169905,17.2560328 C29.6302183,16.889616 29.6681661,16.2575892 29.3017493,15.8443615 L29.3017493,15.8443615 L17.0214123,1.99517029 L17.0214123,1.99517029 C16.9418142,1.90540332 16.856903,1.82049205 16.767136,1.740894 C15.5274527,0.641643637 13.6313724,0.755487007 12.532122,1.99517029 L12.532122,1.99517029 L0.251784953,15.8443615 C0.0895725456,16.0272971 -3.55271368e-15,16.2633218 -3.55271368e-15,16.5078178 C-3.55271368e-15,17.0601025 0.44771525,17.5078178 1,17.5078178 L2.59761552,17.5078178 C2.72448872,17.1234182 2.92887802,16.7655039 3.2018206,16.457692 L13.280337,5.09161133 C14.0131706,4.26515581 15.2772242,4.18926023 16.1036797,4.92209381 C16.1635243,4.97515917 16.2201319,5.03176668 16.2731972,5.09161133 L16.2731972,5.09161133 L26.3517137,16.457692 C26.6314822,16.7732019 26.8326731,17.1312296 26.9567249,17.5078178 Z" id="path-1"></path>
        <filter x="-3.4%" y="-6.1%" width="106.8%" height="112.1%" filterUnits="objectBoundingBox" id="filter-2">
            <feGaussianBlur stdDeviation="0.5" in="SourceAlpha" result="shadowBlurInner1"></feGaussianBlur>
            <feOffset dx="1" dy="1" in="shadowBlurInner1" result="shadowOffsetInner1"></feOffset>
            <feComposite in="shadowOffsetInner1" in2="SourceAlpha" operator="arithmetic" k2="-1" k3="1" result="shadowInnerInner1"></feComposite>
            <feColorMatrix values="0 0 0 0 0   0 0 0 0 0   0 0 0 0 0  0 0 0 0.065868433 0" type="matrix" in="shadowInnerInner1"></feColorMatrix>
        </filter>
    </defs>
    <g id="Symbols" stroke="none" stroke-width="1" fill="none" fill-rule="evenodd">
        <g id="arrow_white">
            <g id="Combined-Shape-Copy-11">
                <use fill="#FFFFFF" fill-rule="evenodd" xlink:href="#path-1"></use>
                <use fill="black" fill-opacity="1" filter="url(#filter-2)" xlink:href="#path-1"></use>
            </g>
        </g>
    </g>
</svg>