<?xml version="1.0" encoding="utf-8"?>
<!-- Generator: Adobe Illustrator 24.2.1, SVG Export Plug-In . SVG Version: 6.00 Build 0)  -->
<svg version="1.1" id="Layer_1" xmlns="http://www.w3.org/2000/svg" xmlns:xlink="http://www.w3.org/1999/xlink" x="0px" y="0px"
	 viewBox="0 0 187.97 56" style="enable-background:new 0 0 187.97 56;" xml:space="preserve">
<style type="text/css">
	.st0{fill:#5C666F;}
	.st1{fill:#EA6903;}
</style>
<g id="Layer_1_1_">
	<path class="st0" d="M50,30.8h-4L42.64,26v4.8h-3.32V17.63h4.76c1.26-0.07,2.49,0.35,3.45,1.16c0.8,0.79,1.23,1.88,1.19,3
		c0.05,1.02-0.34,2.02-1.07,2.73c-0.48,0.46-1.06,0.8-1.69,1L50,30.8z M42.6,23.48h0.55c0.63,0.08,1.26-0.1,1.76-0.48
		c0.3-0.31,0.46-0.72,0.45-1.15c0.02-0.47-0.19-0.92-0.56-1.2c-0.48-0.29-1.03-0.42-1.59-0.38h-0.57L42.6,23.48z M54.47,31.08
		c-1.28,0.07-2.52-0.42-3.4-1.35c-0.87-0.89-1.34-2.09-1.32-3.33c-0.03-1.33,0.48-2.61,1.4-3.57c0.85-0.81,1.99-1.25,3.16-1.22
		c0.97-0.04,1.92,0.32,2.62,1V21.9h3.12v8.9H57V30c-0.62,0.72-1.54,1.12-2.49,1.08H54.47z M55.02,24.29c-0.54,0-1.06,0.2-1.46,0.57
		c-0.79,0.8-0.81,2.08-0.06,2.91c0.42,0.41,0.99,0.64,1.58,0.64c1.15-0.04,2.06-1,2.02-2.15c-0.02-0.53-0.23-1.03-0.6-1.41
		c-0.4-0.35-0.91-0.54-1.44-0.56H55.02z M65.8,31.08c-1.16,0.05-2.3-0.38-3.12-1.21c-0.93-0.95-1.44-2.23-1.42-3.56
		c-0.03-1.32,0.48-2.59,1.43-3.51c0.86-0.78,1.99-1.21,3.15-1.19c0.97-0.04,1.91,0.32,2.6,1v-6.18h3.16V30.8h-3.12V30
		c-0.68,0.73-1.64,1.13-2.64,1.08L65.8,31.08z M66.53,24.29c-0.53-0.03-1.04,0.17-1.42,0.54c-0.83,0.79-0.86,2.1-0.07,2.93
		c0.02,0.03,0.05,0.05,0.07,0.07c0.37,0.36,0.86,0.57,1.38,0.57c0.56-0.01,1.1-0.22,1.52-0.6c0.39-0.38,0.6-0.9,0.6-1.44
		c0.02-0.56-0.19-1.1-0.59-1.49c-0.38-0.38-0.91-0.59-1.45-0.58H66.53z M76.8,30.8h-3.12v-8.9h3.12V30.8z M75.24,20.13
		c-0.98,0.01-1.77-0.78-1.78-1.76c-0.01-0.98,0.78-1.77,1.76-1.78c0.98-0.01,1.77,0.78,1.78,1.76c0,0.01,0,0.01,0,0.02
		C77,19.34,76.21,20.13,75.24,20.13L75.24,20.13z M83.52,31.13c-1.47,0.06-2.9-0.45-4-1.43c-1.83-1.81-1.84-4.75-0.03-6.58
		c0.01-0.01,0.02-0.02,0.03-0.03c2.32-1.93,5.68-1.93,8,0c1.83,1.81,1.84,4.75,0.03,6.58c-0.01,0.01-0.02,0.02-0.03,0.03
		c-1.11,0.95-2.54,1.45-4,1.38V31.13z M83.52,24.3c-0.56-0.02-1.11,0.19-1.52,0.58c-0.79,0.84-0.79,2.16,0,3
		c0.42,0.39,0.97,0.59,1.54,0.57c0.54,0.01,1.07-0.2,1.46-0.58c0.41-0.4,0.63-0.95,0.61-1.52c0.02-0.57-0.2-1.12-0.61-1.52
		c-0.4-0.38-0.93-0.59-1.48-0.58V24.3z M93.59,30.8h-3.32V17.63h7.58v2.79h-4.26v2.21h3.94v2.8h-3.94V30.8z M135.46,30.8H128V17.63
		h7.49v2.79h-4.29v2.21h4.05v2.8h-4.05V28h4.26V30.8z M141.57,31.08c-1.34,0.11-2.68-0.3-3.72-1.15c-0.72-0.71-1.08-1.7-1-2.7V21.9
		H140v4.89c-0.04,0.47,0.12,0.94,0.45,1.28c0.31,0.26,0.71,0.39,1.12,0.37c0.41,0.02,0.81-0.12,1.13-0.37
		c0.32-0.35,0.47-0.81,0.43-1.28V21.9h3.18v5.16c0.11,1.07-0.28,2.12-1.05,2.87C144.22,30.77,142.9,31.18,141.57,31.08L141.57,31.08
		z M160.64,31.08c-1.47,0.06-2.9-0.45-4-1.43c-1.83-1.81-1.84-4.75-0.03-6.58c0.01-0.01,0.02-0.02,0.03-0.03
		c2.32-1.93,5.68-1.93,8,0c1.83,1.81,1.84,4.75,0.03,6.58c-0.01,0.01-0.02,0.02-0.03,0.03C163.54,30.62,162.11,31.13,160.64,31.08
		L160.64,31.08z M160.64,24.25c-0.56-0.02-1.11,0.19-1.52,0.58c-0.41,0.4-0.63,0.95-0.61,1.52c-0.02,0.57,0.2,1.12,0.61,1.52
		c0.42,0.39,0.97,0.59,1.54,0.57c0.55,0.01,1.09-0.19,1.49-0.57c0.41-0.4,0.63-0.95,0.61-1.52c0.02-0.57-0.2-1.12-0.61-1.52
		C161.75,24.44,161.2,24.23,160.64,24.25L160.64,24.25z M170.3,35.25h-3.13V21.9h3.13v0.78c0.67-0.71,1.61-1.1,2.59-1.07
		c1.2-0.03,2.36,0.42,3.22,1.25c1.83,1.99,1.79,5.05-0.08,7c-0.8,0.81-1.9,1.25-3.03,1.22c-0.99,0.06-1.95-0.3-2.65-1L170.3,35.25z
		 M172.2,24.32c-0.55,0-1.08,0.21-1.47,0.59c-0.4,0.4-0.62,0.93-0.63,1.49c0.01,0.53,0.22,1.04,0.59,1.42
		c0.4,0.39,0.95,0.62,1.51,0.62c0.53,0,1.04-0.21,1.42-0.57c0.41-0.4,0.65-0.95,0.65-1.53c0-0.55-0.22-1.08-0.62-1.46
		c-0.39-0.37-0.91-0.59-1.45-0.59L172.2,24.32z M50,51.15h-4l-3.34-4.76v4.76h-3.34V38h4.76c1.26-0.07,2.49,0.35,3.45,1.16
		c0.8,0.79,1.23,1.88,1.19,3c0.05,1.02-0.34,2.02-1.07,2.73c-0.48,0.46-1.06,0.8-1.69,1L50,51.15z M42.6,43.84h0.55
		c0.62,0.05,1.24-0.13,1.72-0.52c0.3-0.31,0.46-0.72,0.45-1.15c0.02-0.45-0.17-0.89-0.52-1.17c-0.48-0.29-1.03-0.42-1.59-0.38h-0.57
		L42.6,43.84z M54.47,51.44c-1.28,0.07-2.52-0.42-3.4-1.35c-0.87-0.89-1.34-2.09-1.32-3.33c-0.03-1.33,0.48-2.61,1.4-3.57
		c0.87-0.81,2.02-1.23,3.2-1.19c0.98-0.05,1.94,0.31,2.65,1v-0.72h3.12v8.89H57v-0.76c-0.63,0.7-1.55,1.08-2.49,1.03H54.47z
		 M55.02,44.65c-0.54,0-1.06,0.2-1.46,0.57c-0.38,0.39-0.58,0.92-0.56,1.47c-0.02,0.53,0.18,1.05,0.55,1.44
		c0.42,0.41,0.99,0.64,1.58,0.63c0.51,0,1.01-0.2,1.38-0.55c0.42-0.39,0.66-0.94,0.64-1.52c0.01-0.56-0.2-1.09-0.6-1.48
		c-0.41-0.36-0.94-0.56-1.49-0.56L55.02,44.65z M65.8,51.44c-1.17,0.06-2.3-0.39-3.12-1.22c-0.93-0.94-1.44-2.22-1.42-3.55
		c-0.03-1.32,0.48-2.59,1.43-3.51c0.88-0.78,2.02-1.19,3.19-1.16c0.97-0.04,1.91,0.32,2.6,1v-6.21h3.12v14.36h-3.12v-0.77
		c-0.68,0.72-1.65,1.11-2.64,1.06H65.8z M66.53,44.65c-0.53-0.03-1.04,0.17-1.42,0.54c-0.43,0.39-0.67,0.95-0.65,1.53
		c0.03,1.09,0.91,1.97,2,2c0.56-0.01,1.1-0.22,1.52-0.59c0.39-0.38,0.61-0.91,0.6-1.45c0.02-0.55-0.2-1.09-0.59-1.48
		c-0.38-0.37-0.89-0.57-1.42-0.55L66.53,44.65z M76.72,51.15h-3.08v-8.89h3.12L76.72,51.15z M75.2,40.49
		c-0.98-0.02-1.76-0.82-1.74-1.8c0.02-0.98,0.82-1.76,1.8-1.74c0.97,0.02,1.75,0.81,1.74,1.78c0,0.97-0.79,1.76-1.76,1.76
		C75.23,40.49,75.21,40.49,75.2,40.49z M83.48,51.44c-1.47,0.06-2.9-0.46-4-1.43c-1.83-1.81-1.84-4.75-0.03-6.58
		c0.01-0.01,0.02-0.02,0.03-0.03c2.32-1.93,5.68-1.93,8,0c1.83,1.81,1.84,4.75,0.03,6.58c-0.01,0.01-0.02,0.02-0.03,0.03
		C86.38,50.98,84.95,51.49,83.48,51.44z M83.48,44.61c-0.56-0.02-1.11,0.19-1.52,0.58c-0.41,0.4-0.63,0.95-0.61,1.52
		c-0.01,0.58,0.22,1.13,0.65,1.52c0.42,0.39,0.97,0.59,1.54,0.57c0.55,0.01,1.07-0.2,1.46-0.58c0.41-0.39,0.64-0.94,0.62-1.51
		c0.02-0.58-0.2-1.13-0.62-1.53C84.59,44.79,84.04,44.59,83.48,44.61z M97.72,51.15h-7.48V38h3.36v10.36h4.12L97.72,51.15z
		 M102.06,51.15h-3.13v-8.89h3.13V51.15z M100.49,40.49c-0.98-0.02-1.76-0.82-1.74-1.8c0.02-0.98,0.82-1.76,1.8-1.74
		c0.97,0.02,1.75,0.81,1.74,1.78c0,0.97-0.79,1.76-1.76,1.76C100.52,40.49,100.5,40.49,100.49,40.49z M109.83,51.44
		c-1,0.05-1.98-0.34-2.67-1.07v0.78H104V36.79h3.15V43c0.7-0.68,1.65-1.04,2.63-1c2.48-0.07,4.55,1.87,4.62,4.35
		c0,0.12,0,0.23,0,0.35c0.03,1.32-0.48,2.59-1.4,3.53C112.16,51.07,111.01,51.51,109.83,51.44z M109.09,44.65
		c-0.56-0.03-1.11,0.19-1.51,0.59c-0.4,0.39-0.61,0.92-0.6,1.48c-0.02,0.55,0.21,1.07,0.61,1.44c0.42,0.38,0.97,0.59,1.54,0.6
		c0.52,0,1.02-0.2,1.39-0.56c0.42-0.38,0.66-0.92,0.66-1.48c0.02-0.58-0.22-1.14-0.65-1.53C110.14,44.83,109.62,44.63,109.09,44.65z
		 M138.09,51.15h-3.16v-6.37h-1v-2.52h1v-2.79h3.16v2.79h1.77v2.52h-1.77V51.15z M145.09,55.58h-3.59l3.24-5.67l-4.36-7.65H144
		l2.45,4.51l2.39-4.51h3.58L145.09,55.58z M111.15,31.05c-1.33,0.09-2.64-0.37-3.61-1.28c-0.9-0.91-1.39-2.15-1.36-3.43
		c-0.02-1.3,0.48-2.55,1.38-3.49c2.03-1.74,5.03-1.74,7.06,0c0.89,0.98,1.35,2.28,1.28,3.6v0.43h-6.56c0.03,0.45,0.2,0.88,0.49,1.23
		c0.36,0.35,0.86,0.54,1.36,0.5c0.37,0.01,0.74-0.07,1.07-0.24c0.24-0.16,0.43-0.38,0.55-0.65v-0.09h3l-0.11,0.47
		c-0.27,0.94-0.88,1.76-1.7,2.29C113.13,30.87,112.14,31.1,111.15,31.05z M109.48,25H113c-0.1-0.29-0.26-0.55-0.48-0.76
		c-0.76-0.61-1.85-0.58-2.58,0.07C109.73,24.5,109.58,24.74,109.48,25z M121.85,31.06c-1.33,0.09-2.64-0.37-3.61-1.28
		c-0.9-0.91-1.39-2.15-1.36-3.43c-0.02-1.3,0.48-2.55,1.38-3.49c2.03-1.74,5.03-1.74,7.06,0c0.89,0.98,1.35,2.28,1.28,3.6v0.43H120
		c0.04,0.45,0.21,0.88,0.49,1.23c0.36,0.35,0.86,0.54,1.36,0.5c0.37,0.01,0.74-0.07,1.07-0.24c0.24-0.16,0.43-0.38,0.55-0.65v-0.09
		h3l-0.11,0.47c-0.29,0.94-0.92,1.73-1.76,2.24c-0.84,0.47-1.79,0.72-2.75,0.7L121.85,31.06z M120.18,25h3.47
		c-0.1-0.29-0.26-0.55-0.48-0.76c-0.76-0.61-1.85-0.58-2.58,0.07C120.41,24.51,120.27,24.74,120.18,25z M183.18,31.06
		c-1.33,0.09-2.64-0.37-3.61-1.28c-0.9-0.91-1.39-2.15-1.36-3.43c-0.02-1.3,0.48-2.55,1.38-3.49c0.94-0.88,2.19-1.34,3.47-1.28
		c1.33-0.08,2.64,0.4,3.59,1.33c0.92,0.96,1.41,2.26,1.35,3.59v0.43h-6.56c0.03,0.45,0.2,0.88,0.49,1.23
		c0.36,0.35,0.85,0.53,1.35,0.5c0.37,0.01,0.74-0.07,1.07-0.24c0.24-0.16,0.44-0.38,0.56-0.65v-0.09h3l-0.12,0.47
		c-0.29,0.94-0.92,1.73-1.76,2.24c-0.86,0.47-1.84,0.7-2.82,0.66L183.18,31.06z M181.54,25H185c-0.1-0.29-0.26-0.55-0.48-0.76
		c-0.34-0.3-0.78-0.46-1.24-0.45c-0.5-0.02-0.98,0.17-1.34,0.52C181.76,24.51,181.62,24.74,181.54,25z M120.16,51.43
		c-1.33,0.1-2.64-0.37-3.61-1.28c-0.9-0.91-1.39-2.14-1.36-3.42c-0.02-1.3,0.48-2.56,1.38-3.5c2.04-1.73,5.05-1.7,7.06,0.06
		c0.9,0.97,1.36,2.27,1.29,3.59v0.43h-6.56c0.03,0.45,0.2,0.88,0.49,1.23c0.36,0.36,0.85,0.54,1.35,0.5
		c0.37,0.01,0.74-0.07,1.07-0.23c0.24-0.16,0.44-0.39,0.56-0.66v-0.09h3l-0.12,0.47c-0.28,0.93-0.89,1.73-1.71,2.24
		C122.13,51.25,121.15,51.48,120.16,51.43z M118.49,45.37H122c-0.1-0.29-0.26-0.55-0.48-0.76c-0.34-0.3-0.79-0.46-1.24-0.44
		c-0.5-0.02-0.98,0.17-1.34,0.52C118.74,44.88,118.59,45.11,118.49,45.37z M151.18,30.8h-3.12v-8.9h3.12v1
		c0.24-0.33,0.54-0.61,0.89-0.83c0.48-0.28,1.03-0.42,1.59-0.39c0.32,0.02,0.63,0.08,0.93,0.18v2.94c0,0-0.3-0.37-1.44-0.4
		c-0.5-0.02-0.98,0.18-1.32,0.54c-0.5,0.63-0.73,1.42-0.65,2.22L151.18,30.8z M102.1,30.8H99v-8.9h3.12v1
		c0.24-0.33,0.54-0.61,0.89-0.83c0.48-0.28,1.03-0.42,1.59-0.39c0.32,0.02,0.63,0.08,0.93,0.18v2.94c0,0-0.3-0.37-1.44-0.4
		c-0.5-0.02-0.98,0.18-1.32,0.54c-0.5,0.63-0.73,1.42-0.65,2.22L102.1,30.8z M129.33,51.06h-3.12v-8.9h3.12v1
		c0.24-0.33,0.54-0.61,0.89-0.82c0.48-0.29,1.03-0.42,1.59-0.39c0.32,0.02,0.63,0.08,0.93,0.17v2.94c0,0-0.29-0.37-1.44-0.39
		c-0.5-0.02-0.98,0.17-1.32,0.53c-0.5,0.63-0.73,1.42-0.65,2.22L129.33,51.06z"/>
	<path id="M" class="st1" d="M36.28,16.83c-4.8,0.56-6.14,5.54-9.75,9.83c-4.81,5.74-12,2.79-12,2.79c4.82-0.6,6.21-5.61,9.9-9.89
		C29.36,13.89,36.28,16.83,36.28,16.83z M18.91,25.25c0,0,6-4.76,3.41-11.79c-1.95-5.29-5.7-9-3.71-13.46c0,0-5.94,4.83-3.47,11.78
		C17,17.1,20.9,20.83,18.91,25.25z M18.57,24.25c0,0,0.57-7.73-6.07-10.66C7.33,11.29,1.89,11.5,0,7c0,0-0.74,7.68,6.3,10.65
		c5.24,2.23,10.4,2.12,12.27,6.59V24.25z M10.68,37.25h13.46l3.14-6.34h-16.6V37.25z M12.82,55.86H14l7.72-17.76h-8.9L12.82,55.86z"
		/>
</g>
</svg>
