<svg xmlns="http://www.w3.org/2000/svg" width="100" height="63.935" viewBox="0 0 100 63.935"><path fill="#FFF" d="M52.486 11.08h.777V0H0v1.096c5.995.239 9.91 1.04 9.91 6.633v48.477c0 5.596-3.915 6.393-9.91 6.634v1.096h36.316V62.84c-7.032-.398-12.068-1.038-12.068-6.634V33.255h10.275c3.996 0 5.595 2.957 6.553 8.311h.751v-17.96h-.751c-.958 5.354-2.557 8.391-6.553 8.391H24.249V1.139h16.332c7.273 0 9.588 1.918 11.905 9.941m17.985 22.221h8.112c14.944 0 21.417-7.846 21.417-17.597C100 7.073 93.929 0 76.665 0H54.737v56.206c0 5.596-3.916 6.393-9.909 6.634v1.096h36.233V62.84c-7.032-.398-12.068-1.038-12.068-6.634V1.3h4.635c8.188 0 12.787 7.371 12.787 16.162 0 10.149-4.774 14.562-12.945 14.562h-2.999v1.277z"/></svg>
