<?xml version="1.0" encoding="UTF-8"?>
<svg width="100px" height="30px" viewBox="0 0 100 30" version="1.1" xmlns="http://www.w3.org/2000/svg" xmlns:xlink="http://www.w3.org/1999/xlink">
    <title>logo/no-call-letters/tampa-bay</title>
    <g id="logo/no-call-letters/tampa-bay" stroke="none" stroke-width="1" fill="none" fill-rule="evenodd">
        <path d="M80.7690688,0 L80.7690688,20.8949385 L82.6319647,17.7465353 C82.6036518,20.0009978 83.8757841,22.0703331 85.9002033,23.0628701 C86.9926227,23.6163642 88.2261303,23.8289071 89.4407951,23.6729413 C91.2081185,23.4563122 92.7538956,22.3795703 93.5696698,20.7968913 C94.1302075,19.685722 94.2769568,18.4113202 93.9836466,17.2018289 C93.5667051,15.4961281 92.4187122,14.0611371 90.8461376,13.2799427 C89.0469751,12.3480098 86.8952369,12.4056089 85.1485084,13.4324605 L85.1485084,13.4324605 L89.5061598,5.89372352 L80.9106924,5.89372352 L84.1026721,0.152517799 L99.7139582,0.152517799 L94.778918,8.86782061 C98.1012657,10.9375232 100.084947,14.6067124 99.9972056,18.5200185 C100.035375,21.474958 98.882127,24.3208037 96.7976253,26.4155537 C94.7131237,28.5103036 91.8729681,29.6774949 88.9178769,29.6538178 C85.7975866,29.5858405 82.8411505,28.2434374 80.7363864,25.93892 L80.7363864,25.93892 L80.7363864,29.2725233 L74.5594155,29.2725233 L74.5594155,5.53421728 L71.291177,5.53421728 L74.5594155,0 L80.7690688,0 Z M17.6484882,0 L18.1931946,8.01807858 L8.31222005,8.01807858 L8.31222005,11.8419177 L16.3411928,11.8419177 L16.3411928,19.838208 L8.24685528,19.838208 L8.24685528,29.3160998 L0,29.3160998 L0,0 L17.6484882,0 Z M51.3440277,0 L54.9390901,6.31859454 L58.6104114,0 L67.4455496,0 L59.427471,14.0643199 L68.2517151,29.2616292 L59.0679648,29.2616292 L54.7756781,21.87541 L50.5378622,29.2834174 L41.6591474,29.2834174 L50.3744502,14.1623671 L42.1929597,0 L51.3440277,0 Z M31.9415848,0.72990661 C39.6549442,0.72990661 45.9078575,6.98281991 45.9078575,14.6961794 C45.9564768,22.4758099 39.7206235,28.8381313 31.9415848,28.9456994 C24.162546,28.8381313 17.9266928,22.4758099 17.975312,14.6961794 C17.975312,6.98281991 24.2282253,0.72990661 31.9415848,0.72990661 Z M31.9524789,6.30770041 C30.6071833,6.37204902 29.5534151,7.48836966 29.5666648,8.83513822 L29.5666648,20.513644 C29.5666648,21.8433261 30.6445851,22.9212464 31.9742672,22.9212464 C33.3039493,22.9212464 34.3818696,21.8433261 34.3818696,20.513644 L34.3927637,20.513644 L34.3927637,8.83513822 C34.3769369,7.4793864 33.3068413,6.37107308 31.9524789,6.30770041 Z" id="fts-tampa-bay-c-copy-2" fill="#FFFFFF"></path>
    </g>
</svg>