<svg xmlns="http://www.w3.org/2000/svg" viewBox="0 0 32 32">
  <path fill="#FD9E27" d="M0 0h32v32H0z"/>
  <path fill="#F2F2F2" d="M4.198 24.016a.635.635 0 100-1.27.635.635 0 000 1.27zm1.126-.635c-.094.207-.24.377-.436.509a1.217 1.217 0 01-.69.207 1.232 1.232 0 01-1.126-.716 1.19 1.19 0 01.433-.506c.209-.14.44-.21.693-.21.253 0 .483.07.69.21.197.13.342.299.436.506m-1.126 1.198a1.198 1.198 0 100-2.396 1.198 1.198 0 000 2.396zm2.588-.502a.693.693 0 01-.696-.696c0-.386.309-.696.696-.696.386 0 .603.31.603.31l.31-.31s-.31-.433-.913-.433c-.665 0-1.176.51-1.176 1.13 0 .618.51 1.129 1.176 1.129.618 0 .928-.434.928-.434l-.31-.309s-.216.31-.618.31m2.045-.016h-.48v-.526h.48c.185 0 .294.108.294.263 0 .155-.109.263-.294.263zM8.35 22.7h.418c.155 0 .247.093.247.216 0 .124-.092.217-.247.217h-.418v-.433zm.851.619s.294-.109.294-.449c0-.31-.263-.572-.696-.572h-.913v2.165h.975c.464 0 .742-.278.742-.619 0-.417-.402-.525-.402-.525zm1.03-.434c0-.123.093-.216.325-.216.248 0 .402.186.402.186l.31-.31s-.248-.294-.727-.294c-.495 0-.789.294-.789.634 0 .758 1.083.588 1.083.96 0 .139-.108.247-.356.247-.325 0-.51-.232-.51-.232l-.31.31s.279.34.836.34c.51 0 .82-.31.82-.666 0-.757-1.083-.587-1.083-.959m3.009.363l-.77-.962h-.432v2.245h.48v-1.475l.722.897.721-.897v1.475h.481v-2.245h-.433l-.77.962zm2.685.882c-.4 0-.721-.32-.721-.722 0-.4.32-.72.721-.72.4 0 .721.32.721.72 0 .401-.32.722-.721.722m0-1.892c-.69 0-1.218.53-1.218 1.17 0 .642.529 1.17 1.218 1.17.69 0 1.218-.528 1.218-1.17 0-.64-.529-1.17-1.218-1.17m2.443 1.106h-.497v-.609h.497c.176 0 .305.128.305.305a.295.295 0 01-.305.304m.802-.304c0-.45-.305-.754-.786-.754h-.994v2.244h.481v-.737h.449l.4.737h.53l-.465-.833s.385-.144.385-.657m1.8.641l-1.09-1.395h-.433v2.245h.48v-1.395l1.09 1.395h.434v-2.245h-.481v1.395zm.784.85h.48v-2.245h-.48v2.245zm2.307-.85l-1.09-1.395h-.433v2.245h.48v-1.395l1.09 1.395h.433v-2.245h-.48v1.395zm2.026 0h.417v.272s-.177.177-.497.177c-.401 0-.721-.32-.721-.722 0-.4.32-.72.72-.72.402 0 .626.32.626.32l.32-.32s-.32-.45-.945-.45c-.69 0-1.218.53-1.218 1.17 0 .642.529 1.17 1.218 1.17.641 0 .978-.432.978-.432v-.85h-.898v.385zm1.718-.785c0-.129.097-.225.337-.225.257 0 .417.192.417.192l.391-.32s-.327-.305-.824-.305c-.513 0-.817.305-.817.658 0 .785 1.122.609 1.122.993 0 .145-.113.257-.37.257-.336 0-.528-.24-.528-.24l-.32.32s.288.353.865.353c.529 0 .92-.321.92-.69 0-.785-1.193-.609-1.193-.993m-9.781-9.878c-.371-.34-1.06-.427-1.443-.056a.06.06 0 01-.051.018c-.168-.024-.154-.117-.034-.196.447-.308 1.229-.184 1.582.221.03.042-.036.033-.054.013m-.181.712c-.03.029-.076.032-.116.03-.128-.01-.23-.087-.34-.144a.717.717 0 00-.038-.019.186.186 0 11-.353-.048 1.16 1.16 0 00-.423.172c-.012.007-.037.016-.052-.002-.01-.013.002-.03.013-.04.116-.092.227-.196.364-.258a.708.708 0 01.53-.017c.143.053.247.164.38.235.038.016.07.054.035.091m-.88 1.644a.271.271 0 01-.09.087c-.036.02-.082.02-.11-.014-.005-.006-.009-.012-.015-.017a.063.063 0 00-.019-.01.881.881 0 00-.327-.043c-.137.005-.27.048-.406.048-.137 0-.27-.043-.407-.048a.881.881 0 00-.327.044.063.063 0 00-.019.009c-.006.005-.01.011-.015.017-.028.034-.075.035-.11.014a.271.271 0 01-.09-.087c-.004-.006-.007-.014-.004-.021a.023.023 0 01.007-.007c.023-.019.05-.03.078-.018.023.009.048.023.072.027a.144.144 0 00.072-.016 1.932 1.932 0 01.742-.151 1.932 1.932 0 01.743.15c.022.01.047.02.072.017.024-.004.049-.018.072-.027.029-.011.055 0 .078.018a.023.023 0 01.006.007c.004.007 0 .015-.003.021m-.536.315s-.257.12-.432.12c-.174 0-.43-.12-.43-.12-.02-.01-.06-.029-.063-.055 0-.004.001-.008.004-.011.004-.005.012-.006.02-.005h.007c.043.004.086.018.128.027.043.01.087.019.13.022.053.003.106.002.159.003l.045.002.046-.002c.053 0 .106 0 .158-.003a.823.823 0 00.131-.022c.042-.01.085-.023.128-.027h.007c.008 0 .015 0 .02.005a.015.015 0 01.004.011c-.003.026-.042.044-.062.055m-1.602-1.879a.186.186 0 01-.183-.213.718.718 0 00-.039.019c-.11.057-.211.134-.34.144-.04.002-.085-.001-.115-.03-.035-.037-.003-.075.036-.091.132-.071.236-.182.38-.235a.708.708 0 01.529.017c.137.062.248.166.364.259.011.008.023.026.013.039-.015.018-.04.01-.052.002a1.16 1.16 0 00-.423-.172.185.185 0 01-.17.261m-.912-.805c.353-.405 1.135-.53 1.582-.22.12.078.134.171-.034.195a.06.06 0 01-.05-.018c-.384-.37-1.073-.284-1.444.056-.018.02-.083.03-.054-.013m2.082 1.517c.156 0 .35.015.35.015.066.008.083.03.083.078a.253.253 0 01-.05.148c-.015.021-.037.033-.065.027-.03-.005-.031-.028-.033-.05-.003-.05-.034-.084-.085-.084-.057 0-.05.05-.053.087-.005.036-.01.084-.047.09 0 0-.035.009-.1.009-.064 0-.1-.008-.1-.008-.037-.007-.041-.055-.046-.09-.004-.037.004-.088-.053-.088-.051 0-.082.034-.085.084-.002.022-.003.045-.033.05-.029.006-.05-.006-.065-.027a.253.253 0 01-.05-.148c0-.049.017-.07.083-.078 0 0 .194-.015.35-.015m6.396.12l-3.324-.309.008-.067 2.662.134a.116.116 0 00.116-.154l-.137-.4a.116.116 0 00-.116-.08l-2.502.127v-.029-.042l1.605-.15a.116.116 0 00.103-.136l-.055-.297a.116.116 0 00-.137-.093l-1.541.301-.01-.068 2.416-.58a.116.116 0 00.089-.107l.019-.423a.116.116 0 00-.155-.115l-2.447.854-.019-.068 3.063-1.217c.06-.023.09-.09.066-.15a6.527 6.527 0 00-.196-.448.116.116 0 00-.158-.052l-2.91 1.51a2.923 2.923 0 00-.032-.065l2.218-1.273a.116.116 0 00.014-.192l-.331-.263a.116.116 0 00-.14-.003l-1.952 1.398a3.118 3.118 0 00-.043-.062l1.189-.93a.116.116 0 00.013-.172l-.207-.22a.116.116 0 00-.165-.004l-1.07 1.025a3.322 3.322 0 00-.049-.053l1.659-1.73a.116.116 0 00.016-.14l-.212-.365a.116.116 0 00-.193-.013L18 11.503l-.056-.047 1.898-2.65a.116.116 0 00-.026-.162 6.536 6.536 0 00-.411-.272.116.116 0 00-.161.042l-1.616 2.816a2.825 2.825 0 00-.064-.04l1.146-2.209a.116.116 0 00-.092-.17l-.421-.04a.116.116 0 00-.12.072l-.862 2.171a2.677 2.677 0 00-.073-.029l.477-1.365a.116.116 0 00-.082-.15l-.293-.074a.116.116 0 00-.141.086l-.332 1.386-.074-.016.45-2.3a.116.116 0 00-.061-.126l-.377-.193a.116.116 0 00-.169.093l-.229 2.466-.075-.005.163-3.238a.116.116 0 00-.11-.123 6.428 6.428 0 00-.493-.003.117.117 0 00-.113.123l.163 3.236-.077.005-.228-2.461a.116.116 0 00-.169-.093l-.377.193a.116.116 0 00-.06.126l.446 2.283-.077.017-.335-1.399a.116.116 0 00-.15-.083l-.287.097a.116.116 0 00-.072.149l.469 1.343c-.024.008-.047.018-.07.027l-.865-2.177a.116.116 0 00-.12-.073l-.42.042a.116.116 0 00-.092.17l1.144 2.204a2.988 2.988 0 00-.066.037l-1.613-2.812a.116.116 0 00-.16-.043c-.142.084-.28.174-.414.268a.116.116 0 00-.027.163l1.893 2.643c-.02.015-.04.03-.06.047L12.52 9.488a.116.116 0 00-.192.013l-.213.366a.116.116 0 00.017.139l1.64 1.71a3.53 3.53 0 00-.053.056l-1.07-1.027a.116.116 0 00-.173.012l-.188.236a.116.116 0 00.02.164l1.164.91-.042.06-1.95-1.396a.116.116 0 00-.14.003l-.332.262a.116.116 0 00.014.193l2.208 1.266-.033.065-2.904-1.507a.116.116 0 00-.158.05c-.072.147-.139.296-.2.448a.116.116 0 00.065.151l3.053 1.213-.023.068-2.423-.845a.116.116 0 00-.154.115l.019.422a.116.116 0 00.089.108l2.383.572-.012.072-1.537-.3a.116.116 0 00-.138.102l-.03.3a.116.116 0 00.105.128l1.568.145-.001.07-2.495-.126a.116.116 0 00-.116.078l-.137.4a.116.116 0 00.116.154l2.648-.133.008.067-3.317.308a.116.116 0 00-.105.128c.018.162.042.322.072.48a.116.116 0 00.137.092l3.28-.641.017.066-2.598.622a.116.116 0 00-.067.18l.244.346c.03.043.084.06.133.043l2.407-.84.028.063-1.547.614a.116.116 0 00-.061.161l.137.27c.029.057.1.08.157.05l1.483-.77.035.055-2.25 1.29a.116.116 0 00-.055.13l.1.41c.02.08.115.115.182.067l2.236-1.601.04.049-2.666 2.086a.116.116 0 00-.02.164c.102.125.207.245.317.361a.116.116 0 00.165.004l2.453-2.351.046.044-1.917 2a.116.116 0 00.04.188l.393.158c.048.02.103.005.135-.036l1.627-2.08.052.038-1.02 1.426a.116.116 0 00.036.168l.26.152a.116.116 0 00.16-.042l.868-1.513.055.028-1.228 2.365a.116.116 0 00.024.138l.307.291c.06.057.158.035.188-.041l1.036-2.61.058.021-1.125 3.222c-.02.06.011.128.073.148.15.05.303.096.458.135a.116.116 0 00.141-.086l.797-3.324.06.013-.54 2.762a.116.116 0 00.137.137l.415-.079a.116.116 0 00.095-.104l.247-2.67c.021 0 .042.002.064.004l-.09 1.792a.116.116 0 00.12.122l.302-.013a.116.116 0 00.111-.122l-.089-1.777c.02 0 .04-.002.06-.004l.25 2.686a.116.116 0 00.093.104l.416.079a.116.116 0 00.136-.137l-.542-2.773.06-.01.798 3.328a.116.116 0 00.14.086c.155-.038.308-.082.46-.13a.116.116 0 00.072-.15l-1.125-3.224c.02-.006.04-.012.059-.02l1.037 2.611c.03.077.128.099.188.042l.307-.291a.116.116 0 00.023-.138l-1.225-2.362.057-.029.881 1.535c.034.06.112.077.168.038l.247-.174a.116.116 0 00.028-.163l-1.017-1.42.05-.036 1.64 2.099c.033.04.088.055.136.036l.392-.158a.116.116 0 00.041-.189l-1.93-2.013.046-.042 2.458 2.357c.047.044.12.043.165-.003.11-.115.217-.235.319-.358a.116.116 0 00-.019-.166l-2.672-2.09.042-.048 2.245 1.608a.116.116 0 00.181-.067l.101-.41a.116.116 0 00-.055-.13l-2.254-1.293.037-.056 1.513.785c.06.032.136.004.161-.06l.114-.279a.116.116 0 00-.065-.152l-1.548-.615.026-.06 2.437.851c.049.017.103 0 .133-.042l.245-.346a.116.116 0 00-.068-.18l-2.62-.628.017-.064 3.29.643a.116.116 0 00.137-.09c.031-.158.057-.317.077-.479a.116.116 0 00-.105-.13"/>
</svg>