<svg xmlns="http://www.w3.org/2000/svg" viewBox="0 0 464.98666 65.986664" height="65.987" width="464.987"><path d="M27.22 37.692v-17.76h2.587v17.76zm11.022-21.09h-20.01c.22-.785.532-1.816.777-2.618h18.456c.34 1.113.599 1.99.777 2.618zM18.567 41.031h19.34c-.253.81-.594 1.833-.86 2.616H19.425c-.246-.734-.604-1.8-.858-2.616zm38.314-13.807l-.04-.706a28.155 28.155 0 0 0-2.237-9.513l-.174-.403h-6.545a23.558 23.558 0 0 0-.613-2.618h5.829l-.653-1.025C49.185 7.834 44.52 3.956 38.96 1.744L36.552.785 38.2 2.787c2.285 2.775 4.099 6.346 5.389 10.606.304 1.03.588 2.124.845 3.26l.154.75a51.33 51.33 0 0 1 .897 6.485h-2.631a48.678 48.678 0 0 0-.8-5.624l-.163-.8a39.418 39.418 0 0 0-1.398-4.88l-.163-.444h-.004C38.019 5.924 34.521 1.645 30.684.371L29.807.08v10.57H27.22V-.007L26.392.2c-4.189 1.046-7.983 5.56-10.4 12.359l-.51 1.424h.03a37.222 37.222 0 0 0-.931 3.48l-.056.29a47.586 47.586 0 0 0-.906 6.134h-2.636a52.47 52.47 0 0 1 .9-6.485l.086-.43c.162-.754.493-2.184.98-3.795 1.248-4.039 2.97-7.452 5.114-10.144l1.65-2.071-2.434 1.042C12 4.268 7.56 8.056 4.436 12.96l-.652 1.025h5.42c-.19.62-.403 1.47-.613 2.618H2.454l-.173.405a28.41 28.41 0 0 0-2.238 9.51L0 27.224h23.893v2.618H.034l.06.72a28.142 28.142 0 0 0 2.764 10.094l.182.375h5.817c.215 1.142.445 1.992.654 2.616H4.524l.753 1.054c3.062 4.29 7.203 7.64 11.976 9.691l2.424 1.042-1.638-2.068c-1.977-2.494-3.595-5.605-4.804-9.228a81.271 81.271 0 0 1-1.136-4.172 50.655 50.655 0 0 1-1.061-6.8h2.643c.248 2.575.68 5.051 1.287 7.368l.055.202c.159.617.525 1.915 1.24 3.866l.341.888h.015c2.433 5.869 5.978 9.765 9.772 10.721l.829.21v-9.448h2.587v9.365l.879-.295c3.673-1.233 7.097-5.285 9.395-11.115l.493-1.281h-.027c.801-2.287 1.075-3.563 1.088-3.623l.112-.525a47.635 47.635 0 0 0 1.039-6.325h2.647a51.245 51.245 0 0 1-1.084 6.902 90.095 90.095 0 0 1-1.117 4.065c-1.259 3.77-2.945 6.962-5.012 9.487l-1.642 2.006 2.406-.965c5.05-2.024 9.417-5.472 12.627-9.968l.753-1.054h-5.418c.213-.602.456-1.452.682-2.616l6.35-.004v-.034l.052.022c1.595-3.792 2.498-7.21 2.762-10.452l.06-.721H33.128v-2.618H56.88m19.693 23.411l4.68-11.424 4.682 11.424zM77.78 29.9l-15.1 35.484h7.902l3.221-7.904h14.9l3.22 7.904h8.104L84.927 29.9H77.78m34.272 1.61h-7.65v6.895h-3.221v6.543h3.221v12.783c0 6.243 3.17 8.104 7.851 8.104 2.567 0 4.43-.604 6.04-1.56v-6.14a7.796 7.796 0 0 1-3.775.956c-1.71 0-2.466-.855-2.466-2.617V44.948h6.342v-6.543h-6.342V31.51m12.329 33.873h7.65V28.64h-7.65v36.743m30.802-9.513c0 2.768-2.416 4.73-5.99 4.73-2.466 0-4.177-1.207-4.177-3.27v-.101c0-2.417 2.012-3.725 5.284-3.725 1.863 0 3.573.402 4.883 1.007zM150.4 38.101c-4.58 0-7.499.857-10.468 2.165l1.912 5.838c2.465-.906 4.53-1.459 7.45-1.459 3.825 0 5.789 1.76 5.789 4.932v.453c-1.915-.654-3.876-1.107-6.595-1.107-6.392 0-10.872 2.717-10.872 8.607v.1c0 5.335 4.179 8.255 9.261 8.255 3.726 0 6.291-1.359 8.154-3.423v2.92h7.4V49.729c0-7.298-3.676-11.627-12.031-11.627m34.172-.201c-3.876 0-6.14 2.064-7.903 4.329v-3.825h-7.649v26.978h7.65v-15.05c0-3.623 1.862-5.486 4.782-5.486 2.919 0 4.63 1.863 4.63 5.486v15.05h7.65V47.917c0-6.19-3.372-10.016-9.16-10.016m24.711-6.391h-7.65v6.895h-3.221v6.543h3.221v12.783c0 6.243 3.171 8.104 7.851 8.104 2.567 0 4.43-.604 6.04-1.56v-6.14a7.795 7.795 0 0 1-3.775.956c-1.712 0-2.466-.855-2.466-2.617V44.948h6.341v-6.543h-6.341V31.51m12.327 33.873h7.651V38.405h-7.65v26.978m-.201-29.948h8.053V28.64h-8.052v6.795m28.132 23.958c-4.179 0-6.846-3.321-6.846-7.449v-.1c0-3.977 2.719-7.35 6.544-7.35 2.719 0 4.43 1.159 6.14 2.97l4.682-5.033c-2.518-2.819-5.688-4.53-10.772-4.53-8.254 0-14.143 6.342-14.143 14.043v.1c0 7.701 5.939 13.943 14.043 13.943 5.385 0 8.405-2.064 11.022-4.933l-4.48-4.53c-1.861 1.762-3.624 2.869-6.19 2.869m48.314-.553c-6.04 0-10.218-5.034-10.218-11.074v-.1c0-6.04 4.28-10.972 10.218-10.972 3.523 0 6.292 1.51 9.01 3.975l4.932-5.687c-3.272-3.22-7.247-5.435-13.891-5.435-10.821 0-18.372 8.203-18.372 18.219v.101c0 10.117 7.701 18.12 18.07 18.12 6.794 0 10.82-2.416 14.445-6.293l-4.932-4.981c-2.768 2.516-5.235 4.127-9.262 4.127m39.406-6.795c0 3.976-2.616 7.348-6.996 7.348-4.227 0-7.096-3.472-7.096-7.449v-.1c0-3.977 2.616-7.35 6.996-7.35 4.228 0 7.096 3.474 7.096 7.45zM330.267 37.9c-8.406 0-14.646 6.291-14.646 14.043v.1c0 7.752 6.19 13.943 14.546 13.943 8.405 0 14.645-6.293 14.645-14.043v-.1c0-7.751-6.19-13.943-14.545-13.943m36.94 15.554c0 3.624-1.863 5.486-4.782 5.486-2.92 0-4.629-1.862-4.629-5.486v-15.05h-7.652V55.87c0 6.192 3.372 10.017 9.16 10.017 3.876 0 6.14-2.063 7.903-4.329v3.826h7.65V38.405h-7.65v15.05m30.043-15.554c-3.874 0-6.14 2.064-7.9 4.329v-3.825h-7.651v26.978h7.65v-15.05c0-3.623 1.863-5.486 4.782-5.486 2.92 0 4.63 1.863 4.63 5.486v15.05h7.651V47.917c0-6.19-3.372-10.016-9.161-10.016m28.886 21.492c-4.177 0-6.844-3.321-6.844-7.449v-.1c0-3.977 2.718-7.35 6.543-7.35 2.719 0 4.43 1.159 6.14 2.97l4.681-5.033c-2.517-2.819-5.686-4.53-10.77-4.53-8.254 0-14.143 6.342-14.143 14.043v.1c0 7.701 5.939 13.943 14.041 13.943 5.387 0 8.407-2.064 11.023-4.933l-4.479-4.53c-1.861 1.762-3.624 2.869-6.192 2.869m15.803-23.958h8.053V28.64h-8.053v6.795m.201 29.948h7.651V38.405h-7.65v26.978M457.34 28.64v36.743h7.65V28.64h-7.65" fill="#fff"/></svg>