<svg version="1.1" id="Layer_1" xmlns="http://www.w3.org/2000/svg" x="0px" y="0px" viewBox="0 0 630 79" style="enable-background:new 0 0 630 79;">
	<path fill="#FFFFFF" d="M473.6,7.9h4.1l0.6-3.4h-23.9l-0.6,3.4h4.3c3.9,0,4.6,1.4,4.8,2.8c0.1,1.3,0.1,2.6-0.2,4.7l-7.1,40.8
		L432.3,4.5h-22.9l-0.6,3.4h7.1l-9.6,54c-0.6,3.1-1.8,7.9-5.8,7.9h-4.8l-0.6,3.4h23.2l0.6-3.4h-4c-3.4,0-5.2-1.2-5.5-3.9
		c-0.1-0.8,0.2-2.1,0.5-3.7c0.1-0.6,0.3-1.3,0.4-2l8.4-48.2l27.8,61.3h9.5l10.4-57.4C467.4,10,469,7.9,473.6,7.9z M573.8,34.1
		c0-0.2,0-0.4,0-0.6c0,0,0,0,0-0.1c0,0,0,0,0,0c-0.4-3.4-3.2-6-6.7-6c-3.7,0-6.7,3-6.7,6.7c0,3.7,3,6.7,6.6,6.7
		c0.3,0.4,0.7,0.9,0.9,1.1c-1.4,3.5-3.4,7.2-5.9,10.9c-4.5,6.7-9,11.6-12.5,13.9c-0.9,0.4-1.7,0.5-2.2,0.1c-0.3-0.2-0.5-0.6-0.4-1
		c0,0,0.2-0.9,0.3-1.3l6.7-34.8h-14.1l-0.5,2.3c-1.2,3.4-4.2,11.4-9.4,19.9c-2.1,3.5-4.1,6.3-5.8,8.6c-0.6,0.7-1.4,0.8-1.9,0.3
		c-0.5-0.4-0.4-1.3-0.3-1.8l0.6-3l5.9-29.3h-2.3l-2.7,2.9L506.7,30l-0.4,3.4l6.6,0l-5.3,25.1l-0.3,0.6c-2.5,4.4-10.3,12.4-22.3,11.8
		c-3.4-0.2-5.7-2.3-6.1-5.6c-0.4-3.2-0.2-6.8,0.5-11.5c1.9,0.4,4.2,0.5,5.2,0.5c6.8,0,12.4-2,15.6-5.5c2.2-2.4,3.1-5.5,2.7-9.1
		c-0.8-6.6-7.8-10.5-14.1-10.5c-5.6-0.2-11.5,2.7-16.3,7.9c-5.6,6-8.5,14-7.7,20.7c1.1,9.5,8.2,15.8,18.6,16.4
		c0.7,0,1.4,0.1,2.1,0.1c11,0,17.8-5,21.7-9.4c0,0.2,0,0.5,0,0.7c0.6,5,4.4,8.2,9.7,8.2c0.6,0,1.5,0,1.7,0c0.5,0,0.7-0.1,0.9-0.3
		c0.1-0.1,6.7-8.4,12.8-18.1c1.3-2,2.5-4.1,3.6-6.2l-1,4.6c0,0-0.9,5.7-1.1,7.2s-0.1,3.3,0.3,4.7c1,3.6,2.6,7,8,7.8c0,0,0,0,0.1,0
		c0.1,0,1.3,0.2,2.6,0.2c0.3,0,0.6,0,0.9,0c4.1-0.4,10.8-6.8,18.4-17.6c4.3-6.1,9.9-14.9,9.9-21.9C573.8,34.2,573.8,34.1,573.8,34.1
		z M488.3,32.1c1.1,0,2.6,0.8,2.8,3.1c0.4,3.1-0.7,7.2-1.7,10.7c-1,3.5-2.3,5.5-6.1,5.5c-1,0-2.3-0.2-3.3-0.6
		C482.4,38.7,484.4,32.1,488.3,32.1z M608.2,38.9l0-0.1c-0.1-1.5-0.6-2.9-1.5-4c-2.9-4-9.2-5.5-13.5-5.5c-5.6,0-10.6,2.1-13.8,5.7
		c-2.6,3-3.8,6.7-3.3,10.7c0.8,6.8,6.5,9.6,11.5,12.1c4,2,7.4,3.6,7.8,6.9c0.2,2-0.1,3.5-1.1,4.6c-1.7,1.9-4.9,2.3-7.3,2.3
		c-4.7,0-9.2-2.4-10-3.2c0,0,0-0.1,0.1-0.1c3.3-0.4,5.9-3.2,5.9-6.6c0-3.7-3-6.6-6.6-6.6c-3.5,0-6.4,2.7-6.6,6.1
		c-0.1,0.7-0.1,1.4,0,2.1c0.9,7.2,10.6,10.9,17.2,11.2c0.4,0,0.8,0,1.2,0c5.8,0,11.1-1.8,14.3-5c2.5-2.4,3.7-5.4,3.6-9
		c-0.1-8.1-6.5-11.4-12.2-14.3c-4.4-2.3-8.1-4.2-8.6-7.8c-0.2-1.4,0.2-2.6,1.1-3.6c1.7-1.9,4.8-2.6,6.9-2.6c2,0,4,0.5,5.4,1
		c-2.1,1.1-3.6,3.3-3.6,5.9c0,3.7,3,6.6,6.6,6.6c3.7,0,6.6-3,6.6-6.6C608.2,39,608.2,39,608.2,38.9L608.2,38.9z"></path>
	<path fill="#FFFFFF" d="M140.5,4.5h-27.7l-0.6,3.5h7.9l-10.4,61.9h-7.3l-0.6,3.5h33.8c10.7,0,20.3-4.2,27.1-11.8
		c7-7.9,10.3-19,8.9-30.2C169.5,14.5,157.9,4.5,140.5,4.5z M146.6,63.4c-3.5,4.3-8.4,6.4-15,6.4h-5.4l10.5-61.9h3.4
		c5.1,0,14,2,15.6,15.3C156.5,30.2,152.9,55.4,146.6,63.4z M391.6,30.2l2.9-15.5l-15.9,8.6l-1.2,6.9h-8.5l-0.6,3.5h8.4l-3.9,22.9
		c-2.9,4.9-12.2,15-22.5,14.5c-3.5-0.2-5.8-2.3-6.2-5.6c-0.4-3.2-0.3-6.8,0.4-11.6c1.9,0.4,4.2,0.5,5.2,0.5c6.9,0,12.6-2,15.8-5.6
		c2.2-2.5,3-5.5,2.6-9.1C367.4,33,360.2,29,353.8,29c-5.7-0.2-11.7,2.8-16.6,8.1c-5.5,6.1-8.5,14-7.7,20.8
		c1.2,9.5,8.4,15.8,18.9,16.5c0.6,0,1.1,0.1,1.7,0.1c10.1,0,17.4-6.2,21.7-11c0,0.2,0,0.3,0,1c0,0.3,0.1,1.3,0.3,2.1
		c0.8,3.2,4.2,6.7,11.6,6.7h0.8l0.1-0.8c0.5-3.5,1.5-9.9,1.8-12l4.5-26.8h11.2l0.6-3.5H391.6z M353.4,31.9c1.2,0,2.6,0.8,2.9,3.1
		c0.4,3.1-0.7,7.2-1.7,10.8c-1,3.5-2.3,5.6-6.2,5.6c-1.1,0-2.4-0.2-3.3-0.6C347.4,38.5,349.5,31.9,353.4,31.9z M251,38.6
		c-0.1-1.4-0.5-2.7-1.3-3.7c-2.8-4.2-9.3-5.8-13.8-5.8c-5.6,0-10.7,2.1-13.9,5.7c-2.6,3-3.8,6.7-3.3,10.8c0.8,6.9,6.5,9.7,11.6,12.1
		c4,2,7.5,3.7,7.9,6.9c0.2,2-0.1,3.5-1.1,4.6c-1.7,1.9-4.9,2.3-7.3,2.3c-4.7,0-9.2-2.4-10-3.2c0,0,0-0.1,0.1-0.1
		c3.3-0.4,5.9-3.2,5.9-6.6c0-3.7-3-6.7-6.7-6.7c-2.8,0-5.1,1.7-6.2,4.1l-0.2,0.3c-3,5.3-9.7,11.6-18.4,11.8
		c-3.3,0.1-5.7-2.1-6.2-5.6c-0.4-3.2-0.3-6.8,0.4-11.6c1.9,0.4,4.2,0.5,5.2,0.5c6.9,0,12.6-2,15.8-5.6c2.2-2.5,3.1-5.5,2.6-9.1
		C211.3,33,204.2,29,197.8,29c-5.7-0.2-11.7,2.8-16.6,8.1c-5.5,6.1-8.5,14-7.7,20.8c1.1,9.4,8.4,15.7,18.9,16.5
		c0.6,0,1.1,0.1,1.6,0.1c8.1,0,14.4-4.4,18.6-9.5c2.1,6.1,11,9.4,16.9,9.5c5.8,0.1,12.5-1.6,16.5-6c2.2-2.5,3.1-5.5,2.7-8.9
		c-1-8.5-7.3-11.5-12.8-14c-4.1-1.9-7.6-3.6-8.1-7.2c-0.2-1.4,0.2-2.7,1.1-3.7c1.7-1.9,4.8-2.6,6.9-2.6c2,0,4.1,0.5,5.4,1
		c-2.1,1.1-3.6,3.3-3.6,5.9c0,3.7,3,6.7,6.7,6.7c3.7,0,6.7-3,6.7-6.7c0-0.1,0-0.1,0-0.1l0,0L251,38.6z M197.4,31.9
		c1.2,0,2.6,0.8,2.9,3.1c0.4,3.1-0.7,7.2-1.7,10.8c-1,3.5-2.3,5.6-6.2,5.6c-1.1,0-2.4-0.2-3.3-0.6C191.4,38.5,193.4,31.9,197.4,31.9
		z M333.9,35.9c0-4-3.2-7.3-7.2-7.3c0,0-0.1,0-0.1,0c-1.5,0-3.3,0.7-3.3,0.7c-2.4,0.9-5.4,3-7.9,5.3l1.4-7.6h-2.3l-2.7,2.9l-17,0.3
		l-0.4,3.4l6.7,0l-4.3,23c-2.9,4.9-12.2,14.9-22.4,14.3c-3.5-0.2-5.8-2.3-6.2-5.6c-0.4-3.2-0.3-6.8,0.4-11.6
		c1.9,0.4,4.2,0.5,5.2,0.5c6.9,0,12.6-2,15.8-5.6c2.2-2.5,3-5.5,2.6-9.1C291.4,33,284.3,29,277.9,29c-5.7-0.2-11.7,2.8-16.6,8.1
		c-5.5,6.1-8.5,14-7.7,20.8c1.2,9.5,8.4,15.8,18.9,16.5c0.6,0,1.1,0.1,1.7,0.1c9.8,0,17.1-5.9,21.3-10.6l-1.8,9.4h14.5l5.3-28.7
		c1.4-3.6,3.7-7.4,5.9-9.7c0,0.3-0.1,0.7-0.1,1.1c0,4,3.3,7.3,7.3,7.3C330.6,43.1,333.9,39.9,333.9,35.9z M277.5,31.9
		c1.2,0,2.6,0.8,2.9,3.1c0.4,3.1-0.7,7.2-1.7,10.8c-1,3.5-2.3,5.6-6.2,5.6c-1.1,0-2.4-0.2-3.3-0.6C271.5,38.5,273.5,31.9,277.5,31.9
		z"></path>
	<path fill="#FFFFFF" d="M617,60c-4,0-7.3,3.3-7.3,7.3c0,4,3.3,7.3,7.3,7.3c4,0,7.3-3.3,7.3-7.3C624.2,63.3,621,60,617,60z"></path>
	<path fill="#FFFFFF" d="M15.4,35.6l50.9,0c1.5,0,2.4-1.5,1.9-2.8c-1.1-2.7-2.3-5.2-3.6-7.5c-0.7-1.3-2.1-2.1-3.5-2.1H20.6
		c-1.5,0-2.8,0.8-3.5,2.1c-1.3,2.3-2.5,4.8-3.6,7.5C12.9,34.1,13.9,35.6,15.4,35.6z M25.1,19.5h31.3c1.8,0,2.7-2.1,1.5-3.4
		c-0.1-0.2-0.3-0.3-0.4-0.5c-5.6-6-11.7-7.7-16.7-7.7c-5.1,0-11.2,1.7-16.9,7.7c-0.1,0.1-0.3,0.3-0.4,0.4
		C22.4,17.4,23.4,19.5,25.1,19.5z M10.5,52h60.8c1.3,0,2.3-1.2,2-2.4c-0.5-2.7-1.2-5.2-1.9-7.7c-0.4-1.5-1.7-2.5-3.3-2.5H13.6
		c-1.5,0-2.9,1-3.3,2.5c-0.7,2.5-1.3,5-1.8,7.7C8.2,50.8,9.2,52,10.5,52z M74.9,58.3c-0.3-1.5-1.5-2.5-3-2.5l-61.9,0
		c-1.5,0-2.8,1.1-3.1,2.6c-0.4,2.7-1,6.3-1.2,9.3c-0.1,1.2,0.9,2.1,2,2.1l24.4,0c1.2,0,2.2-1,2.2-2.2v-1.9c0-3.4,2.5-6.5,5.9-6.8
		c3.8-0.4,7.1,2.7,7.1,6.4v2.2c0,1.2,1,2.2,2.2,2.2h24.6c1.2,0,2.2-1,2-2.3C75.9,64.2,75.3,60.8,74.9,58.3z"></path>
</svg>