<svg id="email-newsletter-logos" xmlns="http://www.w3.org/2000/svg" width="200.22" height="59.13" viewBox="0 0 200.22 59.13"><defs><style>.cls-1{fill:#fff;}.cls-2{fill:#036;}.cls-3{fill:#c20017;}</style></defs><title>fn-newsletter-logos</title><g id="best-of-opinion"><path id="white" class="cls-1" d="M176,39.63a11.62,11.62,0,0,1-7.83-2.29l5.2-17.85,7.83,2.28Zm-1.82,2.17-3.33,3.43h0a.81.81,0,0,1-1.35-.39l-1-4.69A13.83,13.83,0,0,0,174.22,41.8Zm6-39.47a3.8,3.8,0,0,1,.77-.14,4.33,4.33,0,0,1,1.25.06,6,6,0,0,1,.64.17,4.55,4.55,0,0,1,1.94,1.28,5.19,5.19,0,0,1,.42.59,3.52,3.52,0,0,1,.43,1.16,3.31,3.31,0,0,1-.07,1.46l-3.72,12.77L174,17.4l3.73-12.79h0a3.34,3.34,0,0,1,.3-.69A3.61,3.61,0,0,1,180.19,2.33Z"/><path id="blue" class="cls-2" d="M12.27,49.85a11.6,11.6,0,0,1-8.56-3.51,14.29,14.29,0,0,1-3.65-9.1,25.55,25.55,0,0,1,.45-6.62,23.07,23.07,0,0,1,2.42-7,17.65,17.65,0,0,1,4.35-5.34,14.94,14.94,0,0,1,10.08-3.47,12.42,12.42,0,0,1,6.13,1.61,11.31,11.31,0,0,1,4.2,4.41,15.83,15.83,0,0,1,1.83,6.57,26.31,26.31,0,0,1-.32,5.91,23.57,23.57,0,0,1-1.86,6.33,19.18,19.18,0,0,1-3.49,5.31,16.14,16.14,0,0,1-5.05,3.65A14.72,14.72,0,0,1,12.27,49.85Zm9.18-22.54q-.24-5.86-4.57-6.1a6.29,6.29,0,0,0-5.52,2.64q-2.19,2.8-2.9,8.26a28.43,28.43,0,0,0-.33,5.23q.24,6,4.61,6.11a6.1,6.1,0,0,0,5-2.05,13.2,13.2,0,0,0,3-6.37A30.32,30.32,0,0,0,21.45,27.31Zm33,9.42a21,21,0,0,1-2.1,7.09,11.55,11.55,0,0,1-4,4.62,9.3,9.3,0,0,1-5.28,1.44,7,7,0,0,1-5.42-2.63l-2.3,11.88H27.69L33.8,24,41,24l-.4,2.42a7.46,7.46,0,0,1,6-2.86,7.15,7.15,0,0,1,5.8,2.64,11.74,11.74,0,0,1,2.22,7.11A28.58,28.58,0,0,1,54.49,36.73ZM47,33.59q-.12-3.87-2.64-3.94a4.58,4.58,0,0,0-4.07,2L38.44,41.7a3.14,3.14,0,0,0,3.25,2.08q4.11.07,5.06-7.05C46.89,35.23,47,34.18,47,33.59ZM63.08,49.38H55.31L59.74,24H67.5ZM60.42,17.63a3.56,3.56,0,0,1,1.21-2.86,4.35,4.35,0,0,1,3.05-1.15,4.48,4.48,0,0,1,3,1A3.51,3.51,0,0,1,69,17.35a3.59,3.59,0,0,1-1.2,2.87,4.4,4.4,0,0,1-3.06,1.13,4.58,4.58,0,0,1-3-1A3.47,3.47,0,0,1,60.42,17.63ZM78.52,24,78,27.05a9.08,9.08,0,0,1,7.37-3.52,6.09,6.09,0,0,1,5.26,2.62c1.15,1.69,1.57,4.12,1.26,7.27l-2.68,16H81.41l2.71-16a8.59,8.59,0,0,0,0-1.5c-.11-1.49-1-2.23-2.63-2.23a4.85,4.85,0,0,0-3.74,1.8l-3.18,18H66.87L71.29,24Zm22.3,25.38H93.06L97.48,24h7.77ZM98.16,17.63a3.57,3.57,0,0,1,1.22-2.86,4.33,4.33,0,0,1,3-1.15,4.51,4.51,0,0,1,3,1,3.51,3.51,0,0,1,1.26,2.7,3.59,3.59,0,0,1-1.2,2.87,4.4,4.4,0,0,1-3.06,1.13,4.54,4.54,0,0,1-3-1A3.48,3.48,0,0,1,98.16,17.63Zm21.47,5.93a10.63,10.63,0,0,1,5.9,1.7,9.59,9.59,0,0,1,3.66,4.6,14.11,14.11,0,0,1,.84,6.56l-.05.52a15,15,0,0,1-4.35,9.42,12.26,12.26,0,0,1-9.13,3.49,10.7,10.7,0,0,1-5.86-1.67A9.65,9.65,0,0,1,107,43.62a13.8,13.8,0,0,1-.86-6.52,15.57,15.57,0,0,1,4.29-9.93A12.17,12.17,0,0,1,119.63,23.56Zm-5.77,13.55-.07,1.38q-.33,5.22,3.2,5.32,4.56.13,5.29-7.37l.1-2.13a5.7,5.7,0,0,0-.79-3.36,2.87,2.87,0,0,0-2.46-1.3,4,4,0,0,0-3.52,1.74A11.46,11.46,0,0,0,113.86,37.11ZM141.79,24l-.54,3.05a9.08,9.08,0,0,1,7.37-3.52,6.1,6.1,0,0,1,5.26,2.62c1.15,1.69,1.57,4.12,1.26,7.27l-2.69,16h-7.76l2.7-16a7.77,7.77,0,0,0,.05-1.5c-.11-1.49-1-2.23-2.64-2.23a4.87,4.87,0,0,0-3.74,1.8l-3.17,18h-7.74L134.57,24Zm28.84,23.62a2.91,2.91,0,0,0,1.81-.88h0l5-5.14h0a1.57,1.57,0,0,0,.21-.24.92.92,0,0,0,.18-.3,2.72,2.72,0,0,0,.11-.25,1.12,1.12,0,0,0,.05-.13l5.6-19.23a.36.36,0,0,0,0-.11l0-.11,2.62-9,1.06.31-3.69,12.68a1.07,1.07,0,0,0,.26,1.06,1.11,1.11,0,0,0,.48.29,1.07,1.07,0,0,0,1.34-.74l4-13.71h0l1-3.55a1.09,1.09,0,1,0-2.09-.61L188,10.44l-1.06-.31.76-2.63h0v0a5.51,5.51,0,0,0-.6-4.3,6.51,6.51,0,0,0-.64-.89A6.64,6.64,0,0,0,183.56.37a6.81,6.81,0,0,0-.94-.25A6.34,6.34,0,0,0,180.77,0a6.51,6.51,0,0,0-1.19.21,5.85,5.85,0,0,0-3.4,2.57A4.91,4.91,0,0,0,175.67,4h0L166,37.16h0a2.23,2.23,0,0,0,0,1.09h0l1.45,7h0a.19.19,0,0,1,0,.07h0a2.94,2.94,0,0,0,.74,1.35,2.91,2.91,0,0,0,.37.33l-.27,1a1.09,1.09,0,0,0,.27,1,1.12,1.12,0,0,0,.49.3,1.1,1.1,0,0,0,1.34-.77Zm5.41-8a11.62,11.62,0,0,1-7.83-2.29l5.2-17.85,7.83,2.28Zm-1.82,2.17-3.33,3.43h0a.81.81,0,0,1-1.35-.39l-1-4.69A13.83,13.83,0,0,0,174.22,41.8Zm6-39.47a3.8,3.8,0,0,1,.77-.14,4.33,4.33,0,0,1,1.25.06,6,6,0,0,1,.64.17,4.55,4.55,0,0,1,1.94,1.28,5.19,5.19,0,0,1,.42.59,3.52,3.52,0,0,1,.43,1.16,3.31,3.31,0,0,1-.07,1.46l-3.72,12.77L174,17.4l3.73-12.79h0a3.34,3.34,0,0,1,.3-.69A3.61,3.61,0,0,1,180.19,2.33Z"/><path id="red" class="cls-3" d="M123.52,12.06a5.19,5.19,0,0,1-.86,3.2,2.88,2.88,0,0,1-2.42,1.11,2.51,2.51,0,0,1-2.08-1l-.11.87h-2.36v-12h2.64V8.44a2.42,2.42,0,0,1,1.89-.83,2.88,2.88,0,0,1,2.44,1.13,5.22,5.22,0,0,1,.86,3.19Zm-2.64-.17a3.48,3.48,0,0,0-.32-1.73,1.09,1.09,0,0,0-1-.52,1.25,1.25,0,0,0-1.23.68v3.35a1.26,1.26,0,0,0,1.25.67,1.12,1.12,0,0,0,1.18-.9A6.8,6.8,0,0,0,120.88,11.89Zm7.89,4.48a4.31,4.31,0,0,1-3.15-1.16,4,4,0,0,1-1.2-3V12a5.18,5.18,0,0,1,.48-2.29,3.55,3.55,0,0,1,1.4-1.54,4.28,4.28,0,0,1,2.19-.54,3.67,3.67,0,0,1,2.81,1.1,4.35,4.35,0,0,1,1,3.09v1H127.1a1.89,1.89,0,0,0,.62,1.12,1.82,1.82,0,0,0,1.23.4,2.36,2.36,0,0,0,2-.87l1.21,1.42a3.44,3.44,0,0,1-1.4,1.08A4.68,4.68,0,0,1,128.77,16.37Zm-.3-6.73c-.77,0-1.23.51-1.37,1.53h2.66V11a1.17,1.17,0,0,0-1.29-1.33Zm9.35,4.2a.63.63,0,0,0-.35-.54,5.9,5.9,0,0,0-1.34-.42,6,6,0,0,1-1.62-.57,2.71,2.71,0,0,1-1-.87,2,2,0,0,1-.34-1.16,2.35,2.35,0,0,1,1-1.92,4,4,0,0,1,2.52-.75,4.38,4.38,0,0,1,2.69.76,2.38,2.38,0,0,1,1,2h-2.64c0-.68-.35-1-1.07-1a1.06,1.06,0,0,0-.69.23.72.72,0,0,0-.28.58.66.66,0,0,0,.34.57,3.5,3.5,0,0,0,1.1.36,9.07,9.07,0,0,1,1.32.33,2.41,2.41,0,0,1,1.91,2.35,2.24,2.24,0,0,1-1,1.89,4.54,4.54,0,0,1-2.66.72,4.64,4.64,0,0,1-1.94-.39,3.22,3.22,0,0,1-1.33-1.06,2.46,2.46,0,0,1-.47-1.41h2.46a1,1,0,0,0,.39.85,1.6,1.6,0,0,0,1,.27,1.24,1.24,0,0,0,.81-.22A.68.68,0,0,0,137.82,13.84Zm6.83-8.18v2.1H146V9.59h-1.39v3.87a.93.93,0,0,0,.18.66.89.89,0,0,0,.68.19,3.06,3.06,0,0,0,.65-.05v1.89a4.87,4.87,0,0,1-1.48.22,2.74,2.74,0,0,1-2-.64,2.61,2.61,0,0,1-.65-1.94V9.59h-1.08V7.76H142V5.66Zm6.08,6.25a5.1,5.1,0,0,1,.49-2.25,3.48,3.48,0,0,1,1.42-1.52,4.27,4.27,0,0,1,2.16-.53,3.87,3.87,0,0,1,3,1.17,4.52,4.52,0,0,1,1.1,3.2v.1a4.38,4.38,0,0,1-1.1,3.13,3.86,3.86,0,0,1-3,1.16,3.94,3.94,0,0,1-2.9-1.08,4.24,4.24,0,0,1-1.18-2.93Zm2.63.17a3.21,3.21,0,0,0,.37,1.72,1.24,1.24,0,0,0,1.09.54c.94,0,1.41-.72,1.44-2.16v-.27c0-1.51-.49-2.27-1.46-2.27s-1.35.65-1.43,2Zm7.27,4.14V9.59H159.4V7.76h1.23V7.09a2.91,2.91,0,0,1,.85-2.24,3.38,3.38,0,0,1,2.39-.8,5.25,5.25,0,0,1,1.24.17V6.16a2.17,2.17,0,0,0-.64-.08c-.8,0-1.2.35-1.2,1v.64h1.65V9.59h-1.65v6.63Zm39.24,20.2-1.27-1.2a23.12,23.12,0,0,0-6.14-4.71,2.69,2.69,0,0,0-2.69,0c-1.7,1.11-1.68,4.27-1.66,6v.24a45.86,45.86,0,0,1-.23,5.77c-.2,1.65-.52,3.48-1.75,4.31a4.85,4.85,0,0,1-1.22.62,12.25,12.25,0,0,1-4.43.28c-1.32-.1-2.66-.28-3.93-.46l-.52-.07a1.08,1.08,0,0,0-.9,1.86,1.06,1.06,0,0,0,.6.29l.52.07c1.3.19,2.68.37,4.07.48a13.94,13.94,0,0,0,5.22-.37,7,7,0,0,0,1.81-.9c2.16-1.45,2.5-4.31,2.69-5.84a48.89,48.89,0,0,0,.24-6.05v-.25a18.59,18.59,0,0,1,.12-2.58c.18-1.27.52-1.52.56-1.55s.32,0,.6.11a21.53,21.53,0,0,1,5.54,4.3L198.4,38a1.09,1.09,0,0,0,1.47-1.6Z"/></g></svg>