<?xml version="1.0" encoding="utf-8"?>
<!-- Generator: Adobe Illustrator 25.2.1, SVG Export Plug-In . SVG Version: 6.00 Build 0)  -->
<svg version="1.1" xmlns="http://www.w3.org/2000/svg" xmlns:xlink="http://www.w3.org/1999/xlink" x="0px" y="0px"
	 viewBox="0 0 204.85 80" style="enable-background:new 0 0 204.85 80;" xml:space="preserve">
<style type="text/css">
	.st0{fill:#5C666F;}
	.st1{fill:#EA6903;}
	.st2{fill:#E76A24;}
	.st3{fill:#5C6770;}
	.st4{display:none;}
	.st5{display:inline;}
	.st6{fill:#FFFFFF;}
	.st7{fill:#E56A24;}
	.st8{fill:#5D6771;}
	.st9{display:none;fill:#5C666F;}
	.st10{display:inline;fill:#5C666F;}
	.st11{fill:#5D6770;}
	.st12{fill:#69737B;}
	.st13{fill:#256A78;}
	.st14{fill:#D12430;}
	.st15{display:inline;fill:#2D1996;}
	.st16{fill:#2D1996;}
	.st17{fill:#E86B24;}
	.st18{fill:none;}
	.st19{opacity:0.7;}
	.st20{fill-rule:evenodd;clip-rule:evenodd;fill:#FFFFFF;}
	.st21{fill-rule:evenodd;clip-rule:evenodd;fill:#EA6903;}
	.st22{fill:#5B6770;}
	.st23{fill-rule:evenodd;clip-rule:evenodd;fill:#5B6770;}
	.st24{fill-rule:evenodd;clip-rule:evenodd;fill:#F7C39A;}
	.st25{clip-path:url(#SVGID_2_);fill-rule:evenodd;clip-rule:evenodd;fill:#FFFFFF;}
	.st26{display:none;fill:#E50E1F;}
	.st27{fill:#020202;}
	.st28{fill:#EE7204;}
	.st29{fill:#080808;}
	.st30{fill:#0A0A0A;}
	.st31{fill:#0B0B0B;}
	.st32{fill:#EF770C;}
	.st33{fill:#0F0F0F;}
	.st34{fill:#0C0C0C;}
	.st35{fill:#060606;}
	.st36{fill:#EF7B14;}
	.st37{fill:#B7B7B7;}
	.st38{fill:#C11D22;}
	.st39{fill:#3A79B7;}
	.st40{fill:#768492;}
	.st41{fill:#FFFFFF;stroke:#FFFFFF;stroke-width:0.25;stroke-miterlimit:10;}
	.st42{fill:#3B79B7;}
	.st43{fill:#363535;}
	.st44{fill:#BED970;}
	.st45{fill:#E1368E;}
	.st46{fill:#E9E751;}
	.st47{fill:#8E499B;}
	.st48{fill:#C1C0C0;}
	.st49{clip-path:url(#SVGID_4_);fill:url(#SVGID_5_);}
	.st50{fill:#334D5D;}
	.st51{fill:#2170B7;}
	.st52{fill:#718B99;}
	.st53{fill:#B62027;}
	.st54{fill:#26A3DD;}
	.st55{clip-path:url(#SVGID_7_);fill:url(#SVGID_8_);}
</style>
<g id="afghan_x5F_da">
</g>
<g id="afghan_x5F_eng">
</g>
<g id="afghan_x5F_pa">
</g>
<g id="armenian">
</g>
<g id="armenian_x5F_ru">
</g>
<g id="azeri">
</g>
<g id="azeri_x5F_ru">
</g>
<g id="balkan">
</g>
<g id="belarussian">
</g>
<g id="bulgarian">
</g>
<g id="crimea_x5F_ru">
</g>
<g id="crimea_x5F_ta">
</g>
<g id="crimea_x5F_ua">
</g>
<g id="donbass_x5F_ru_-_not_full">
</g>
<g id="donbass_x5F_ua_-_not_full">
</g>
<g id="English">
	<g>
		<path id="English_2_" class="st0" d="M63.51,53.46h-4.17l-3.41-4.89v4.89h-3.4V39.97h4.87c1.85,0,2.94,0.64,3.53,1.19
			c0.46,0.43,1.22,1.4,1.22,3.06c0,1.18-0.36,2.09-1.1,2.8c-0.48,0.45-1.1,0.8-1.73,0.99L63.51,53.46z M55.93,45.96h0.56
			c0.56,0,1.27-0.06,1.76-0.53c0.17-0.17,0.46-0.55,0.46-1.18c0-0.53-0.19-0.95-0.57-1.23c-0.34-0.25-0.9-0.39-1.63-0.39h-0.58
			V45.96z M68.08,53.76c-1.48,0-2.55-0.43-3.48-1.39c-0.9-0.94-1.35-2.08-1.35-3.41c0-1.44,0.52-2.77,1.44-3.67
			c0.82-0.81,1.97-1.25,3.23-1.25c0.8,0,1.87,0.19,2.68,1.03v-0.74h3.2v9.12h-3.2v-0.78C69.99,53.4,69.14,53.76,68.08,53.76z
			 M68.65,46.79c-0.56,0-1.12,0.22-1.49,0.59c-0.28,0.28-0.62,0.76-0.62,1.5c0,0.73,0.31,1.21,0.57,1.48c0.39,0.4,1,0.65,1.61,0.65
			c0.53,0,1.04-0.21,1.41-0.57c0.3-0.28,0.66-0.78,0.66-1.56c0-0.6-0.23-1.15-0.62-1.52C69.79,47.02,69.2,46.79,68.65,46.79z
			 M79.7,53.76c-1.33,0-2.34-0.4-3.19-1.25c-0.94-0.92-1.46-2.22-1.46-3.65c0-1.44,0.52-2.71,1.46-3.59c0.85-0.79,2-1.23,3.23-1.23
			c1.08,0,2.01,0.37,2.66,1.04v-6.34h3.2v14.72h-3.2v-0.8C81.75,53.39,80.84,53.76,79.7,53.76z M80.45,46.79
			c-0.6,0-1.05,0.17-1.46,0.55c-0.3,0.28-0.66,0.78-0.66,1.58c0,0.57,0.24,1.12,0.66,1.52c0.39,0.37,0.91,0.57,1.42,0.57
			c0.56,0,1.15-0.24,1.56-0.61c0.23-0.21,0.62-0.69,0.62-1.48c0-0.6-0.2-1.1-0.61-1.52C81.57,46.98,81.08,46.79,80.45,46.79z
			 M90.93,53.46h-3.2v-9.12h3.2V53.46z M89.33,42.53c-1.03,0-1.84-0.79-1.84-1.81c0-1.01,0.81-1.81,1.84-1.81
			c1.03,0,1.84,0.79,1.84,1.81C91.17,41.74,90.37,42.53,89.33,42.53z M97.81,53.76c-1.63,0-3.12-0.53-4.08-1.47
			c-0.88-0.86-1.41-2.12-1.41-3.39s0.53-2.53,1.41-3.39c0.96-0.93,2.45-1.47,4.08-1.47c1.63,0,3.12,0.53,4.08,1.47
			c0.88,0.86,1.41,2.12,1.41,3.39c0,1.27-0.53,2.53-1.41,3.39C100.93,53.22,99.45,53.76,97.81,53.76z M97.81,46.75
			c-0.62,0-1.15,0.2-1.55,0.59c-0.42,0.41-0.63,0.92-0.63,1.56c0,0.64,0.21,1.15,0.63,1.56c0.41,0.39,0.93,0.59,1.57,0.59
			c0.61,0,1.13-0.2,1.53-0.59c0.42-0.41,0.63-0.92,0.63-1.56c0-0.64-0.21-1.15-0.63-1.56C98.96,46.95,98.44,46.75,97.81,46.75z
			 M107.9,53.47h-3.4v-13.5h7.77v2.87h-4.36v2.26h4.04v2.87h-4.04V53.47z M151.31,53.46h-7.68V39.97h7.68v2.86h-4.37v2.26h4.15v2.86
			h-4.15v2.64h4.37V53.46z M158.9,44.34v5.01c0,0.39-0.05,0.95-0.45,1.32c-0.27,0.24-0.69,0.38-1.16,0.38
			c-0.47,0-0.85-0.12-1.14-0.38c-0.41-0.36-0.47-0.89-0.47-1.32v-5.01h-3.26v5.47c0,0.92,0.13,1.89,1.06,2.76
			c0.85,0.8,2.09,1.19,3.81,1.19c1.68,0,2.95-0.4,3.79-1.19c0.99-0.93,1.08-1.96,1.08-2.94v-5.29H158.9z M176.84,53.76
			c-1.63,0-3.12-0.53-4.08-1.47c-0.88-0.86-1.41-2.12-1.41-3.39c0-1.27,0.53-2.53,1.41-3.39c0.96-0.93,2.45-1.47,4.08-1.47
			s3.12,0.53,4.08,1.47c0.88,0.86,1.41,2.12,1.41,3.39c0,1.27-0.53,2.53-1.41,3.39C179.96,53.22,178.47,53.76,176.84,53.76z
			 M176.84,46.75c-0.62,0-1.15,0.2-1.55,0.59c-0.42,0.41-0.63,0.92-0.63,1.56c0,0.64,0.21,1.15,0.63,1.56
			c0.41,0.39,0.93,0.59,1.57,0.59c0.61,0,1.13-0.2,1.53-0.59c0.42-0.41,0.63-0.92,0.63-1.56c0-0.64-0.21-1.15-0.63-1.56
			C177.99,46.95,177.47,46.75,176.84,46.75z M186.74,57.99h-3.2V44.34h3.2v0.8c0.7-0.73,1.59-1.1,2.66-1.1
			c1.29,0,2.43,0.45,3.29,1.29c0.9,0.88,1.4,2.14,1.4,3.55c0,1.46-0.5,2.69-1.48,3.65c-0.87,0.85-1.84,1.23-3.15,1.23
			c-1.16,0-2.07-0.35-2.72-1.05V57.99z M188.7,46.79c-0.74,0-1.23,0.33-1.51,0.61c-0.4,0.39-0.64,0.97-0.64,1.52
			c0,0.53,0.22,1.07,0.61,1.46c0.41,0.4,0.97,0.63,1.55,0.63c0.53,0,1.07-0.21,1.46-0.57c0.4-0.38,0.66-0.99,0.66-1.58
			c0-0.57-0.23-1.12-0.64-1.5C189.78,46.99,189.25,46.79,188.7,46.79z M63.51,74.97h-4.17l-3.41-4.89v4.89h-3.4V61.48h4.87
			c1.85,0,2.94,0.64,3.53,1.19c0.46,0.43,1.22,1.4,1.22,3.06c0,1.18-0.36,2.09-1.1,2.8c-0.48,0.45-1.1,0.8-1.73,0.99L63.51,74.97z
			 M55.93,67.48h0.56c0.56,0,1.27-0.06,1.76-0.53c0.17-0.17,0.46-0.55,0.46-1.18c0-0.53-0.19-0.95-0.57-1.23
			c-0.34-0.25-0.9-0.39-1.63-0.39h-0.58V67.48z M68.08,75.27c-1.48,0-2.55-0.43-3.48-1.39c-0.9-0.94-1.35-2.08-1.35-3.41
			c0-1.44,0.52-2.77,1.44-3.67c0.82-0.81,1.97-1.25,3.23-1.25c0.8,0,1.87,0.19,2.68,1.03v-0.74h3.2v9.12h-3.2v-0.78
			C69.99,74.91,69.14,75.27,68.08,75.27z M68.65,68.3c-0.56,0-1.12,0.22-1.49,0.59c-0.28,0.28-0.62,0.76-0.62,1.5
			c0,0.73,0.31,1.21,0.57,1.48c0.39,0.4,1,0.65,1.61,0.65c0.53,0,1.04-0.21,1.41-0.57c0.3-0.28,0.66-0.78,0.66-1.56
			c0-0.6-0.23-1.15-0.62-1.52C69.79,68.53,69.2,68.3,68.65,68.3z M79.7,75.27c-1.33,0-2.34-0.4-3.19-1.25
			c-0.94-0.92-1.46-2.22-1.46-3.65c0-1.44,0.52-2.71,1.46-3.59c0.85-0.79,2-1.23,3.23-1.23c1.08,0,2.01,0.37,2.66,1.04v-6.34h3.2
			v14.72h-3.2v-0.8C81.75,74.9,80.84,75.27,79.7,75.27z M80.45,68.3c-0.6,0-1.05,0.17-1.46,0.55c-0.3,0.28-0.66,0.78-0.66,1.58
			c0,0.57,0.24,1.12,0.66,1.52c0.39,0.37,0.91,0.57,1.42,0.57c0.56,0,1.15-0.24,1.56-0.61c0.23-0.21,0.62-0.69,0.62-1.48
			c0-0.6-0.2-1.1-0.61-1.52C81.57,68.5,81.08,68.3,80.45,68.3z M90.89,74.97h-3.2v-9.12h3.2V74.97z M89.29,64.05
			c-1.03,0-1.84-0.79-1.84-1.81c0-1.01,0.81-1.81,1.84-1.81c1.03,0,1.84,0.79,1.84,1.81C91.13,63.25,90.32,64.05,89.29,64.05z
			 M97.77,75.27c-1.63,0-3.12-0.53-4.08-1.47c-0.88-0.86-1.41-2.12-1.41-3.39s0.53-2.53,1.41-3.39c0.96-0.93,2.45-1.47,4.08-1.47
			c1.63,0,3.12,0.53,4.08,1.47c0.88,0.86,1.41,2.12,1.41,3.39c0,1.27-0.53,2.53-1.41,3.39C100.89,74.73,99.41,75.27,97.77,75.27z
			 M97.77,68.26c-0.62,0-1.15,0.2-1.55,0.59c-0.42,0.41-0.63,0.92-0.63,1.56c0,0.64,0.21,1.15,0.63,1.56
			c0.41,0.39,0.93,0.59,1.57,0.59c0.61,0,1.13-0.2,1.53-0.59c0.42-0.41,0.63-0.92,0.63-1.56c0-0.64-0.21-1.15-0.63-1.56
			C98.92,68.46,98.4,68.26,97.77,68.26z M112.26,74.97h-7.66V61.48h3.43v10.63h4.22V74.97z M116.81,74.97h-3.2v-9.12h3.2V74.97z
			 M115.21,64.05c-1.03,0-1.84-0.79-1.84-1.81c0-1.01,0.81-1.81,1.84-1.81c1.03,0,1.84,0.79,1.84,1.81
			C117.05,63.25,116.24,64.05,115.21,64.05z M124.77,75.27c-1.15,0-2.07-0.37-2.73-1.1v0.8h-3.23V60.25h3.23v6.34
			c0.66-0.67,1.6-1.04,2.69-1.04c1.24,0,2.4,0.44,3.26,1.23c0.95,0.88,1.48,2.15,1.48,3.59c0,1.43-0.52,2.73-1.47,3.65
			C127.14,74.87,126.12,75.27,124.77,75.27z M124.02,68.3c-0.65,0-1.14,0.19-1.55,0.61c-0.41,0.42-0.61,0.92-0.61,1.52
			c0,0.79,0.39,1.26,0.63,1.48c0.41,0.38,1.01,0.62,1.57,0.62c0.52,0,1.04-0.21,1.43-0.57c0.42-0.39,0.67-0.94,0.67-1.52
			c0-0.79-0.36-1.29-0.67-1.58C125.08,68.47,124.62,68.3,124.02,68.3z M153.71,74.97h-3.23v-6.53h-1.02v-2.59h1.02V63h3.23v2.85
			h1.82v2.59h-1.82V74.97z M160.9,79.5h-3.67l3.32-5.81l-4.47-7.84h3.76l2.51,4.63l2.45-4.63h3.67L160.9,79.5z M126.13,53.72
			c-1.17,0-2.52-0.16-3.7-1.31c-0.9-0.88-1.4-2.13-1.4-3.51c0-1.38,0.52-2.68,1.42-3.59c0.89-0.87,2.08-1.31,3.56-1.31
			c1.58,0,2.79,0.45,3.68,1.37c0.88,0.91,1.31,2.12,1.31,3.68v0.44h-6.72c0.03,0.4,0.19,0.92,0.5,1.26
			c0.32,0.34,0.77,0.51,1.39,0.51c0.44,0,0.84-0.09,1.1-0.24c0.01-0.01,0.34-0.19,0.57-0.67l0.04-0.09l3.09,0l-0.12,0.48
			c-0.4,1.24-1.2,1.94-1.8,2.3C128.27,53.5,127.35,53.72,126.13,53.72z M124.42,47.51h3.55c-0.08-0.22-0.22-0.53-0.49-0.78
			c-0.32-0.3-0.76-0.46-1.27-0.46c-0.56,0-1.01,0.17-1.37,0.53C124.64,47.02,124.5,47.25,124.42,47.51z M137.37,53.72
			c-1.17,0-2.52-0.16-3.7-1.31c-0.9-0.88-1.4-2.13-1.4-3.51c0-1.38,0.52-2.68,1.42-3.59c0.89-0.87,2.08-1.31,3.56-1.31
			c1.58,0,2.79,0.45,3.68,1.37c0.88,0.91,1.31,2.12,1.31,3.68v0.44h-6.72c0.03,0.4,0.19,0.92,0.5,1.26
			c0.32,0.34,0.77,0.51,1.39,0.51c0.44,0,0.84-0.09,1.1-0.24c0.01-0.01,0.34-0.19,0.57-0.67l0.04-0.09l3.09,0l-0.12,0.48
			c-0.4,1.24-1.2,1.94-1.8,2.3C139.52,53.5,138.59,53.72,137.37,53.72z M135.66,47.51h3.55c-0.08-0.22-0.22-0.53-0.49-0.78
			c-0.32-0.3-0.76-0.46-1.27-0.46c-0.56,0-1.01,0.17-1.37,0.53C135.89,47.02,135.74,47.25,135.66,47.51z M199.97,53.72
			c-1.17,0-2.52-0.16-3.7-1.31c-0.9-0.88-1.4-2.13-1.4-3.51c0-1.38,0.52-2.68,1.42-3.59c0.89-0.87,2.08-1.31,3.56-1.31
			c1.58,0,2.79,0.45,3.68,1.37c0.88,0.91,1.31,2.12,1.31,3.68v0.44h-6.72c0.03,0.4,0.19,0.92,0.5,1.26
			c0.32,0.34,0.77,0.51,1.39,0.51c0.44,0,0.84-0.09,1.1-0.24c0.01-0.01,0.34-0.19,0.57-0.67l0.04-0.09l3.09,0l-0.12,0.48
			c-0.4,1.24-1.2,1.94-1.8,2.3C202.12,53.5,201.19,53.72,199.97,53.72z M198.26,47.51h3.55c-0.08-0.22-0.22-0.53-0.49-0.78
			c-0.32-0.3-0.76-0.46-1.27-0.46c-0.56,0-1.01,0.17-1.37,0.53C198.49,47.02,198.34,47.25,198.26,47.51z M135.36,75.25
			c-1.17,0-2.52-0.16-3.7-1.31c-0.9-0.88-1.4-2.13-1.4-3.51c0-1.38,0.52-2.68,1.42-3.59c0.89-0.87,2.08-1.31,3.56-1.31
			c1.58,0,2.79,0.45,3.68,1.37c0.88,0.91,1.31,2.12,1.31,3.68v0.44h-6.72c0.03,0.4,0.19,0.92,0.5,1.26
			c0.32,0.34,0.77,0.51,1.39,0.51c0.44,0,0.84-0.09,1.1-0.24c0.01-0.01,0.34-0.19,0.57-0.67l0.04-0.09l3.09,0l-0.12,0.48
			c-0.4,1.24-1.2,1.94-1.8,2.3C137.51,75.04,136.58,75.25,135.36,75.25z M133.65,69.04h3.55c-0.08-0.22-0.22-0.53-0.49-0.78
			c-0.32-0.3-0.76-0.46-1.27-0.46c-0.56,0-1.01,0.17-1.37,0.53C133.88,68.55,133.74,68.79,133.65,69.04z M167.15,53.46h-3.2v-9.12
			h3.2v1.03c0.26-0.35,0.57-0.65,0.91-0.85c0.45-0.28,0.94-0.4,1.63-0.4c0.37,0,0.95,0.18,0.95,0.18v3.01c0,0-0.3-0.38-1.48-0.4
			c-0.55-0.01-0.99,0.18-1.35,0.55c-0.59,0.61-0.67,1.45-0.67,2.27V53.46z M116.82,53.43h-3.2v-9.12h3.2v1.03
			c0.26-0.35,0.57-0.65,0.91-0.85c0.45-0.28,0.94-0.4,1.63-0.4c0.37,0,0.95,0.18,0.95,0.18v3.01c0,0-0.3-0.38-1.48-0.4
			c-0.55-0.01-0.99,0.18-1.35,0.55c-0.59,0.61-0.67,1.45-0.67,2.27V53.43z M144.75,74.87h-3.2v-9.12h3.2v1.03
			c0.26-0.35,0.57-0.65,0.91-0.85c0.45-0.28,0.94-0.4,1.63-0.4c0.37,0,0.95,0.18,0.95,0.18v3.01c0,0-0.3-0.38-1.48-0.4
			c-0.55-0.01-0.99,0.18-1.35,0.55c-0.59,0.61-0.67,1.45-0.67,2.27V74.87z"/>
		<path id="New_Symbol_18_" class="st1" d="M52.19,24.13c-6.89,0.8-8.83,7.93-14.01,14.09c-6.93,8.22-17.21,4-17.21,4
			c6.93-0.86,8.92-8.04,14.23-14.17C42.25,19.91,52.19,24.13,52.19,24.13z M27.21,36.19c0,0,8.62-6.83,4.9-16.89
			c-2.8-7.59-8.2-12.97-5.34-19.3c0,0-8.54,6.93-4.98,16.89C24.51,24.51,30.07,29.86,27.21,36.19z M26.71,34.74
			c0,0,0.83-11.07-8.72-15.28c-7.45-3.28-15.28-2.97-17.96-9.38c0,0-1.06,11,9.07,15.26C16.6,28.5,24.03,28.33,26.71,34.74z
			 M15.36,53.33h19.37l4.52-9.09H15.36V53.33z M18.45,80h1.63l11.12-25.45H18.45V80z"/>
	</g>
</g>
<g id="georgian">
</g>
<g id="georgian_x5F_ru">
</g>
<g id="kazakh">
</g>
<g id="kazakh_x5F_ru">
</g>
<g id="kosovo">
</g>
<g id="kyrgyz">
</g>
<g id="kyrgyz_x5F_ru">
</g>
<g id="macedonia">
</g>
<g id="moldova">
	<g id="Layer_60">
	</g>
	<g id="Layer_61">
	</g>
	<g id="Layer_62">
	</g>
</g>
<g id="north_x5F_caucasus_x5F_av_-_not_full">
</g>
<g id="north_x5F_caucasus_x5F_ch">
</g>
<g id="north_x5F_caucasus_x5F_ru">
</g>
<g id="pakistan">
</g>
<g id="perssian">
</g>
<g id="perssian_x5F_eng">
</g>
<g id="romanian">
	<g id="Layer_57">
	</g>
	<g id="Layer_59">
	</g>
	<g id="Layer_58">
	</g>
</g>
<g id="russia">
</g>
<g id="Siberia">
</g>
<g id="tajik">
</g>
<g id="tajik_x5F_ru">
</g>
<g id="tatar_x5F_bashkir">
</g>
<g id="tatar_x5F_bashkir_x5F_ru">
</g>
<g id="turkmen">
</g>
<g id="turkmen_x5F_ru">
</g>
<g id="ukrainian">
</g>
<g id="uzbek">
</g>
<g id="uzbek_x5F_ru">
</g>
<g id="Sizdan_Telegram_just_video">
</g>
<g id="Severreal">
</g>
<g id="hungarian">
</g>
<g id="theHUB">
</g>
<g id="Faktograf">
</g>
<g id="logos_-_RU">
</g>
<g id="Mobile">
	<g id="Change_5_">
	</g>
</g>
<g id="Desktop">
</g>
<g id="showcase">
</g>
<g id="logos_-_EN">
</g>
<g id="labels">
</g>
<g id="MArti">
</g>
<g id="Screen">
</g>
<g id="Isolation_Mode">
</g>
<g id="dandalin_voa_logo">
</g>
<g id="Layer_2">
</g>
<g id="logo_x5F_big">
</g>
<g id="marti_x5F_2019">
</g>
</svg>
